<ttFont>
<head>
        <!-- Most of this table will be recalculated by the compiler -->
        <tableVersion value="1.0"/>
        <fontRevision value="1.002"/>
        <checkSumAdjustment value="0x5bae894"/>
        <magicNumber value="0x5f0f3cf5"/>
        <flags value="00000000 00000011"/>
        <unitsPerEm value="1000"/>
        <created value="Fri Jan 15 16:29:17 2016"/>
        <modified value="Fri Jan 15 21:29:18 2016"/>
        <xMin value="-1780"/>
        <yMin value="-326"/>
        <xMax value="743"/>
        <yMax value="1276"/>
        <macStyle value="00000000 00000000"/>
        <lowestRecPPEM value="3"/>
        <fontDirectionHint value="2"/>
        <indexToLocFormat value="0"/>
        <glyphDataFormat value="0"/>
    </head>
                    <CharString index="0">
                        rmoveto
163 132 123 205 178 -108 109 -148 -163 -131 -122 -207 -178 107 -108 148 hvcurveto
12 511 rmoveto
91 62 -76 -139 -128 -47 -65 -90 -91 -62 77 138 128 47 65 90 hvcurveto
endchar
                    </CharString>
                    <CharString index="1">
                        rmoveto
74 75 61 107 60 hvcurveto
-74 43 rlineto
-67 -41 -35 -37 -45 hhcurveto
-47 -32 33 78 -46 hvcurveto
-92 -60 rlineto
-108 56 74 -50 73 hhcurveto
return
                    </CharString>
                    <CharString index="2">
                        rmoveto
154 99 101 162 hvcurveto
338 -129 -354 vlineto
-103 -33 -36 -79 -77 -46 49 117 vhcurveto
327 -129 -349 vlineto
-161 89 -91 151 vhcurveto
endchar
                    </CharString>
                    <CharString index="3">
                        rmoveto
hintmask 00111110
130 8 -60 196 -63 193 -67 195 rlinecurve
-172 hlineto
hintmask 01011110
-67 -195 -63 -198 -58 -195 rrcurveto
125 hlineto
15 53 15 52 16 53 rrcurveto
202 hlineto
hintmask 10011110
16 -54 16 -54 15 -54 rrcurveto
hintmask 00111110
-153 482 rmoveto
9 hlineto
24 -76 23 -77 23 -76 rrcurveto
-149 hlineto
23 77 23 76 24 76 rrcurveto
endchar
                    </CharString>
                    <CharString index="4">
                        rmoveto
-46 38 -117 103 -59 59 -88 -110 rcurveline
74 -48 130 -72 67 -30 rrcurveto
return
                    </CharString>
                    <CharString index="5">
                        rmoveto
95 79 64 94 129 -146 33 -98 -78 hvcurveto
12 59 46 30 136 43 -36 94 rcurveline
-175 -55 -88 -101 -127 vvcurveto
69 callsubr
86 35 63 -16 -57 vvcurveto
-40 -25 -21 -40 vhcurveto
endchar
                    </CharString>
                    <CharString index="6">
                        rmoveto
178 143 145 240 207 -116 128 -162 -178 -143 -143 -241 -208 116 -128 162 hvcurveto
12 608 rmoveto
106 72 -94 -167 -155 -54 -79 -104 -107 -72 93 167 155 54 80 105 hvcurveto
endchar
                    </CharString>
                    <CharString index="7">
                        rmoveto
147 130 126 183 175 -99 103 -134 -148 -129 -126 -183 -175 98 -103 135 hvcurveto
27 107 rmoveto
-83 -53 68 131 118 44 56 81 84 53 -68 -131 -118 -45 -56 -81 hvcurveto
endchar
                    </CharString>
                    <CharString index="8">
                        rmoveto
84 82 -197 153 rlineto
-1 hlineto
-190 -172 62 -62 118 104 rlineto
return
                    </CharString>
                    <CharString index="9">
                        rmoveto
76 -1 88 121 vvcurveto
-125 hlineto
-62 4 -87 1 -56 vhcurveto
-162 1 -79 75 136 vvcurveto
129 42 57 287 -12 vhcurveto
-8 123 rlineto
-343 -4 -108 -148 -168 vvcurveto
-224 199 -108 293 63 vhcurveto
return
                    </CharString>
                    <CharString index="10">
                        rmoveto
190 172 -63 62 -117 -104 -85 callgsubr
return
                    </CharString>
                    <CharString index="11">
                        rmoveto
127 98 -385 -98 129 -391 -129 -99 381 hlineto
9 99 rlineto
-132 hlineto
endchar
                    </CharString>
                    <CharString index="12">
                        53 callgsubr
76 -67 61 -229 vhcurveto
-7 -96 rlineto
156 -8 44 -19 -43 vvcurveto
-54 -75 -56 -142 -89 vhcurveto
11 -85 rlineto
return
                    </CharString>
                    <CharString index="13">
                        rmoveto
-206 -1 -86 49 154 vvcurveto
125 37 50 249 -1 vhcurveto
-7 123 rlineto
-303 -14 -106 -138 -162 vvcurveto
-180 95 -130 315 18 vhcurveto
return
                    </CharString>
                    <CharString index="14">
                        rmoveto
hintmask 00111100
132 12 -66 228 -71 226 -76 228 rlinecurve
-175 hlineto
hintmask 01011100
-84 callsubr
hintmask 10011100
19 -66 19 -66 18 -66 rrcurveto
hintmask 00111100
-83 callgsubr
                    </CharString>
                    <CharString index="15">
                        9 90 rlineto
-106 362 hlineto
-102 -8 rlineto
-67 vlineto
-109 -13 3 -73 rlineto
106 -201 -116 -90 hlineto
return
                    </CharString>
                    <CharString index="16">
                        45 122 62 118 77 116 rrcurveto
92 -323 vlineto
-9 -94 rlineto
222 hlineto
3 -6 -78 -111 -59 -107 -47 -118 rlinecurve
return
                    </CharString>
                    <CharString index="17">
                        142 hlineto
23 130 31 262 18 296 rrcurveto
-123 hlineto
-33 -519 rlineto
-6 hlineto
-33 109 -35 108 -37 110 rrcurveto
-86 hlineto
-38 -110 -34 -107 -32 -110 rrcurveto
-8 hlineto
-33 519 rlineto
-132 hlineto
18 -296 30 -262 24 -130 rrcurveto
137 hlineto
102 291 rlineto
endchar
                    </CharString>
                    <CharString index="18">
                        -95 callsubr
endchar
                    </CharString>
                    <CharString index="19">
                        313 19 71 148 202 vvcurveto
149 -2 124 -3 100 vhcurveto
17 -57 -53 7 -48 hhcurveto
-168 -138 -114 -174 -140 91 -89 115 55 46 18 23 35 hvcurveto
-4 -135 -28 -8 -240 -24 rrcurveto
186 232 rmoveto
-71 -60 52 111 92 45 44 77 30 32 -5 -9 33 hvcurveto
-269 vlineto
-11 -29 -30 -5 -27 hhcurveto
endchar
                    </CharString>
                    <CharString index="20">
                        -82 callgsubr
hintmask 01011111
133 -93 rmoveto
hintmask 00111111
-91 callgsubr
hintmask 10011111
-37 callsubr
                    </CharString>
                    <CharString index="21">
                        16 callgsubr
-33 -134 -17 -145 5 -88 rlinecurve
199 2 -1 -79 rlineto
100 hlineto
-1 78 rlineto
return
                    </CharString>
                    <CharString index="22">
                        rmoveto
8 -242 -146 hlineto
45 81 46 81 47 80 rrcurveto
8 -484 rmoveto
370 hlineto
11 108 rlineto
-252 hlineto
hintmask 10110100
143 210 90 -210 140 247 107 -448 vlineto
-119 -194 -113 -199 -110 -195 rrcurveto
134 hlineto
hintmask 11110100
27 50 28 51 28 50 rrcurveto
197 hlineto
endchar
                    </CharString>
                    <CharString index="23">
                        -77 -228 -70 -231 -65 -229 rrcurveto
127 hlineto
18 64 18 64 19 64 rrcurveto
230 hlineto
return
                    </CharString>
                    <CharString index="24">
                        rmoveto
-82 -50 -49 -67 -62 52 -50 80 83 51 50 66 61 -54 51 -80 hvcurveto
return
                    </CharString>
                    <CharString index="25">
                        -588 128 194 vlineto
91 2 rlineto
-91 296 rmoveto
123 10 55 -32 -75 vvcurveto
-44 -23 -38 -44 -27 vhcurveto
-111 -2 rlineto
return
                    </CharString>
                    <CharString index="26">
                        52 28 29 35 46 vvcurveto
68 -69 47 -91 -111 -59 -67 -59 return
                    </CharString>
                    <CharString index="27">
                        rmoveto
-89 callsubr
                    </CharString>
                    <CharString index="28">
                        -17 rmoveto
423 675 -73 47 -424 -675 rlineto
return
                    </CharString>
                    <CharString index="29">
                        -53 -56 -65 -83 -37 hvcurveto
64 -37 rlineto
56 28 22 18 12 hhcurveto
return
                    </CharString>
                    <CharString index="30">
                        -86 callgsubr
77 34 callgsubr
hstemhm
33 550 hintmask 0011110010000000
378 -11 callgsubr
hintmask 0011101110000000
-78 callsubr
hintmask 0011110010000000
27 callsubr
hintmask 1001101010000000
75 -669 rmoveto
hintmask 0011101010000000
130 8 -60 196 -63 193 -67 195 rlinecurve
-172 hlineto
hintmask 0101101010000000
-67 -195 -63 -198 -58 -195 rrcurveto
125 hlineto
15 53 15 52 16 53 rrcurveto
202 hlineto
hintmask 1001101010000000
16 -54 16 -54 15 -54 rrcurveto
hintmask 0011101010000000
-153 482 rmoveto
9 hlineto
24 -76 23 -77 23 -76 rrcurveto
-149 hlineto
23 77 23 76 24 76 rrcurveto
endchar
                    </CharString>
                    <CharString index="31">
                        rmoveto
90 -1 101 142 vvcurveto
-130 hlineto
-75 3 -106 2 -65 vhcurveto
-188 -3 -92 92 166 vvcurveto
153 47 71 323 -14 vhcurveto
-9 136 rlineto
-377 -5 -117 -172 -197 vvcurveto
-266 228 -123 311 75 vhcurveto
return
                    </CharString>
                    <CharString index="32">
                        -178 3 -142 4 -107 vhcurveto
-22 -35 -39 -12 -45 hhcurveto
-60 -39 29 102 hvcurveto
334 vlineto
return
                    </CharString>
                    <CharString index="33">
                        459 472 rmoveto
-92 callsubr
-71 1 callsubr
return
                    </CharString>
                    <CharString index="34">
                        -74 0 108 143 90 140 107 return
                    </CharString>
                    <CharString index="35">
                        -86 callgsubr
-13 callgsubr
128.5 -19 callsubr
hintmask 00111111
481 -38 callgsubr
-90 hmoveto
-105 callgsubr
hintmask 10011111
326 -675 rmoveto
hintmask 00111111
130 8 -60 196 -63 193 -67 195 rlinecurve
-172 hlineto
hintmask 01011111
-67 -195 -63 -198 -58 -195 rrcurveto
125 hlineto
15 53 15 52 16 53 rrcurveto
202 hlineto
hintmask 10011111
16 -54 16 -54 15 -54 rrcurveto
hintmask 00111111
-153 482 rmoveto
9 hlineto
24 -76 23 -77 23 -76 rrcurveto
-149 hlineto
23 77 23 76 24 76 rrcurveto
endchar
                    </CharString>
                    <CharString index="36">
                        114 67 64 65 48 -42 33 -47 27 hvcurveto
return
                    </CharString>
                    <CharString index="37">
                        rmoveto
59 -19 rlineto
53 86 30 82 113 vvcurveto
-140 hlineto
10 -89 0 -86 -12 -87 rrcurveto
return
                    </CharString>
                    <CharString index="38">
                        139 -269 48 73 vvcurveto
43 42 15 188 -12 vhcurveto
return
                    </CharString>
                    <CharString index="39">
                        -30 -14 112 146 84.5 128.5 114 return
                    </CharString>
                    <CharString index="40">
                        138 hlineto
21 111 27 224 16 253 rrcurveto
-121 hlineto
return
                    </CharString>
                    <CharString index="41">
                        rmoveto
-357 -115 357 hlineto
return
                    </CharString>
                    <CharString index="42">
                        1 21 95 callsubr
340 112 hintmask 01111000
563 -243 rmoveto
11 103 rlineto
-81 10 -41 11 27 vvcurveto
23 75 callsubr
-60 196 -63 193 -67 195 rrcurveto
-172 hlineto
hintmask 10111000
-67 -195 -63 -198 -58 -195 rrcurveto
125 hlineto
15 53 15 52 16 53 rrcurveto
202 hlineto
14 -49 15 -48 13 -49 rrcurveto
-78 -45 -30 -46 -43 vvcurveto
hintmask 01111000
-59 53 -49 170 -13 vhcurveto
-263 721 rmoveto
9 hlineto
24 -76 23 -77 23 -76 rrcurveto
-149 hlineto
23 77 23 76 24 76 rrcurveto
endchar
                    </CharString>
                    <CharString index="43">
                        rmoveto
155 54 80 105 37 33 -12 -22 28 vhcurveto
-234 -343 rlineto
-15 39 -8 47 56 vvcurveto
179 -260 rmoveto
-38 -33 12 22 -28 hvcurveto
234 342 rlineto
15 -39 8 -47 -56 vvcurveto
-155 -54 -79 -104 vhcurveto
-32 -113 rmoveto
178 143 145 240 hvcurveto
hintmask 10101110
95 -24 78 -43 57 vhcurveto
hintmask 01110110
54 79 -79 55 -46 -68 rlineto
26 -40 -48 13 -52 hhcurveto
-178 -143 -143 -241 -96 25 -79 42 -57 hvcurveto
-54 -78 rlineto
hintmask 10110110
79 -54 46 67 rlineto
-26 40 48 -13 52 hhcurveto
endchar
                    </CharString>
                    <CharString index="44">
                        51 -13 103 408 104 69 callgsubr
290 130 vstem
return
                    </CharString>
                    <CharString index="45">
                        rmoveto
-124 vlineto
313 -10 119 111 118 vvcurveto
hintmask 11011000
163 -305 55 91 vvcurveto
51 47 20 214 -14 vhcurveto
hintmask 10111000
-9 125 rlineto
-286 15 -100 -112 -112 -164 304 -42 -101 vvcurveto
-56 -75 -28 -222 14 vhcurveto
endchar
                    </CharString>
                    <CharString index="46">
                        238 vlineto
hintmask 11010000
230 450 rlineto
-133 hlineto
-152 -327 rlineto
-6 hlineto
hintmask 10110000
-159 331 -142 -7 232 -449 rlineto
-236 vlineto
endchar
                    </CharString>
                    <CharString index="47">
                        -27 -14 103 -72 -21 28 -21 229 95 76 callgsubr
return
                    </CharString>
                    <CharString index="48">
                        114 -9 113 -83 -21 295 101 188 115 -11 61 callgsubr
126 130 278 130 hintmask 10100111
664 355 rmoveto
hintmask 01101011
271 -166 110 -372 -48 vhcurveto
-292 -69 -101 69 -295 vlineto
hintmask 10100111
338 -48 200 143 260 vvcurveto
-408 -246 rmoveto
186 139 vlineto
6 101 rlineto
-145 hlineto
hintmask 10110011
188 vlineto
211 19 67 -100 -170 vvcurveto
hintmask 10100111
-170 -67 -79 -211 25 vhcurveto
endchar
                    </CharString>
                    <CharString index="49">
                        -90 -9 -51 callsubr
-17 141 12 133 hintmask 11010100
20 callgsubr
-69 callsubr
hintmask 10110100
-8 113 rlineto
-264 12 -92 -94 -97 -139 270 -37 -82 vvcurveto
hintmask 11010100
-47 -68 -22 -197 12 vhcurveto
hintmask 10101000
97 -405 -101 callgsubr
                    </CharString>
                    <CharString index="50">
                        24 callsubr
hstemhm
58 130 81 141 14 125 hintmask 11101000
-13 callsubr
hintmask 11111000
-296 -311 -101 callgsubr
                    </CharString>
                    <CharString index="51">
                        11 callsubr
hintmask 10011100
-71 callgsubr
hintmask 01101100
-2 413 rlineto
7 hlineto
endchar
                    </CharString>
                    <CharString index="52">
                        458 -5 callgsubr
return
                    </CharString>
                    <CharString index="53">
                        210 16 100 62 83 vvcurveto
return
                    </CharString>
                    <CharString index="54">
                        104 -98 107 121 102 -100 108 return
                    </CharString>
                    <CharString index="55">
                        319 -41 175 123 222 vvcurveto
-129 -19 rmoveto
-142 -59 -63 -178 20 vhcurveto
393 vlineto
181 14 56 -81 -141 vvcurveto
endchar
                    </CharString>
                    <CharString index="56">
                        109 384 113 -109 109 hstemhm
66 134 return
                    </CharString>
                    <CharString index="57">
                        rmoveto
92 90 -217 210 221 202 -90 93 -213 -223 -7 -153 rlineto
return
                    </CharString>
                    <CharString index="58">
                        -68 -265 103 154 107 376 123 69 callgsubr
129 96 4 callgsubr
-243 -88 -89 callgsubr
                    </CharString>
                    <CharString index="59">
                        rmoveto
190 172 return
                    </CharString>
                    <CharString index="60">
                        -20 21 -21 588 -20 24 -20 hstemhm
234 128 hintmask 10110000
return
                    </CharString>
                    <CharString index="61">
                        -56 -26 -31 -35 -51 vvcurveto
-65 59 -51 104 vhcurveto
return
                    </CharString>
                    <CharString index="62">
                        256 100 callsubr
58 129 241.5 123.5 vstem
187 304 rmoveto
131 64 47 177 vhcurveto
1 -375 rlineto
-182 -60 67 130 hvcurveto
617 -196 70 callsubr
-308 hlineto
-286 -147 -107 -196 -206 130 -79 301 hvcurveto
304 hlineto
endchar
                    </CharString>
                    <CharString index="63">
                        -39 callsubr
92 callgsubr
63 433 hintmask 11011000
285 -32 callgsubr
202 -647 rmoveto
-80 callgsubr
                    </CharString>
                    <CharString index="64">
                        11 120 -294 -6 283 329 rlineto
112 -415 vlineto
-11 -120 288 6 -286 -329 rlineto
-112 vlineto
endchar
                    </CharString>
                    <CharString index="65">
                        -112 vlineto
289 -9 109 95 101 return
                    </CharString>
                    <CharString index="66">
                        rmoveto
14 112 rlineto
-136 3 -46 14 81 vvcurveto
250 172 103 -172 163 vlineto
-127 -11 rlineto
-152 -87 vlineto
-12 -103 rlineto
99 -272 hlineto
-139 73 -54 222 5 vhcurveto
return
                    </CharString>
                    <CharString index="67">
                        -90 -15 -69 -45 -44 -57 -13 95 rcurveline
-212 hlineto
-11 -97 116 -8 3 -93 1 -113 2 -143 rlinecurve
-117 -101 hlineto
return
                    </CharString>
                    <CharString index="68">
                        -66 0 109 370.5 108.5 return
                    </CharString>
                    <CharString index="69">
                        rmoveto
8 90 -52 -2 1 135 return
                    </CharString>
                    <CharString index="70">
                        -90 67 -54 93 75 53 33 40 38 vhcurveto
endchar
                    </CharString>
                    <CharString index="71">
                        -73 callsubr
-23 callgsubr
-2 112 hintmask 11110000
454 -144 rmoveto
hintmask 11101000
-14 callsubr
11 108 rlineto
hintmask 11110000
-252 143 210 90 -210 140 247 107 -375 -588 hlineto
hintmask 11101000
221 hlineto
-69 -44 -26 -42 -41 vvcurveto
-58 53 -49 170 -14 vhcurveto
endchar
                    </CharString>
                    <CharString index="72">
                        456 7 callsubr
return
                    </CharString>
                    <CharString index="73">
                        332 -108.5 108.5 return
                    </CharString>
                    <CharString index="74">
                        -26 callgsubr
hstemhm
131 113 -46 129 hintmask 11010000
371 -144 rmoveto
hintmask 11100000
-84 12 -43 13 34 vvcurveto
19 19 28 69 38 vhcurveto
118 hlineto
9 99 rlineto
hintmask 11010000
-132 391 127 98 -385 -98 129 -391 hlineto
hintmask 11100000
-129 -99 132 hlineto
-50 -39 -20 -39 -37 vvcurveto
-65 55 -53 174 -15 vhcurveto
endchar
                    </CharString>
                    <CharString index="75">
                        rmoveto
8 hlineto
hintmask 11111000
-290 -163 vlineto
hintmask 10111000
51 97 52 97 52 96 rrcurveto
8 -572 rmoveto
400 hlineto
60 callsubr
178 237 101 -237 176 276 116 -473 hlineto
-131 -227 -124 -232 -120 -229 rrcurveto
133 hlineto
hintmask 11111000
31 60 31 61 32 60 rrcurveto
215 hlineto
endchar
                    </CharString>
                    <CharString index="76">
                        -20 -62 -35 -103 -32 -88 rrcurveto
-7 hlineto
-8 165 -4 97 -6 145 rrcurveto
-134 hlineto
return
                    </CharString>
                    <CharString index="77">
                        93 vstem
837 349 rmoveto
229 -173 145 -213 -209 -164 -157 -226 -230 151 -144 213 210 185 156 227 vhcurveto
-666 -5 rmoveto
180 116 112 160 155 142 -115 -177 -180 -137 -112 -160 -155 -121 116 176 vhcurveto
return
                    </CharString>
                    <CharString index="78">
                        rmoveto
440 89 -440 hlineto
return
                    </CharString>
                    <CharString index="79">
                        -18 0 114 474 -20 25 -20 hstemhm
34 529 hintmask 10110000
208 hmoveto
182 hlineto
hintmask 11010000
66 195 57 198 50 195 rrcurveto
-125 hlineto
-39 -157 -42 -159 -47 -158 rrcurveto
-15 hlineto
hintmask 10110000
-47 159 -44 162 -38 158 -132 -9 rcurveline
50 -195 59 -194 65 -195 rrcurveto
endchar
                    </CharString>
                    <CharString index="80">
                        106 0 157 -136 -21 588 -20 return
                    </CharString>
                    <CharString index="81">
                        -82 27 callgsubr
-13 callgsubr
223.5 132 -129.5 126 hintmask 11110000
351 638 rmoveto
9 150 rlineto
-132 hlineto
-9 -150 rlineto
284 -638 rmoveto
12 101 rlineto
hintmask 11101000
-72 callgsubr
                    </CharString>
                    <CharString index="82">
                        50 -13 108 493 103 callsubr
return
                    </CharString>
                    <CharString index="83">
                        11 107 rlineto
-252 481 80 callsubr
hlineto
return
                    </CharString>
                    <CharString index="84">
                        -171 rmoveto
70 -19 77 78 75 173 -55 108 rlinecurve
-154 -8 49 -98 -13 48 callgsubr
return
                    </CharString>
                    <CharString index="85">
                        -68 21 -21 482 106 92 callgsubr
211 129 hintmask 11011000
278 -32 callgsubr
63 -165 52 callsubr
                    </CharString>
                    <CharString index="86">
                        -65 0 101 329 103 136 131 hstem
196 125 vstem
463 101 rmoveto
-142 329 153 103 -153 38 hlineto
85 14 8 175 5 vhcurveto
-9 131 rlineto
-226 -13 -79 -122 -132 vvcurveto
-111 hlineto
-12 -103 rlineto
123 -329 -118 -101 373 hlineto
endchar
                    </CharString>
                    <CharString index="87">
                        rmoveto
118 44 56 81 26 22 -6 -13 19 vhcurveto
-180 -251 rlineto
-8 27 -4 32 37 vvcurveto
136 -199 rmoveto
-25 -22 6 12 -19 hvcurveto
180 252 rlineto
8 -27 4 -32 -37 vvcurveto
-118 -45 -56 -81 vhcurveto
-27 -107 rmoveto
147 130 126 183 77 -19 62 -32 47 hvcurveto
return
                    </CharString>
                    <CharString index="88">
                        132 90 132 return
                    </CharString>
                    <CharString index="89">
                        -4 12 -21 30 -21 30 -21 186 92 callsubr
return
                    </CharString>
                    <CharString index="90">
                        114 -16 113 495 112 hstem
6 callsubr
vstem
return
                    </CharString>
                    <CharString index="91">
                        -14 callgsubr
rlineto
return
                    </CharString>
                    <CharString index="92">
                        51 -13 103 -59 -21 488 104 -30 -20 50 -20 hstemhm
58 130 290 130 hintmask 10100110
return
                    </CharString>
                    <CharString index="93">
                        -81 10 -41 11 26 vvcurveto
24 75 callsubr
return
                    </CharString>
                    <CharString index="94">
                        550 9 -98 callsubr
return
                    </CharString>
                    <CharString index="95">
                        rmoveto
-74 -62 63 133 115 47 55 87 26 30 -5 -9 33 hvcurveto
-132 2 -102 2 -88 vhcurveto
-20 -30 -31 -10 -30 hhcurveto
return
                    </CharString>
                    <CharString index="96">
                        107 -16 120 584 -20 hstem
93 129 278 130 vstem
return
                    </CharString>
                    <CharString index="97">
                        rmoveto
hintmask 01010110
271 -166 110 -372 -48 vhcurveto
-688 vlineto
hintmask 10001110
338 -48 200 143 260 vvcurveto
-130 -22 rmoveto
-170 -68 -79 -210 25 vhcurveto
hintmask 10100110
475 vlineto
hintmask 10001110
210 19 68 -100 -170 vvcurveto
endchar
                    </CharString>
                    <CharString index="98">
                        -137 -9 108 -108 111 386 100 hstemhm
264 128 hintmask 10110000
94 588 rmoveto
-100 170 -283 vlineto
hintmask 01110000
-98 -9 -16 -193 11 vhcurveto
hintmask 10110000
-111 vlineto
246 -7 84 87 135 vvcurveto
382 vlineto
endchar
                    </CharString>
                    <CharString index="99">
                        12 101 rlineto
-142 hlineto
-2 116 -2 96 -2 80 61 26 68 17 77 5 rrcurveto
return
                    </CharString>
                    <CharString index="100">
                        -197 471 rmoveto
70 27 -47 -81 5 hvcurveto
-211 -4 rlineto
103 6 35 29 68 hhcurveto
-346 -368 rmoveto
-51 -29 29 43 51 26 27 165 -4 hvcurveto
-33 4 -34 12 -29 vhcurveto
-32 -45 -45 -18 -37 hhcurveto
endchar
                    </CharString>
                    <CharString index="101">
                        236 0 108 43 91 9 90 140 107 -104 104 hstemhm
403 129 return
                    </CharString>
                    <CharString index="102">
                        51 callsubr
211 hlineto
126 67 -21 95 -105 -56 rlineto
164 -128 -232 vlineto
-81 -43 21 -94 60 32 rlineto
-251 vlineto
endchar
                    </CharString>
                    <CharString index="103">
                        43 10 -21 32 -21 32 -21 221.5 100 250.5 115 -10 43 callsubr
return
                    </CharString>
                    <CharString index="104">
                        121 464 125 -121 121 hstemhm
68 134 return
                    </CharString>
                    <CharString index="105">
                        116 -116 119 339 119 -113 113 return
                    </CharString>
                    <CharString index="106">
                        57 21 -21 249 95 244 -20 30 callsubr
228 129 vstem
450 hmoveto
129 588 -129 -244 -228 244 80 callsubr
128 249 228 hlineto
endchar
                    </CharString>
                    <CharString index="107">
                        rmoveto
203 200 80 160 160 vvcurveto
156 -79 157 -200 198 vhcurveto
-87 -87 rlineto
182 -169 58 -130 -132 vvcurveto
-130 -55 -125 -188 -172 vhcurveto
endchar
                    </CharString>
                    <CharString index="108">
                        -178 -29 callsubr
return
                    </CharString>
                    <CharString index="109">
                        74 -50 -104 29 -192 hhcurveto
-13 -112 217 -6 61 -23 9 -99 rlinecurve
-223 -3 -91 -87 -107 vvcurveto
-90 67 -54 93 96 66 42 46 51 vhcurveto
59 -57 112 -33 203 2 rrcurveto
return
                    </CharString>
                    <CharString index="110">
                        -48 687 -20 39 -20 hstemhm
89 388 hintmask 01100000
393 624 rmoveto
84 82 -197 153 rlineto
-1 hlineto
hintmask 10100000
-190 -172 rlineto
hintmask 01100000
62 -62 118 104 rlineto
endchar
                    </CharString>
                    <CharString index="111">
                        rmoveto
60 39 -29 -102 hvcurveto
-330 127 374 vlineto
return
                    </CharString>
                    <CharString index="112">
                        -37 0 109 470 109 return
                    </CharString>
                    <CharString index="113">
                        65 131 337 131 return
                    </CharString>
                    <CharString index="114">
                        472 13 callsubr
return
                    </CharString>
                    <CharString index="115">
                        15 21 -21 688 -20 24 -20 hstemhm
251 130 hintmask 10110000
return
                    </CharString>
                    <CharString index="116">
                        463 hmoveto
-24 callsubr
return
                    </CharString>
                    <CharString index="117">
                        -33 -134 -17 -145 5 -88 199 2 rcurveline
return
                    </CharString>
                    <CharString index="118">
                        142 588 -118 hlineto
return
                    </CharString>
                    <CharString index="119">
                        -121 71 -64 104 vhcurveto
return
                    </CharString>
                    <CharString index="120">
                        rmoveto
-95 callsubr
return
                    </CharString>
                    <CharString index="121">
                        rmoveto
-69 callgsubr
return
                    </CharString>
                    <CharString index="122">
                        771 rmoveto
-105 callgsubr
return
                    </CharString>
                    <CharString index="123">
                        rmoveto
187 116 -499 hlineto
-12 -116 rlineto
194 -572 130 hlineto
return
                    </CharString>
                    <CharString index="124">
                        140 -69 57 -101 -82 -57 -34 -40 -45 vhcurveto
return
                    </CharString>
                    <CharString index="125">
                        -106 callsubr
213 return
                    </CharString>
                    <CharString index="126">
                        72 37 54 122 45 hvcurveto
-83 32 rlineto
-57 -25 -19 -40 -22 hhcurveto
hintmask 01010100
-40 -46 103 -91 hhcurveto
-78 -50 -63 -125 -45 hvcurveto
83 -32 rlineto
return
                    </CharString>
                    <CharString index="127">
                        60 callsubr
571 -130 -688 hlineto
return
                    </CharString>
                    <CharString index="128">
                        160 rlineto
-170 hlineto
return
                    </CharString>
                    <CharString index="129">
                        -48 638 150 hstem
217.5 132 vstem
348 38 callgsubr
endchar
                    </CharString>
                    <CharString index="130">
                        -31 10 -21 32 -21 32 -21 223 97.5 214.5 -20 31 -20 246 61 callgsubr
89 127 return
                    </CharString>
                    <CharString index="131">
                        12 -9 98 386 123 return
                    </CharString>
                    <CharString index="132">
                        499 -11 rmoveto
140 22 -230 342 211 335 rlineto
-141 hlineto
-170 -280 rlineto
-75 280 -130 hlineto
return
                    </CharString>
                    <CharString index="133">
                        90 201 157 return
                    </CharString>
                    <CharString index="134">
                        33 55 -85 64 hhcurveto
return
                    </CharString>
                    <CharString index="135">
                        hmoveto
-92 callsubr
endchar
                    </CharString>
                    <CharString index="136">
                        -1 -79 rlineto
100 hlineto
-1 78 rlineto
endchar
                    </CharString>
                    <CharString index="137">
                        hstem
94 128 return
                    </CharString>
                    <CharString index="138">
                        -1 -177 -21 249 106 299 112 return
                    </CharString>
                    <CharString index="139">
                        26 41 callgsubr
return
                    </CharString>
                    <CharString index="140">
                        hstem
12 callgsubr
vstem
return
                    </CharString>
                    <CharString index="141">
                        19 -16 107 373 107 return
                    </CharString>
                    <CharString index="142">
                        vstem
100 420 rmoveto
70 -19 78 77 74 174 -54 107 rlinecurve
-154 -8 49 -97 -14 48 callgsubr
return
                    </CharString>
                    <CharString index="143">
                        450 hmoveto
-34 callgsubr
return
                    </CharString>
                    <CharString index="144">
                        -115 8 -33 -134 -17 -145 5 -88 rlinecurve
199 2 29 callsubr
                    </CharString>
                    <CharString index="145">
                        92 -9 113 -83 -21 584 115 -11 -20 31 43 callsubr
278 130 hintmask 10001110
return
                    </CharString>
                    <CharString index="146">
                        -48 656 115 hstem
105 357 vstem
462 771 -66 callsubr
endchar
                    </CharString>
                    <CharString index="147">
                        118 455 136 hstem
65 134 return
                    </CharString>
                    <CharString index="148">
                        21 -21 461 110 return
                    </CharString>
                    <CharString index="149">
                        98 callgsubr
-1 164 261 vvcurveto
return
                    </CharString>
                    <CharString index="150">
                        -20 80 callgsubr
return
                    </CharString>
                    <CharString index="151">
                        hstem
104 130 vstem
return
                    </CharString>
                    <CharString index="152">
                        133 22 -131 291 rlineto
60 46 45 58 89 vvcurveto
143 -101 91 -316 -41 vhcurveto
return
                    </CharString>
                    <CharString index="153">
                        -20 5 callgsubr
hintmask 0010011111000000
return
                    </CharString>
                    <CharString index="154">
                        -22 callgsubr
178 130 return
                    </CharString>
                    <CharString index="155">
                        30 callgsubr
hintmask 1010100100000000
362 vlineto
hintmask 1010010100000000
-102 -8 rlineto
return
                    </CharString>
                    <CharString index="156">
                        rmoveto
-70 19 -48 -50 -37 -104 -1 -82 rlinecurve
154 8 -18 60 0 86 20 63 rlinecurve
return
                    </CharString>
                    <CharString index="157">
                        hstemhm
180 121 -119 111 -31 128 -121 122 hintmask 10010000
84 return
                    </CharString>
                    <CharString index="158">
                        -10 callgsubr
vstem
463 hmoveto
11 107 rlineto
-252 return
                    </CharString>
                    <CharString index="159">
                        -29 callgsubr
endchar
                    </CharString>
                    <CharString index="160">
                        0 11 -3 4 -5 -5 -3 -4 0 hflex1
return
                    </CharString>
                    <CharString index="161">
                        82 callsubr
260 102 return
                    </CharString>
                    <CharString index="162">
                        0 12 9 8 12 12 9 -8 0 hflex1
return
                    </CharString>
                    <CharString index="163">
                        89 283 89 hstem
return
                    </CharString>
                    <CharString index="164">
                        428 -11 rmoveto
133 22 -189 286 61 80 57 87 52 82 rlinecurve
return
                    </CharString>
                    <CharString index="165">
                        hstemhm
94 116 257 117 return
                    </CharString>
                    <CharString index="166">
                        75 -11 109 465 136 return
                    </CharString>
                    <CharString index="167">
                        13 117 rlineto
-283 return
                    </CharString>
                    <CharString index="168">
                        81 hstemhm
331 93 callsubr
494 return
                    </CharString>
                    <CharString index="169">
                        109.5 -105 110 155.5 -20 hstemhm
208 return
                    </CharString>
                    <CharString index="170">
                        30 callsubr
vstem
return
                    </CharString>
                    <CharString index="171">
                        65 callsubr
hstem
return
                    </CharString>
                    <CharString index="172">
                        98 260 93 return
                    </CharString>
                    <CharString index="173">
                        vstem
9 callsubr
return
                    </CharString>
                    <CharString index="174">
                        504 hmoveto
20 callsubr
return
                    </CharString>
                    <CharString index="175">
                        56 10 -21 32 -21 292 116 280 43 callsubr
return
                    </CharString>
                    <CharString index="176">
                        12 callsubr
10 90 rmoveto
-45 -36 29 70 -3 hvcurveto
return
                    </CharString>
                    <CharString index="177">
                        rmoveto
-252 143 210 90 -210 140 247 107 return
                    </CharString>
                    <CharString index="178">
                        -20 6 callgsubr
return
                    </CharString>
                    <CharString index="179">
                        -52 0 117 571 -20 return
                    </CharString>
                    <CharString index="180">
                        110 744 110 hstem
return
                    </CharString>
                    <CharString index="181">
                        111 -26 111 return
                    </CharString>
                    <CharString index="182">
                        28 30 103 43 vhcurveto
return
                    </CharString>
                    <CharString index="183">
                        169.5 -163.5 170 hintmask 11010000
return
                    </CharString>
                    <CharString index="184">
                        90 207 104 -8 47 callsubr
return
                    </CharString>
                    <CharString index="185">
                        -127 -11 rlineto
-783 127 233 vlineto
59 2 rlineto
return
                    </CharString>
                    <CharString index="186">
                        93 261 96 return
                    </CharString>
                    <CharString index="187">
                        -128 -588 return
                    </CharString>
                    <CharString index="188">
                        -19 -10 40 callsubr
vstem
return
                    </CharString>
                    <CharString index="189">
                        89 89 26 callsubr
hstemhm
return
                    </CharString>
                    <CharString index="190">
                        32 callgsubr
vstem
return
                    </CharString>
                    <CharString index="191">
                        83 callgsubr
-33 callgsubr
return
                    </CharString>
                    <CharString index="192">
                        rmoveto
2 132 rlineto
-134 hlineto
-2 -132 rlineto
return
                    </CharString>
                    <CharString index="193">
                        -90 94 callgsubr
return
                    </CharString>
                    <CharString index="194">
                        hstemhm
67 124 191 125 212 125 return
                    </CharString>
                    <CharString index="195">
                        149 rlineto
-159 hlineto
-3 -149 rlineto
endchar
                    </CharString>
                    <CharString index="196">
                        -29 111 94 89 89 return
                    </CharString>
                    <CharString index="197">
                        128 105 callsubr
return
                    </CharString>
                    <CharString index="198">
                        507 -11 81 -66 -21 return
                    </CharString>
                    <CharString index="199">
                        90 207 104 -8 -20 return
                    </CharString>
                    <CharString index="200">
                        -53 callsubr
hintmask 10111001
return
                    </CharString>
                    <CharString index="201">
                        0 8 -2 4 -5 -4 -3 -3 0 hflex1
return
                    </CharString>
                    <CharString index="202">
                        -21 25 -21 154 91 229 110 hstemhm
return
                    </CharString>
                    <CharString index="203">
                        hintmask 000000001000000000000000000000000000000000000000
return
                    </CharString>
                    <CharString index="204">
                        -456 -115 456 hlineto
return
                    </CharString>
                    <CharString index="205">
                        -173 -21 32 -21 return
                    </CharString>
                    <CharString index="206">
                        99 149 101 return
                    </CharString>
                    <CharString index="207">
                        0 108 143 90 140 107 hstem
return
                    </CharString>
                    <CharString index="208">
                        442 hmoveto
11 callsubr
return
                    </CharString>
                    <CharString index="209">
                        -143 3 3 158 -121 1 rlineto
return
                    </CharString>
                    <CharString index="210">
                        -20 -46 callgsubr
return
                    </CharString>
                    <CharString index="211">
                        461 rmoveto
60 39 -29 -102 hvcurveto
-330 return
                    </CharString>
                    <CharString index="212">
                        -20 115 -20 return
                    </CharString>
                <CharString name=".notdef">
                    -115 -200 50 900 50 hstem
0 50 400 50 vstem
-200 vmoveto
500 1000 -500 hlineto
71 -50 rmoveto
358 hlineto
-179 -390 rlineto
200 316 rmoveto
-752 vlineto
-172 376 rlineto
-228 -376 rmoveto
752 vlineto
172 -376 rlineto
28 -60 rmoveto
179 -390 rlineto
-358 hlineto
endchar
                </CharString>
                <CharString name="A">
                    -59 callgsubr
hstemhm
34 600 hintmask 10011100
502 -6 -93 callsubr
                </CharString>
                <CharString name="A.sc">
                    -86 callgsubr
hstemhm
33 550 hintmask 10011100
453 -4 -103 callgsubr
                </CharString>
                <CharString name="AE">
                    49 callgsubr
429 572 -32 callsubr
                </CharString>
                <CharString name="AE.sc">
                    -6 callsubr
hintmask 11101100
395 484 -85 callsubr
                </CharString>
                <CharString name="AEacute">
                    49 callgsubr
410 816 -107 callgsubr
19 -244 -32 callsubr
                </CharString>
                <CharString name="AEacute.sc">
                    -6 callsubr
hintmask 10110100
374 716 -107 callgsubr
hintmask 11101100
21 -232 -85 callsubr
                </CharString>
                <CharString name="Aacute">
                    -59 callgsubr
hstemhm
34 600 hintmask 00111100
200 816 -107 callgsubr
hintmask 10011100
302 -822 -93 callsubr
                </CharString>
                <CharString name="Aacute.sc">
                    -86 callgsubr
hstemhm
33 550 hintmask 00111100
174 716 -107 callgsubr
hintmask 10011100
279 -720 -103 callgsubr
                </CharString>
                <CharString name="Abreve">
                    -59 callgsubr
71 107 hstemhm
34 600 hintmask 00111110
333 759 -106 callsubr
hintmask 10011110
169 -765 rmoveto
hintmask 00111110
132 12 -66 228 -71 226 -76 228 rlinecurve
-175 hlineto
hintmask 01011110
-84 callsubr
hintmask 10011110
19 -66 19 -66 18 -66 rrcurveto
hintmask 00111110
-83 callgsubr
                </CharString>
                <CharString name="Abreve.sc">
                    -86 callgsubr
71 107 hstemhm
33 550 hintmask 00111110
308 659 -106 callsubr
hintmask 10011110
145 -663 -104 callsubr
                </CharString>
                <CharString name="Acircumflex">
                    -59 callgsubr
hstemhm
34 600 hintmask 00111100
450 757 -99 callsubr
hintmask 10011100
176 -868 -93 callsubr
                </CharString>
                <CharString name="Acircumflex.sc">
                    -86 callgsubr
hstemhm
33 550 hintmask 00111100
424 657 -99 callsubr
hintmask 10011100
153 -766 -103 callgsubr
                </CharString>
                <CharString name="Adieresis">
                    -59 callgsubr
-13 callgsubr
154.5 -19 callsubr
hintmask 00111111
507 -6 callgsubr
hintmask 10011111
349 -777 rmoveto
hintmask 00111111
132 12 -66 228 -71 226 -76 228 rlinecurve
-175 hlineto
hintmask 01011111
-84 callsubr
hintmask 10011111
19 -66 19 -66 18 -66 rrcurveto
hintmask 00111111
-83 callgsubr
                </CharString>
                <CharString name="Adieresis.sc">
                    -72 callsubr
                </CharString>
                <CharString name="Agrave">
                    -59 callgsubr
hstemhm
34 600 hintmask 00111100
449 813 -103 callsubr
hintmask 10011100
92 -759 -93 callsubr
                </CharString>
                <CharString name="Agrave.sc">
                    -86 callgsubr
125 -20 hstemhm
33 550 hintmask 00111110
423 713 -103 callsubr
hintmask 10011110
69 -657 -104 callsubr
                </CharString>
                <CharString name="Amacron">
                    -59 callgsubr
101 115 hstemhm
34 600 hintmask 00111110
508 904 -66 callsubr
hintmask 10011110
-6 -795 rmoveto
hintmask 00111110
132 12 -66 228 -71 226 -76 228 rlinecurve
-175 hlineto
hintmask 01011110
-84 callsubr
hintmask 10011110
19 -66 19 -66 18 -66 rrcurveto
hintmask 00111110
-83 callgsubr
                </CharString>
                <CharString name="Amacron.sc">
                    -86 callgsubr
101 115 hstemhm
33 550 hintmask 00111110
482 804 -66 callsubr
hintmask 10011110
-29 -693 -104 callsubr
                </CharString>
                <CharString name="Aogonek">
                    53 21 -21 27 -21 186 101 274 121 hstemhm
391 112 hintmask 01111000
614 -242 rmoveto
11 103 rlineto
-81 10 -41 11 27 vvcurveto
23 28 30 103 44 vhcurveto
-66 228 -71 226 -76 228 rrcurveto
-175 hlineto
hintmask 10111000
-84 callsubr
18 -60 17 -60 16 -60 rrcurveto
-77 -45 -29 -45 -43 vvcurveto
hintmask 01111000
-59 53 -49 170 -13 vhcurveto
-287 809 rmoveto
8 hlineto
28 -91 27 -92 27 -91 rrcurveto
-172 hlineto
27 92 27 91 28 91 rrcurveto
endchar
                </CharString>
                <CharString name="Aogonek.sc">
                    -65 callsubr
                </CharString>
                <CharString name="Aring">
                    -59 callgsubr
59 228 hstemhm
34 600 hintmask 00111110
328 975 -83 callsubr
hintmask 10011110
174 -981 rmoveto
hintmask 00111110
132 12 -66 228 -71 226 -76 228 rlinecurve
-175 hlineto
hintmask 01011110
-84 callsubr
hintmask 10011110
19 -66 19 -66 18 -66 rrcurveto
hintmask 00111110
-83 callgsubr
                </CharString>
                <CharString name="Aring.sc">
                    -86 callgsubr
59 228 hstemhm
33 550 hintmask 00111110
302 875 -83 callsubr
hintmask 10011110
151 -879 -104 callsubr
                </CharString>
                <CharString name="Aringacute">
                    -59 callgsubr
hstemhm
34 600 hintmask 00111100
200 1069 -107 callgsubr
128 -94 -83 callsubr
hintmask 10011100
174 -981 -93 callsubr
                </CharString>
                <CharString name="Aringacute.sc">
                    -86 callgsubr
hstemhm
33 550 hintmask 00111100
174 969 -107 callgsubr
128 -94 -83 callsubr
hintmask 10011100
151 -879 -103 callgsubr
                </CharString>
                <CharString name="Atilde">
                    -59 callgsubr
77 74 callsubr
hstemhm
34 600 hintmask 00111101
403 765 -77 callgsubr
hhcurveto
hintmask 00111011
-33 -54 85 -65 hhcurveto
-78 callsubr
hintmask 00111101
27 callsubr
hintmask 10011011
99 -771 rmoveto
hintmask 00111011
132 12 -66 228 -71 226 -76 228 rlinecurve
-175 hlineto
hintmask 01011011
-84 callsubr
hintmask 10011011
19 -66 19 -66 18 -66 rrcurveto
hintmask 00111011
-83 callgsubr
                </CharString>
                <CharString name="Atilde.sc">
                    -77 callsubr
                </CharString>
                <CharString name="B">
                    21 -10 109 -78 -21 291 102 194 112 -11 43 callsubr
189 128 -105 131 hintmask 10110101
577 210 rmoveto
78 -38 53 -85 29 vhcurveto
hintmask 01101110
60 36 37 52 69 vvcurveto
161 -195 31 -252 -31 vhcurveto
-688 vlineto
hintmask 10110101
253 -36 220 58 188 vvcurveto
hintmask 10110110
-343 374 rmoveto
126 13 63 -31 -74 vvcurveto
-77 -39 -27 -150 5 vhcurveto
hintmask 10110101
-288 vmoveto
186 vlineto
138 10 74 -15 -87 vvcurveto
-88 -58 -26 -154 20 vhcurveto
endchar
                </CharString>
                <CharString name="B.sc">
                    -61 callgsubr
                </CharString>
                <CharString name="C">
                    81 callsubr
524 108 -73 callgsubr
endchar
                </CharString>
                <CharString name="C.sc">
                    -68 -8 107 376 123 hstem
58 130 4 callgsubr
endchar
                </CharString>
                <CharString name="Cacute">
                    81 callsubr
199 827 -107 callgsubr
325 -719 -73 callgsubr
endchar
                </CharString>
                <CharString name="Cacute.sc">
                    85 callgsubr
171 726 -107 callgsubr
309 -627 -94 callsubr
endchar
                </CharString>
                <CharString name="Ccaron">
                    81 callsubr
338 758 -97 callsubr
187 -650 -73 callgsubr
endchar
                </CharString>
                <CharString name="Ccaron.sc">
                    25 callgsubr
189 -20 69 callgsubr
vstem
310 657 -97 callsubr
171 -558 -94 callsubr
endchar
                </CharString>
                <CharString name="Ccedilla">
                    -19 -268 103 155 40 callsubr
145 96 vstem
524 108 -73 callgsubr
-259 -89 -89 callgsubr
                </CharString>
                <CharString name="Ccedilla.sc">
                    -49 callsubr
                </CharString>
                <CharString name="Cdotaccent">
                    -19 -10 118 455 136 83 150 hstem
65 134 70.5 132 vstem
400 782 rmoveto
-105 callgsubr
256 -674 -73 callgsubr
endchar
                </CharString>
                <CharString name="Cdotaccent.sc">
                    25 callgsubr
83 150 69 callgsubr
53.5 132 vstem
372 681 rmoveto
-105 callgsubr
240 -582 -94 callsubr
endchar
                </CharString>
                <CharString name="D">
                    38 callsubr
642 355 -10 callsubr
                </CharString>
                <CharString name="D.sc">
                    -28 callgsubr
                </CharString>
                <CharString name="Dcaron">
                    38 callsubr
343 758 -97 callsubr
300 -403 -10 callsubr
                </CharString>
                <CharString name="Dcaron.sc">
                    -55 callgsubr
                </CharString>
                <CharString name="Dcroat">
                    -59 callsubr
                </CharString>
                <CharString name="Dcroat.sc">
                    -90 callgsubr
                </CharString>
                <CharString name="E">
                    -35 callgsubr
44 callsubr
517 117 rmoveto
-78 callgsubr
                </CharString>
                <CharString name="E.sc">
                    9 callgsubr
474 108 rmoveto
-94 callgsubr
                </CharString>
                <CharString name="Eacute">
                    -35 callgsubr
44 callsubr
171 816 -107 callgsubr
346 -699 rmoveto
-78 callgsubr
                </CharString>
                <CharString name="Eacute.sc">
                    9 callgsubr
146 716 -107 callgsubr
328 -608 rmoveto
-94 callgsubr
                </CharString>
                <CharString name="Ebreve">
                    -35 callgsubr
71 107 44 callsubr
304 759 18 callsubr
-642 rmoveto
-78 callgsubr
                </CharString>
                <CharString name="Ebreve.sc">
                    -73 callsubr
71 107 63 callsubr
279 659 -106 callsubr
195 -551 rmoveto
-94 callgsubr
                </CharString>
                <CharString name="Ecaron">
                    -35 callgsubr
44 callsubr
310 747 -97 callsubr
208 -630 rmoveto
-78 callgsubr
                </CharString>
                <CharString name="Ecaron.sc">
                    -73 callsubr
92 callgsubr
94 128 hintmask 11101100
87 callgsubr
hintmask 11110100
-117 -104 rlineto
hintmask 11101100
-85 callgsubr
190 -539 rmoveto
-94 callgsubr
                </CharString>
                <CharString name="Ecircumflex">
                    -35 callgsubr
44 callsubr
421 757 -99 callsubr
220 -745 rmoveto
-78 callgsubr
                </CharString>
                <CharString name="Ecircumflex.sc">
                    9 callgsubr
395 657 -99 callsubr
203 -654 rmoveto
-94 callgsubr
                </CharString>
                <CharString name="Edieresis">
                    -35 callgsubr
83 150 80 callgsubr
-108.5 -19 callsubr
hintmask 11111010
478 15 callsubr
hintmask 11110110
-90 hmoveto
-105 callgsubr
393 -654 rmoveto
hintmask 11111010
-78 callgsubr
                </CharString>
                <CharString name="Edieresis.sc">
                    -44 callgsubr
                </CharString>
                <CharString name="Edotaccent">
                    -35 callgsubr
83 150 80 callgsubr
7.5 132 hintmask 11110100
372 15 callsubr
277 -654 rmoveto
hintmask 11111000
-78 callgsubr
                </CharString>
                <CharString name="Edotaccent.sc">
                    -73 callsubr
83 150 -23 callgsubr
-5.5 132 hintmask 11110100
347 -38 callgsubr
259 -563 rmoveto
hintmask 11111000
-94 callgsubr
                </CharString>
                <CharString name="Egrave">
                    -35 callgsubr
44 callsubr
420 813 -103 callsubr
136 -636 rmoveto
-78 callgsubr
                </CharString>
                <CharString name="Egrave.sc">
                    -73 callsubr
125 -20 63 callsubr
394 713 -103 callsubr
119 -545 rmoveto
-94 callgsubr
                </CharString>
                <CharString name="Emacron">
                    -35 callgsubr
101 115 44 callsubr
479 904 -66 callsubr
38 -672 rmoveto
-78 callgsubr
                </CharString>
                <CharString name="Emacron.sc">
                    -73 callsubr
101 115 63 callsubr
453 804 -66 callsubr
21 -581 rmoveto
-94 callgsubr
                </CharString>
                <CharString name="Eogonek">
                    -35 callgsubr
80 callgsubr
27 112 hintmask 11110000
495 -144 rmoveto
hintmask 11111000
-14 callsubr
13 117 rlineto
hintmask 11110000
-283 178 237 101 -237 176 276 116 -406 -688 hlineto
hintmask 11111000
252 hlineto
-69 -44 -26 -42 -41 vvcurveto
-58 53 -49 170 -14 vhcurveto
endchar
                </CharString>
                <CharString name="Eogonek.sc">
                    -36 callsubr
                </CharString>
                <CharString name="Eth">
                    -59 callsubr
                </CharString>
                <CharString name="Eth.sc">
                    -90 callgsubr
                </CharString>
                <CharString name="Euro">
                    9 185 111 -96 100 70 100 hstemhm
128 122 hintmask 01110000
542 84 rmoveto
-163 24 -72 35 -32 57 rrcurveto
208 hlineto
6 100 rlineto
-238 hlineto
-1 16 0 16 18 7 0 7 6 vvcurveto
243 hlineto
6 100 rlineto
-235 hlineto
24 65 67 24 178 25 -22 132 rcurveline
-234 -46 -95 -83 -36 -106 rrcurveto
-81 -111 63 hlineto
hintmask 10110000
-8 0 -8 -8 vvcurveto
-17 0 -17 2 -16 vhcurveto
-64 -111 84 hlineto
40 -117 103 -70 230 -24 rrcurveto
endchar
                </CharString>
                <CharString name="F">
                    -44 21 -21 284 101 187 116 44 callsubr
471 284 rmoveto
101 -237 187 276 116 -406 -688 130 284 vlineto
endchar
                </CharString>
                <CharString name="F.sc">
                    8 callgsubr
                </CharString>
                <CharString name="G">
                    59 callsubr
hstem
65 133 275 130 vstem
604 11 -76 callsubr
endchar
                </CharString>
                <CharString name="G.sc">
                    24 callsubr
69 callgsubr
236 125 vstem
-13 callsubr
endchar
                </CharString>
                <CharString name="Gbreve">
                    59 callsubr
71 107 hstem
65 133 275 130 vstem
370 770 -106 callsubr
234 -759 -76 callsubr
endchar
                </CharString>
                <CharString name="Gbreve.sc">
                    24 callsubr
71 107 69 callgsubr
236 125 vstem
337 669 18 callsubr
-660 -98 callsubr
endchar
                </CharString>
                <CharString name="Gcommaaccent">
                    59 callsubr
hstemhm
65 133 104 141 30 130 hintmask 11101000
604 11 -76 callsubr
hintmask 11111000
-317 -315 -101 callgsubr
                </CharString>
                <CharString name="Gcommaaccent.sc">
                    -57 callsubr
                </CharString>
                <CharString name="Gdotaccent">
                    59 callsubr
83 150 hstem
65 133 109.5 132 33.5 130 vstem
438 782 rmoveto
-105 callgsubr
298 -771 -76 callsubr
endchar
                </CharString>
                <CharString name="Gdotaccent.sc">
                    24 callsubr
-13 callgsubr
58 130 86.5 132 17.5 125 vstemhm
405 681 rmoveto
-105 callgsubr
hintmask 11110100
277 -672 -98 callsubr
endchar
                </CharString>
                <CharString name="H">
                    119 21 -21 295 101 292 -20 hstem
104 130 266 130 vstem
500 hmoveto
130 688 -130 -292 -266 292 -130 -688 130 295 266 hlineto
endchar
                </CharString>
                <CharString name="H.sc">
                    -1 callsubr
                </CharString>
                <CharString name="Hbar">
                    163 21 -21 273 101 101 101 -95 90 -90 207 hstemhm
126 130 266 130 hintmask 11010110
522 374 rmoveto
-266 107 266 hlineto
-481 vmoveto
130 hlineto
hintmask 11100110
475 70 101 -70 vlineto
hintmask 11001110
112 -130 vlineto
hintmask 11010110
-117 -266 vlineto
hintmask 11001110
117 -130 vlineto
hintmask 11100110
-112 -69 -101 69 -475 130 273 266 vlineto
endchar
                </CharString>
                <CharString name="Hbar.sc">
                    -36 callgsubr
                </CharString>
                <CharString name="I">
                    5 callsubr
hstem
226 130 vstem
356 579 -79 callgsubr
                </CharString>
                <CharString name="I.sc">
                    -26 callgsubr
13 callgsubr
327 490 -96 callsubr
                </CharString>
                <CharString name="Iacute">
                    5 callsubr
hstem
226 130 vstem
164 816 -107 callgsubr
192 -237 -79 callgsubr
                </CharString>
                <CharString name="Iacute.sc">
                    -26 callgsubr
13 callgsubr
135 716 -107 callgsubr
192 -226 -96 callsubr
                </CharString>
                <CharString name="Ibreve">
                    5 callsubr
71 107 hstem
226 130 vstem
298 759 -106 callsubr
58 -180 -79 callgsubr
                </CharString>
                <CharString name="Ibreve.sc">
                    -26 callgsubr
71 107 13 callgsubr
268 659 -106 callsubr
59 -169 -96 callsubr
                </CharString>
                <CharString name="Icircumflex">
                    5 callsubr
hstem
226 130 vstem
414 757 -99 callsubr
66 -283 -79 callgsubr
                </CharString>
                <CharString name="Icircumflex.sc">
                    -26 callgsubr
13 callgsubr
385 657 -99 callsubr
66 -272 -96 callsubr
                </CharString>
                <CharString name="Idieresis">
                    5 callsubr
-13 callgsubr
118.5 132 -24.5 130 -15.5 132 hintmask 11110100
471 -6 callgsubr
hintmask 11101000
239 -192 -79 callgsubr
                </CharString>
                <CharString name="Idieresis.sc">
                    -26 callgsubr
-13 callgsubr
89.5 132 -23.5 129 -15.5 132 hintmask 11110100
442 -38 callgsubr
-90 hmoveto
-105 callgsubr
hintmask 11101000
239 -181 -96 callsubr
                </CharString>
                <CharString name="Idotaccent">
                    5 callsubr
-13 callgsubr
226 130 -120.5 132 hintmask 11101000
366 15 callsubr
hintmask 11110000
122 -192 -79 callgsubr
                </CharString>
                <CharString name="Idotaccent.sc">
                    -26 callgsubr
-13 callgsubr
198 129 -121.5 132 hintmask 11101000
336 -38 callgsubr
hintmask 11110000
123 -181 -96 callsubr
                </CharString>
                <CharString name="Igrave">
                    5 callsubr
hstem
226 130 vstem
413 813 -103 callsubr
-18 -174 -79 callgsubr
                </CharString>
                <CharString name="Igrave.sc">
                    -26 callgsubr
125 -20 13 callgsubr
384 713 -103 callsubr
-18 -163 -96 callsubr
                </CharString>
                <CharString name="Imacron">
                    5 callsubr
101 115 hstem
226 130 vstem
472 904 -66 callsubr
-116 -210 -79 callgsubr
                </CharString>
                <CharString name="Imacron.sc">
                    -26 callgsubr
101 115 13 callgsubr
443 804 -66 callsubr
-116 -199 -96 callsubr
                </CharString>
                <CharString name="Iogonek">
                    5 callsubr
hstemhm
151 113 -38 130 hintmask 11010000
391 -144 rmoveto
hintmask 11100000
-84 12 -43 13 34 vvcurveto
19 19 28 69 38 vhcurveto
142 hlineto
10 109 rlineto
hintmask 11010000
-148 470 143 109 -416 -109 143 -470 hlineto
hintmask 11100000
-143 -109 145 hlineto
-55 -39 -22 -37 -39 vvcurveto
-65 55 -53 174 -15 vhcurveto
endchar
                </CharString>
                <CharString name="Iogonek.sc">
                    -33 callsubr
                </CharString>
                <CharString name="J">
                    -107 -11 120 -120 124 466 109 hstemhm
286 130 hintmask 10110000
98 688 rmoveto
-109 188 -339 vlineto
hintmask 01110000
-121 -10 -20 -214 14 vhcurveto
hintmask 10110000
-124 vlineto
263 -8 91 103 157 vvcurveto
447 vlineto
endchar
                </CharString>
                <CharString name="J.sc">
                    -9 callsubr
                </CharString>
                <CharString name="K">
                    68 callsubr
hintmask 10111000
25 callsubr
hintmask 01111000
-688 130 292 67 vlineto
endchar
                </CharString>
                <CharString name="K.sc">
                    3 12 -21 30 -21 246 106 236 -22 callgsubr
hintmask 10111000
-39 callgsubr
hintmask 01111000
-588 128 246 56 vlineto
endchar
                </CharString>
                <CharString name="Kcommaaccent">
                    68 callsubr
45 141 hintmask 10111100
25 callsubr
hintmask 01111100
-688 130 292 67 vlineto
-37 -596 -101 callgsubr
                </CharString>
                <CharString name="Kcommaaccent.sc">
                    -41 callgsubr
                </CharString>
                <CharString name="L">
                    47 callgsubr
67 callsubr
endchar
                </CharString>
                <CharString name="L.sc">
                    51 callsubr
481 80 callsubr
hlineto
endchar
                </CharString>
                <CharString name="Lacute">
                    47 callgsubr
170 816 -107 callgsubr
334 -816 rmoveto
20 callsubr
endchar
                </CharString>
                <CharString name="Lacute.sc">
                    -10 callgsubr
vstem
144 716 -107 callgsubr
319 -716 rmoveto
-24 callsubr
endchar
                </CharString>
                <CharString name="Lcaron">
                    72 callsubr
113 -20 hstem
104 130 100 callgsubr
vstem
361 519 -70 callsubr
143 -519 rmoveto
20 callsubr
endchar
                </CharString>
                <CharString name="Lcaron.sc">
                    -10 callgsubr
112 133 vstem
325 463 -70 callsubr
138 -463 rmoveto
-24 callsubr
endchar
                </CharString>
                <CharString name="Lcommaaccent">
                    72 callsubr
hstemhm
104 130 2 141 hintmask 11100000
67 callsubr
hintmask 11010000
117 -293 -101 callgsubr
                </CharString>
                <CharString name="Lcommaaccent.sc">
                    -9 callgsubr
                </CharString>
                <CharString name="Ldot">
                    -52 0 117 161 149 261 -20 hstem
104 130 143.5 132.5 vstem
67 callsubr
402 278 rmoveto
8 29 callgsubr
                </CharString>
                <CharString name="Ldot.sc">
                    -8 callgsubr
                </CharString>
                <CharString name="Lslash">
                    47 callgsubr
504 hmoveto
60 callsubr
255 hlineto
125 66 -21 97 -104 -55 rlineto
208 -130 -277 vlineto
-80 -42 21 -97 59 31 rlineto
-303 vlineto
endchar
                </CharString>
                <CharString name="Lslash.sc">
                    -5 callsubr
                </CharString>
                <CharString name="M">
                    275 21 -21 51.5 192.5 265 179 hstem
104 118.5 434 129.5 vstem
605 688 rmoveto
-151 -444 rlineto
-8 hlineto
-150 444 rlineto
-192 -688 121 hlineto
-5 509 rlineto
8 hlineto
161 -458 101 1 160 457 rlineto
9 hlineto
-5 -509 rlineto
132 688 hlineto
endchar
                </CharString>
                <CharString name="M.sc">
                    -37 callgsubr
                </CharString>
                <CharString name="N">
                    -4 callgsubr
491 hmoveto
-47 callgsubr
hintmask 11011000
-4 504 rlineto
9 hlineto
endchar
                </CharString>
                <CharString name="N.sc">
                    -53 callgsubr
58 callsubr
hintmask 01011100
442 hmoveto
-56 callsubr
                </CharString>
                <CharString name="NUL">
                    -615 endchar
                </CharString>
                <CharString name="Nacute">
                    -4 callgsubr
240 816 -107 callgsubr
251 -816 rmoveto
-47 callgsubr
hintmask 11011000
-4 504 rlineto
9 hlineto
endchar
                </CharString>
                <CharString name="Nacute.sc">
                    -53 callgsubr
58 callsubr
hintmask 01011100
208 716 -107 callgsubr
234 -716 rmoveto
-56 callsubr
                </CharString>
                <CharString name="Ncaron">
                    -4 callgsubr
379 747 -97 callsubr
113 -747 rmoveto
-47 callgsubr
hintmask 11011000
-4 504 rlineto
9 hlineto
endchar
                </CharString>
                <CharString name="Ncaron.sc">
                    -52 callgsubr
                </CharString>
                <CharString name="Ncommaaccent">
                    127 21 -21 504 184 0 -20 hstemhm
104 119 82 141 73.5 44 callgsubr
hintmask 10111100
491 hmoveto
-47 callgsubr
hintmask 11011100
-4 504 rlineto
9 hlineto
60 -797 -101 callgsubr
                </CharString>
                <CharString name="Ncommaaccent.sc">
                    -53 callgsubr
hstemhm
94 116 63 141 53 117 hintmask 01011110
101 callsubr
hintmask 10011110
-71 callgsubr
hintmask 01101110
-2 413 rlineto
7 hlineto
42 -706 -101 callgsubr
                </CharString>
                <CharString name="Ntilde">
                    127 21 -21 504 184 0 -20 97 74 callsubr
hstemhm
104 119 296.5 44 callgsubr
hintmask 10110110
443 765 -77 callgsubr
hhcurveto
hintmask 10101110
-33 -54 85 -65 hhcurveto
-78 callsubr
hintmask 10110110
27 callsubr
hintmask 10101110
48 -765 rmoveto
-47 callgsubr
hintmask 11001110
-4 504 rlineto
9 hlineto
endchar
                </CharString>
                <CharString name="Ntilde.sc">
                    -67 callgsubr
                </CharString>
                <CharString name="O">
                    -17 callsubr
343 -16 -101 callsubr
                </CharString>
                <CharString name="O.sc">
                    -63 callsubr
313 -13 -107 callsubr
                </CharString>
                <CharString name="OE">
                    338 0 117 178 101 173 119 -116 116 hstemhm
65 130 278 130 hintmask 11011100
195 356 rmoveto
hintmask 11101100
168 73 44 205 1 vhcurveto
-451 vlineto
hintmask 11011100
-197 2 -81 69 167 vvcurveto
691 -239 rmoveto
-283 178 238 101 -238 176 277 116 -342 hlineto
-308 -165 -129 -225 -241 147 -93 318 hvcurveto
344 hlineto
endchar
                </CharString>
                <CharString name="OE.sc">
                    -45 callsubr
                </CharString>
                <CharString name="Oacute">
                    -17 callsubr
242 832 -107 callgsubr
101 -848 -101 callsubr
                </CharString>
                <CharString name="Oacute.sc">
                    -63 callsubr
210 730 -107 callgsubr
103 -743 -107 callsubr
                </CharString>
                <CharString name="Obreve">
                    114 -16 113 495 112 71 107 hstem
6 callsubr
vstem
375 775 -106 callsubr
-32 -791 -101 callsubr
                </CharString>
                <CharString name="Obreve.sc">
                    51 -13 103 408 104 71 107 69 callgsubr
290 130 vstem
343 673 -106 callsubr
-30 -686 -107 callsubr
                </CharString>
                <CharString name="Ocircumflex">
                    -17 callsubr
492 773 -99 callsubr
-25 -894 -101 callsubr
                </CharString>
                <CharString name="Ocircumflex.sc">
                    -63 callsubr
460 671 -99 callsubr
-23 -789 -107 callsubr
                </CharString>
                <CharString name="Odieresis">
                    114 -16 113 495 112 -13 callgsubr
65 131 0.5 -19 callsubr
-17.5 131 hintmask 11101100
549 787 -54 callgsubr
148 -803 -101 callsubr
                </CharString>
                <CharString name="Odieresis.sc">
                    -65 callgsubr
                </CharString>
                <CharString name="Ograve">
                    -17 callsubr
491 829 -103 callsubr
-109 -785 -101 callsubr
                </CharString>
                <CharString name="Ograve.sc">
                    -63 callsubr
459 727 -103 callsubr
-107 -680 -107 callsubr
                </CharString>
                <CharString name="Ohungarumlaut">
                    -17 callsubr
202 825 -88 callgsubr
-72 -840 -101 callsubr
                </CharString>
                <CharString name="Ohungarumlaut.sc">
                    -63 callsubr
170 723 -88 callgsubr
-70 -735 -107 callsubr
                </CharString>
                <CharString name="Omacron">
                    114 -16 113 495 112 101 115 hstem
6 callsubr
vstem
550 920 -66 callsubr
-207 -821 -101 callsubr
                </CharString>
                <CharString name="Omacron.sc">
                    51 -13 103 408 104 101 115 69 callgsubr
290 130 vstem
518 818 -66 callsubr
-205 -716 -107 callsubr
                </CharString>
                <CharString name="Omega">
                    94 0 117 466 122 hstem
93 118 287 119 vstem
309 7 rmoveto
-65 163 -33 140 91 vvcurveto
122 59 60 85 84 59 -60 -123 -90 -32 -140 -66 -163 vhcurveto
3 -7 rlineto
245 117 -116 hlineto
51 108 34 109 93 vvcurveto
176 -109 102 -142 -142 -131 -102 -183 -87 28 -108 52 -108 vhcurveto
-111 -117 244 hlineto
endchar
                </CharString>
                <CharString name="Oslash">
                    36 callgsubr
196 357 -64 callsubr
                </CharString>
                <CharString name="Oslash.sc">
                    -15 callsubr
188 305 -96 callgsubr
                </CharString>
                <CharString name="Oslashacute">
                    36 callgsubr
235 832 -107 callgsubr
-39 -475 -64 callsubr
                </CharString>
                <CharString name="Oslashacute.sc">
                    -15 callsubr
204 730 -107 callgsubr
-16 -425 -96 callgsubr
                </CharString>
                <CharString name="Otilde">
                    114 -16 113 495 112 77 74 callsubr
hstemhm
6 callsubr
hintmask 11101100
445 781 -77 callgsubr
hhcurveto
hintmask 11011100
-33 -54 85 -65 hhcurveto
45 callgsubr
-102 -797 -101 callsubr
                </CharString>
                <CharString name="Otilde.sc">
                    51 -13 103 408 104 77 74 callsubr
hstemhm
58 130 290 130 hintmask 11101100
413 679 -77 callgsubr
-33 -54 85 -65 hhcurveto
hintmask 11011100
45 callgsubr
-100 -692 -107 callsubr
                </CharString>
                <CharString name="P">
                    16 21 -21 583 116 -11 43 callsubr
219 131 hintmask 11011000
234 hmoveto
201 vlineto
201 22 149 79 172 vvcurveto
hintmask 10111000
176 -167 79 -313 -41 vhcurveto
-688 vlineto
hintmask 11011000
349 444 rmoveto
-111 -68 -31 -151 18 vhcurveto
263 vlineto
148 12 71 -47 -104 vvcurveto
endchar
                </CharString>
                <CharString name="P.sc">
                    -30 callgsubr
                </CharString>
                <CharString name="Q">
                    114 6 -21 33 -21 27 -21 589 112 hstemhm
6 callsubr
hintmask 00111100
574 -171 rmoveto
hintmask 01011100
45 121 -171 47 1 6 rlineto
125 46 90 130 190 vvcurveto
207 -116 128 -162 -178 -143 -143 -241 vhcurveto
hintmask 10011100
-196 103 -125 147 -14 vhcurveto
-28 -70 rlineto
68 677 rmoveto
106 72 -94 -167 -155 -54 -79 -104 -107 -72 93 167 155 54 80 105 hvcurveto
endchar
                </CharString>
                <CharString name="Q.sc">
                    -60 callgsubr
                </CharString>
                <CharString name="R">
                    43 10 -21 32 -21 232.5 100 250.5 115 -10 43 callsubr
210 131 hintmask 10101110
494 -11 -19 callgsubr
hintmask 01110110
-48 callgsubr
endchar
                </CharString>
                <CharString name="R.sc">
                    -4 12 -21 30 -21 195 77 callsubr
hintmask 10101110
443 -9 -74 callgsubr
hintmask 01110110
-82 callsubr
endchar
                </CharString>
                <CharString name="R_p">
                    447 98 callsubr
188 -21 26 -21 32 -21 32 -21 221.5 99.5 133 106 -20 20 -13 -20 45 88 callgsubr
72 126 162 125 hintmask 0101001010011111
410 -11 rmoveto
hintmask 0100011010011111
45 callsubr
hintmask 1000101010101111
26 callgsubr
359 -525 rmoveto
hintmask 0110001010011111
126 11 rlineto
167 vlineto
168 5 119 117 203 vvcurveto
159 -71 103 -105 -52 -42 -25 -32 -31 vhcurveto
hintmask 0100011001011111
-7 44 rlineto
hintmask 0100011010011111
-115 -7 rlineto
8 -106 2 -133 -312 vvcurveto
187 99 rmoveto
-20 -19 4 6 -22 hvcurveto
hintmask 0100011100011111
-1 162 -1 92 -2 77 rrcurveto
16 22 21 9 22 hhcurveto
61 40 -63 -133 hvcurveto
hintmask 0100011010011111
-115 -35 -55 -66 vhcurveto
endchar
                </CharString>
                <CharString name="Racute">
                    -4 callsubr
210 131 hintmask 00111011
181 826 -107 callgsubr
hintmask 10010111
313 -837 -19 callgsubr
hintmask 01011011
-48 callgsubr
endchar
                </CharString>
                <CharString name="Racute.sc">
                    -18 callsubr
hstemhm
94 128 178 130 hintmask 00111010
154 724 -107 callgsubr
hintmask 10010111
289 -733 -74 callgsubr
hintmask 01011011
-82 callsubr
endchar
                </CharString>
                <CharString name="Rcaron">
                    -4 callsubr
210 131 hintmask 00111011
320 757 -97 callsubr
hintmask 10010111
175 -768 -19 callgsubr
hintmask 01011011
-48 callgsubr
endchar
                </CharString>
                <CharString name="Rcaron.sc">
                    -18 callsubr
217 47 callsubr
hintmask 0011101100000000
294 655 -97 callsubr
hintmask 1001011110000000
150 -664 -74 callgsubr
hintmask 0101101110000000
-82 callsubr
endchar
                </CharString>
                <CharString name="Rcommaaccent">
                    -4 callsubr
51 141 18 131 hintmask 1001011110000000
494 -11 -19 callgsubr
hintmask 0101101110000000
-48 callgsubr
hintmask 0011101100000000
36 -635 -101 callgsubr
                </CharString>
                <CharString name="Rcommaaccent.sc">
                    -18 callsubr
hstemhm
94 128 31 141 6 130 hintmask 1001011010000000
443 -9 -74 callgsubr
hintmask 0101101010000000
-82 callsubr
hintmask 0011101100000000
16 -586 -101 callgsubr
                </CharString>
                <CharString name="S">
                    -51 -11 -3 callsubr
170 135 hintmask 10111000
75 113 -62 callsubr
                </CharString>
                <CharString name="S.sc">
                    -90 -9 -51 callsubr
100 callgsubr
hintmask 10111000
71 103 -75 callgsubr
                </CharString>
                <CharString name="Sacute">
                    -51 -11 -3 callsubr
170 135 hintmask 10111000
160 829 -107 callgsubr
-85 -716 -62 callsubr
                </CharString>
                <CharString name="Sacute.sc">
                    -90 -9 -51 callsubr
100 callgsubr
hintmask 10111000
140 726 -107 callgsubr
-69 -623 -75 callgsubr
                </CharString>
                <CharString name="Scaron">
                    -51 -11 -3 callsubr
170 135 hintmask 10111000
299 760 -97 callsubr
-223 -647 -62 callsubr
                </CharString>
                <CharString name="Scaron.sc">
                    86 callsubr
190 -20 hstemhm
66 134 100 callgsubr
hintmask 10111100
279 657 -97 callsubr
-207 -554 -3 callgsubr
hintmask 11011100
-69 callsubr
hintmask 10111100
-81 callgsubr
endchar
                </CharString>
                <CharString name="Scedilla">
                    -51 -268 103 154 -3 callsubr
92 96 -18 135 hintmask 11011010
63 callgsubr
hintmask 11101010
163 -305 55 91 vvcurveto
51 47 20 214 -14 vhcurveto
hintmask 11011010
-9 125 rlineto
-286 15 -100 -112 -112 -164 304 -42 -101 vvcurveto
-56 -75 -28 -222 14 vhcurveto
hintmask 11011100
127 -212 -89 callgsubr
                </CharString>
                <CharString name="Scedilla.sc">
                    -90 -265 103 153 -51 callsubr
63 96 -23 133 hintmask 11011010
78 callgsubr
hintmask 11101010
-69 callsubr
hintmask 11011010
-81 callgsubr
hintmask 11011100
100 -199 -89 callgsubr
                </CharString>
                <CharString name="Scommaaccent">
                    -51 -11 -3 callsubr
1 141 28 135 hintmask 10110100
63 callgsubr
hintmask 11010100
163 -305 55 91 vvcurveto
51 47 20 214 -14 vhcurveto
hintmask 10110100
-9 125 rlineto
-286 15 -100 -112 -112 -164 304 -42 -101 vvcurveto
-56 -75 -28 -222 14 vhcurveto
hintmask 10101100
113 -418 -101 callgsubr
                </CharString>
                <CharString name="Scommaaccent.sc">
                    -58 callsubr
                </CharString>
                <CharString name="T">
                    81 callgsubr
366 572 16 callsubr
endchar
                </CharString>
                <CharString name="T.sc">
                    -68 21 -21 482 106 hstem
211 129 vstem
340 482 52 callsubr
                </CharString>
                <CharString name="Tcaron">
                    81 callgsubr
304 747 -97 callsubr
63 -175 16 callsubr
endchar
                </CharString>
                <CharString name="Tcaron.sc">
                    -22 callsubr
                </CharString>
                <CharString name="Tcommaaccent">
                    -17 21 -21 572 116 hstemhm
230 141 -135 130 hintmask 11010000
366 572 16 callsubr
-151 -293 rmoveto
hintmask 11100000
70 -19 48 50 37 104 1 83 rlinecurve
hintmask 11010000
-154 -8 18 -60 0 -87 -20 -63 rlinecurve
endchar
                </CharString>
                <CharString name="Tcommaaccent.sc">
                    -20 callgsubr
                </CharString>
                <CharString name="Thorn">
                    16 0 225 244 115 104 -20 hstem
104 130 219 131 vstem
234 hmoveto
109 vlineto
201 20 149 77 165 vvcurveto
143 -120 75 -230 -5 vhcurveto
104 -130 -688 vlineto
349 341 rmoveto
-100 -68 -30 -151 18 vhcurveto
240 vlineto
148 10 71 -42 -96 vvcurveto
endchar
                </CharString>
                <CharString name="Thorn.sc">
                    -21 callgsubr
                </CharString>
                <CharString name="U">
                    -11 callsubr
353 -16 -93 callgsubr
                </CharString>
                <CharString name="U.sc">
                    -25 callsubr
326 -13 -105 callsubr
                </CharString>
                <CharString name="Uacute">
                    -11 callsubr
232 816 -107 callgsubr
121 -832 -93 callgsubr
                </CharString>
                <CharString name="Uacute.sc">
                    -25 callsubr
203 716 -107 callgsubr
123 -729 -105 callsubr
                </CharString>
                <CharString name="Ubreve">
                    107 -16 120 584 -20 91 107 hstem
93 129 278 130 vstem
365 759 -106 callsubr
-12 -775 -93 callgsubr
                </CharString>
                <CharString name="Ubreve.sc">
                    -40 callgsubr
91 107 -46 callgsubr
337 659 -106 callsubr
-11 -672 -105 callsubr
                </CharString>
                <CharString name="Ucircumflex">
                    -11 callsubr
482 757 -99 callsubr
-5 -878 -93 callgsubr
                </CharString>
                <CharString name="Ucircumflex.sc">
                    -25 callsubr
453 657 -99 callsubr
-3 -775 -105 callsubr
                </CharString>
                <CharString name="Udieresis">
                    107 -16 120 584 -20 103 150 hstemhm
93 129 -35.5 -19 callsubr
-40.5 130 hintmask 11101100
539 771 -54 callgsubr
168 -787 -93 callgsubr
                </CharString>
                <CharString name="Udieresis.sc">
                    -40 callgsubr
103 150 hstemhm
86 129 -57.5 -19 callsubr
-61.5 129 hintmask 11101100
510 671 -54 callgsubr
170 -684 -105 callsubr
                </CharString>
                <CharString name="Ugrave">
                    -11 callsubr
481 813 -103 callsubr
-89 -769 -93 callgsubr
                </CharString>
                <CharString name="Ugrave.sc">
                    -40 callgsubr
145 103 callsubr
452 713 -103 callsubr
-87 -666 -105 callsubr
                </CharString>
                <CharString name="Uhungarumlaut">
                    -11 callsubr
192 809 -88 callgsubr
-52 -824 -93 callgsubr
                </CharString>
                <CharString name="Uhungarumlaut.sc">
                    -40 callgsubr
140 -20 21 -20 hstemhm
86 129 235 129 hintmask 11011100
164 709 rmoveto
64 -44 56 56 69 87 38 59 rlinecurve
-127 60 -21 -61 -43 -97 -36 -60 rlinecurve
hintmask 11101100
213 -1 rmoveto
65 -45 57 57 66 84 36 63 rlinecurve
-131 48 -21 -63 -37 -84 -35 -60 rlinecurve
-51 -721 -105 callsubr
                </CharString>
                <CharString name="Umacron">
                    107 -16 120 584 -20 121 115 hstem
93 129 278 130 vstem
540 904 -66 callsubr
-187 -805 -93 callgsubr
                </CharString>
                <CharString name="Umacron.sc">
                    -40 callgsubr
121 115 -46 callgsubr
511 804 -66 callsubr
-185 -702 -105 callsubr
                </CharString>
                <CharString name="Uogonek">
                    107 8 -21 701 -20 hstem
93 129 32 112 134 130 vstem
477 -248 rmoveto
11 104 rlineto
-81 12 -41 13 34 vvcurveto
22 16 26 68 35 vhcurveto
131 66 49 80 149 vvcurveto
395 -130 -413 vlineto
-126 -40 -45 -92 -90 -56 60 145 vhcurveto
379 -129 -406 vlineto
-172 78 -104 137 -19 vhcurveto
-39 -35 -15 -34 -33 vvcurveto
-65 53 -53 170 -15 vhcurveto
endchar
                </CharString>
                <CharString name="Uogonek.sc">
                    -50 callgsubr
                </CharString>
                <CharString name="Uring">
                    107 -16 120 584 -20 79 228 hstem
93 129 278 130 vstem
360 975 -83 callsubr
-7 -991 -93 callgsubr
                </CharString>
                <CharString name="Uring.sc">
                    -40 callgsubr
79 228 -46 callgsubr
331 875 -83 callsubr
-5 -888 -105 callsubr
                </CharString>
                <CharString name="V">
                    29 0 119 569 -20 26 -20 hstemhm
34 576 hintmask 10110000
417 hmoveto
hintmask 11010000
73 229 64 231 56 228 rrcurveto
-128 hlineto
-44 -188 -50 -191 -56 -190 rrcurveto
-13 hlineto
hintmask 10110000
-55 191 -52 194 -44 190 -134 -11 rcurveline
55 -229 66 -225 73 -229 rrcurveto
endchar
                </CharString>
                <CharString name="V.sc">
                    -28 callsubr
                </CharString>
                <CharString name="W">
                    21 callgsubr
489 hmoveto
-90 callsubr
                </CharString>
                <CharString name="W.sc">
                    -27 callsubr
hstemhm
70 581 hintmask 01110000
449 hmoveto
-67 callsubr
hintmask 10110000
-99 callgsubr
                </CharString>
                <CharString name="Wacute">
                    21 callgsubr
268 816 -107 callgsubr
221 -816 rmoveto
-90 callsubr
                </CharString>
                <CharString name="Wacute.sc">
                    -27 callsubr
hstemhm
70 581 hintmask 01110000
240 716 -107 callgsubr
209 -716 1 callgsubr
hintmask 10110000
-99 callgsubr
                </CharString>
                <CharString name="Wcircumflex">
                    21 callgsubr
517 757 -99 callsubr
96 -862 rmoveto
-90 callsubr
                </CharString>
                <CharString name="Wcircumflex.sc">
                    -27 callsubr
hstemhm
70 581 hintmask 01110000
490 657 -99 callsubr
83 -762 1 callgsubr
hintmask 10110000
-99 callgsubr
                </CharString>
                <CharString name="Wdieresis">
                    161 0 169 519 -20 103 150 hstem
221.5 -19 callsubr
vstem
574 -6 callgsubr
269 -771 rmoveto
-90 callsubr
                </CharString>
                <CharString name="Wdieresis.sc">
                    -27 callsubr
103 150 hstemhm
193.5 -19 callsubr
hintmask 01111100
546 -38 callgsubr
-90 hmoveto
-105 callgsubr
257 -671 1 callgsubr
hintmask 10111100
-99 callgsubr
                </CharString>
                <CharString name="Wgrave">
                    21 callgsubr
516 813 -103 callsubr
12 -753 rmoveto
-90 callsubr
                </CharString>
                <CharString name="Wgrave.sc">
                    -27 callsubr
145 -20 hstemhm
70 581 hintmask 01111000
489 713 -103 callsubr
-1 -653 1 callgsubr
hintmask 10111000
-99 callgsubr
                </CharString>
                <CharString name="X">
                    32 18 -21 24 -21 24 -21 685 -20 24 -20 hstemhm
30 591 hintmask 10001100
476 -3 rmoveto
hintmask 00110100
144 6 -216 342 217 343 rlineto
-143 hlineto
-146 -254 rlineto
hintmask 01001100
-157 258 -145 -7 218 -345 -215 -340 rlineto
142 hlineto
145 251 rlineto
endchar
                </CharString>
                <CharString name="X.sc">
                    -25 callgsubr
                </CharString>
                <CharString name="Y">
                    8 callsubr
381 hmoveto
-61 callsubr
                </CharString>
                <CharString name="Y.sc">
                    -47 callsubr
362 hmoveto
-87 callgsubr
                </CharString>
                <CharString name="Yacute">
                    8 callsubr
190 820 -107 callgsubr
191 -820 rmoveto
-61 callsubr
                </CharString>
                <CharString name="Yacute.sc">
                    -47 callsubr
167 720 -107 callgsubr
195 -720 rmoveto
-87 callgsubr
                </CharString>
                <CharString name="Ycircumflex">
                    8 callsubr
440 761 -99 callsubr
65 -866 rmoveto
-61 callsubr
                </CharString>
                <CharString name="Ycircumflex.sc">
                    -47 callsubr
416 661 -99 callsubr
70 -766 rmoveto
-87 callgsubr
                </CharString>
                <CharString name="Ydieresis">
                    15 21 -21 688 -20 24 -20 103 150 hstemhm
144.5 132 -25.5 130 -14.5 132 hintmask 10111010
497 775 rmoveto
-105 callgsubr
-90 hmoveto
-105 callgsubr
hintmask 11010100
238 -775 rmoveto
238 vlineto
230 450 rlineto
-133 hlineto
-152 -327 rlineto
-6 hlineto
hintmask 10110100
-159 331 -142 -7 232 -449 rlineto
-236 vlineto
endchar
                </CharString>
                <CharString name="Ydieresis.sc">
                    -57 callgsubr
                </CharString>
                <CharString name="Ygrave">
                    8 callsubr
439 817 -103 callsubr
-19 -757 rmoveto
-61 callsubr
                </CharString>
                <CharString name="Ygrave.sc">
                    -47 callsubr
415 717 -103 callsubr
-14 -657 rmoveto
-87 callgsubr
                </CharString>
                <CharString name="Z">
                    15 callgsubr
hstem
73 470 vstem
532 hmoveto
-43 callgsubr
                </CharString>
                <CharString name="Z.sc">
                    52 callgsubr
486 hmoveto
-80 callgsubr
                </CharString>
                <CharString name="Zacute">
                    15 callgsubr
hstem
73 470 vstem
186 816 -107 callgsubr
346 -816 rmoveto
-43 callgsubr
                </CharString>
                <CharString name="Zacute.sc">
                    52 callgsubr
146 716 -107 callgsubr
340 -716 rmoveto
-80 callgsubr
                </CharString>
                <CharString name="Zcaron">
                    15 callgsubr
hstem
73 470 vstem
325 747 -97 callsubr
208 -747 rmoveto
-43 callgsubr
                </CharString>
                <CharString name="Zcaron.sc">
                    -44 callsubr
                </CharString>
                <CharString name="Zdotaccent">
                    15 callgsubr
83 150 hstem
256.5 132 vstem
387 15 callsubr
277 -771 rmoveto
-43 callgsubr
                </CharString>
                <CharString name="Zdotaccent.sc">
                    -39 callsubr
83 150 hstem
216.5 132 vstem
347 -38 callgsubr
271 -671 rmoveto
-80 callgsubr
                </CharString>
                <CharString name="a">
                    -60 callsubr
6 callgsubr
hintmask 10011110
271 89 -82 callgsubr
hintmask 01011110
133 -93 rmoveto
hintmask 00111110
-91 callgsubr
hintmask 10011110
-37 callsubr
                </CharString>
                <CharString name="a.sc">
                    -86 callgsubr
hstemhm
33 550 hintmask 10011100
453 -4 -103 callgsubr
                </CharString>
                <CharString name="aacute">
                    -60 callsubr
128 -20 115 71 callsubr
hintmask 0011111110000000
159 695 -107 callgsubr
hintmask 1001111110000000
112 -606 -82 callgsubr
hintmask 0101111110000000
133 -93 rmoveto
hintmask 0011111110000000
-91 callgsubr
hintmask 1001111110000000
-37 callsubr
                </CharString>
                <CharString name="aacute.sc">
                    -86 callgsubr
hstemhm
33 550 hintmask 00111100
174 716 -107 callgsubr
hintmask 10011100
279 -720 -103 callgsubr
                </CharString>
                <CharString name="abreve">
                    -60 callsubr
71 107 6 callgsubr
hintmask 00111111
292 638 -106 callsubr
hintmask 10011111
-21 -549 -87 callsubr
                </CharString>
                <CharString name="abreve.sc">
                    -86 callgsubr
71 107 hstemhm
33 550 hintmask 00111110
308 659 -106 callsubr
hintmask 10011110
145 -663 -104 callsubr
                </CharString>
                <CharString name="acircumflex">
                    -60 callsubr
132 71 callsubr
hintmask 00111111
409 636 -99 callsubr
hintmask 10011111
-14 -652 -87 callsubr
                </CharString>
                <CharString name="acircumflex.sc">
                    -86 callgsubr
hstemhm
33 550 hintmask 00111100
424 657 -99 callsubr
hintmask 10011100
153 -766 -103 callgsubr
                </CharString>
                <CharString name="acute">
                    -48 683 105 callsubr
hstem
140 311 vstem
140 683 -107 callgsubr
endchar
                </CharString>
                <CharString name="acute.cap">
                    -48 683 105 callsubr
hstem
140 311 vstem
140 683 -107 callgsubr
endchar
                </CharString>
                <CharString name="adieresis">
                    -60 callsubr
-13 callgsubr
67 124 -78.5 -19 callsubr
-83.5 124 hintmask 0011110110000000
465 650 rmoveto
-105 callgsubr
-90 hmoveto
-105 callgsubr
hintmask 1001111001000000
160 -561 -82 callgsubr
hintmask 0101110101000000
133 -93 rmoveto
hintmask 0011111001000000
-91 callgsubr
hintmask 1001111010000000
-37 callsubr
                </CharString>
                <CharString name="adieresis.sc">
                    -72 callsubr
                </CharString>
                <CharString name="ae">
                    37 callgsubr
87 callsubr
hintmask 01110111
814 -14 62 callgsubr
hintmask 01101111
70 callgsubr
hintmask 01110111
2 callsubr
hintmask 10101111
-7 callsubr
                </CharString>
                <CharString name="ae.sc">
                    -6 callsubr
hintmask 11101100
395 484 -85 callsubr
                </CharString>
                <CharString name="aeacute">
                    37 callgsubr
90 callsubr
87 callsubr
hintmask 0111011111000000
326 699 -107 callgsubr
488 -713 62 callgsubr
hintmask 0110111111000000
70 callgsubr
hintmask 0111011111000000
2 callsubr
hintmask 1010111111000000
-7 callsubr
                </CharString>
                <CharString name="aeacute.sc">
                    -6 callsubr
hintmask 10110100
374 716 -107 callgsubr
hintmask 11101100
21 -232 -85 callsubr
                </CharString>
                <CharString name="agrave">
                    -60 callsubr
125 -20 110 71 callsubr
hintmask 0011111110000000
408 692 -103 callsubr
hintmask 1001111110000000
-98 -543 -82 callgsubr
hintmask 0101111110000000
133 -93 rmoveto
hintmask 0011111110000000
-91 callgsubr
hintmask 1001111110000000
-37 callsubr
                </CharString>
                <CharString name="agrave.sc">
                    -86 callgsubr
125 -20 hstemhm
33 550 hintmask 00111110
423 713 -103 callsubr
hintmask 10011110
69 -657 -104 callsubr
                </CharString>
                <CharString name="amacron">
                    -60 callsubr
101 115 6 callgsubr
hintmask 00111111
466 783 -66 callsubr
hintmask 10011111
-195 -579 -87 callsubr
                </CharString>
                <CharString name="amacron.sc">
                    -86 callgsubr
101 115 hstemhm
33 550 hintmask 00111110
482 804 -66 callsubr
hintmask 10011110
-29 -693 -104 callsubr
                </CharString>
                <CharString name="ampersand">
                    122 -16 111 484 125 hstemhm
50 127 -37 127 hintmask 11100000
277 95 rmoveto
-62 -38 37 48 44 33 40 61 36 hvcurveto
38 -37 47 -44 55 -52 rrcurveto
-50 -46 -41 -22 -47 hhcurveto
318 -109 rmoveto
103 94 -49 46 -45 41 -40 36 rlinecurve
40 67 37 80 32 91 -121 15 rcurveline
-14 -55 -25 -69 -27 -58 rrcurveto
hintmask 11010000
-157 142 -62 56 42 vvcurveto
51 48 21 214 -7 vhcurveto
-14 125 rlineto
-286 4 -89 -106 -100 vvcurveto
-45 24 -42 50 -56 vhcurveto
hintmask 11100000
-102 -56 -62 -61 -92 vvcurveto
-96 73 -70 118 80 85 32 80 79 vhcurveto
34 -34 37 -36 39 -40 rrcurveto
endchar
                </CharString>
                <CharString name="ampersand.sc">
                    57 -13 102 398 115 hstemhm
45 124 -41 126 hintmask 11100000
254 89 rmoveto
-53 -32 29 39 35 28 33 52 29 hvcurveto
33 -30 39 -36 46 -41 rrcurveto
-40 -39 -35 -18 -39 hhcurveto
280 -101 rmoveto
101 81 -44 40 -40 35 -35 31 rlinecurve
36 57 34 67 28 76 -116 14 rcurveline
-13 -45 -21 -56 -23 -48 rrcurveto
hintmask 11010000
-132 116 -55 46 33 vvcurveto
41 41 17 185 -6 vhcurveto
-12 115 rlineto
-261 3 -79 -91 -84 vvcurveto
-38 22 -36 43 -46 vhcurveto
hintmask 11100000
-93 -49 -55 -54 -78 vvcurveto
-82 65 -60 109 72 76 26 67 72 vhcurveto
29 -28 32 -31 34 -33 rrcurveto
endchar
                </CharString>
                <CharString name="aogonek">
                    -27 -14 106 -68 -21 229 95 76 callgsubr
hstemhm
67 124 84 112 -4 124 hintmask 01111100
498 -245 rmoveto
11 104 rlineto
-14 callsubr
hintmask 10111010
-6 76 -5 90 105 vvcurveto
217 -81 76 -319 vhcurveto
-13 -112 217 -6 61 -23 9 -99 rlinecurve
-221 6 -93 -97 -106 vvcurveto
-90 58 -54 80 79 60 38 52 47 vhcurveto
9 -56 rlineto
hintmask 01111100
-92 -49 -33 -49 -46 vvcurveto
-58 53 -49 170 -14 vhcurveto
hintmask 10111010
-238 337 rmoveto
-43 -26 28 41 51 24 32 168 -15 hvcurveto
1 -27 1 -26 1 -24 rrcurveto
-39 -44 -45 -21 -37 hhcurveto
endchar
                </CharString>
                <CharString name="aogonek.sc">
                    -65 callsubr
                </CharString>
                <CharString name="approxequal">
                    9 107 111 -8 111 30 111 -8 111 -6 -20 hstemhm
57 499 hintmask 01101100
402 351 rmoveto
19 callsubr
65 28 22 44 25 hhcurveto
hintmask 01101100
43 51 -103 93 hhcurveto
hintmask 10010100
-244 vmoveto
19 callsubr
64 28 22 45 25 hhcurveto
hintmask 10010100
43 51 -103 93 hhcurveto
endchar
                </CharString>
                <CharString name="aring">
                    -60 callsubr
59 228 6 callgsubr
hintmask 00111111
286 854 -83 callsubr
hintmask 10011111
-15 -765 -87 callsubr
                </CharString>
                <CharString name="aring.sc">
                    -86 callgsubr
59 228 hstemhm
33 550 hintmask 00111110
302 875 -83 callsubr
hintmask 10011110
151 -879 -104 callsubr
                </CharString>
                <CharString name="aringacute">
                    -60 callsubr
6 callgsubr
hintmask 00111110
159 972 -107 callgsubr
127 -118 -83 callsubr
hintmask 10011110
-15 -765 -82 callgsubr
hintmask 01011110
133 -93 rmoveto
hintmask 00111110
-91 callgsubr
hintmask 10011110
-37 callsubr
                </CharString>
                <CharString name="aringacute.sc">
                    -86 callgsubr
hstemhm
33 550 hintmask 00111100
174 969 -107 callgsubr
128 -94 -83 callsubr
hintmask 10011100
151 -879 -103 callgsubr
                </CharString>
                <CharString name="arrow.1_E">
                    85 279 107 hstem
50 623 vstem
302 33 rmoveto
371 302 -371 301 -73 -94 218 -157 -50 1 rlineto
-347 -107 347 hlineto
48 1 -216 -152 rlineto
endchar
                </CharString>
                <CharString name="arrow.1_N">
                    85 21 -21 700 -20 hstem
295 112 vstem
407 391 rmoveto
-3 74 147 -215 92 71 -290 379 -296 -379 92 -71 149 218 -3 -77 rlineto
-391 112 vlineto
endchar
                </CharString>
                <CharString name="arrow.1_S">
                    85 9 -21 700 -20 hstem
293 113 vstem
347 -12 rmoveto
296 379 -92 71 -148 -217 3 76 rlineto
391 -113 -391 vlineto
3 -74 -147 215 -92 -71 rlineto
endchar
                </CharString>
                <CharString name="arrow.1_W">
                    85 279 107 hstem
27 623 vstem
471 121 rmoveto
-219 159 51 -1 rlineto
347 107 -347 hlineto
-48 -1 216 152 -73 95 -371 -302 371 -303 rlineto
endchar
                </CharString>
                <CharString name="asciicircum">
                    9 557 -20 hstem
56 522 vstem
473 151 rmoveto
105 71 -255 335 -24 -3 -243 -333 92 -70 160 223 rlineto
endchar
                </CharString>
                <CharString name="asciitilde">
                    9 206 128 9 128 hstemhm
29 566 vstemhm
423 206 rmoveto
77 50 83 142 45 hvcurveto
-91 34 rlineto
-78 -29 -24 -53 -23 hhcurveto
hintmask 01100000
-42 -90 137 -89 hhcurveto
-76 -59 -89 -136 -43 hvcurveto
91 -34 rlineto
78 27 24 53 25 hhcurveto
hintmask 11100000
43 95 -137 89 hhcurveto
endchar
                </CharString>
                <CharString name="asterisk">
                    19 555 -20 49 -20 30 -20 22 -20 hstemhm
57 525 hintmask 10011000
413 244 rmoveto
75 46 -60 154 rlineto
hintmask 10101000
154 65 -20 85 rlineto
hintmask 11001000
-165 -10 -15 167 -87 7 rlineto
hintmask 10011000
-44 -162 -160 40 -34 -81 141 -92 -87 -140 66 -58 129 105 rlineto
endchar
                </CharString>
                <CharString name="asterisk.alt">
                    33 588 -20 27 -20 hstemhm
56 542 hintmask 01100000
385 581 rmoveto
53 163 -118 24 -10 -173 rlineto
hintmask 10100000
-29 -7 rmoveto
-114 127 -80 -90 144 -96 rlineto
199 -43 rmoveto
168 38 -38 113 -156 -78 rlineto
-180 -56 rmoveto
-168 -38 38 -113 155 78 rlineto
123 -29 rmoveto
116 -127 80 90 -145 96 rlineto
-154 -52 rmoveto
-53 -163 119 -24 8 173 rlineto
endchar
                </CharString>
                <CharString name="at">
                    236 -174 112 125 109 477 112 hstem
90 118 118 122 177 120 vstem
682 -169 rmoveto
-1 110 rlineto
-380 -26 -93 116 258 vvcurveto
255 137 105 137 88 42 -38 -80 10 vhcurveto
-166 -16 -130 -70 -176 vvcurveto
-119 73 -87 97 43 48 18 40 48 vhcurveto
8 -52 113 14 rlineto
-5 76 -6 82 224 vvcurveto
190 -74 106 -169 -232 -180 -196 -296 -289 135 -191 457 42 vhcurveto
-129 341 rmoveto
-62 -43 40 84 82 46 48 131 -10 hvcurveto
-228 vlineto
-11 -26 -24 -5 -22 hhcurveto
endchar
                </CharString>
                <CharString name="atilde">
                    -60 callsubr
77 34 callgsubr
-49 71 callsubr
hintmask 0011110011100000
362 644 -77 callgsubr
hhcurveto
hintmask 0011101101100000
-33 -54 85 -65 hhcurveto
-78 callsubr
hintmask 0011110011100000
27 callsubr
hintmask 1001101011100000
-91 -555 -82 callgsubr
hintmask 0101101011100000
133 -93 rmoveto
hintmask 0011101011100000
-91 callgsubr
hintmask 1001101011100000
-37 callsubr
                </CharString>
                <CharString name="atilde.sc">
                    -77 callsubr
                </CharString>
                <CharString name="b">
                    12 -16 115 -67 -21 454 106 212 61 callgsubr
89 127 226 125 hintmask 10101110
245 -16 rmoveto
42 callgsubr
hintmask 01110110
-127 -11 rlineto
-772 vlineto
hintmask 10101110
-18 42 47 -9 67 hhcurveto
63 115 31 callgsubr
endchar
                </CharString>
                <CharString name="b.sc">
                    -61 callgsubr
                </CharString>
                <CharString name="backslash">
                    -82 799 -20 hstem
-16 565 vstem
91 799 rmoveto
-107 -34 452 -970 113 23 rlineto
endchar
                </CharString>
                <CharString name="backslash.tab">
                    9 799 -20 hstem
15 595 vstem
15 764 rmoveto
477 -966 118 20 -486 981 rlineto
endchar
                </CharString>
                <CharString name="bar">
                    -262 783 61 callgsubr
117 119 hintmask 10100000
117 783 rmoveto
-983 119 vlineto
hintmask 01100000
994 vlineto
endchar
                </CharString>
                <CharString name="bar.tab">
                    -169 783 61 callgsubr
165 118 hintmask 10100000
165 783 rmoveto
-983 118 vlineto
hintmask 01100000
994 vlineto
endchar
                </CharString>
                <CharString name="braceleft">
                    -128 -240 1050 51 callgsubr
-240 -51 callgsubr
                </CharString>
                <CharString name="braceleft.cap">
                    -128 -163 -21 51 callgsubr
-184 -51 callgsubr
                </CharString>
                <CharString name="braceright">
                    -128 703 -20 50 callsubr
-239 -49 callgsubr
                </CharString>
                <CharString name="braceright.cap">
                    -128 -162 -21 50 callsubr
-183 -49 callgsubr
                </CharString>
                <CharString name="bracketleft">
                    -127 -198 73 callsubr
95 124 vstem
95 -198 46 callgsubr
                </CharString>
                <CharString name="bracketleft.cap">
                    -127 -142 73 callsubr
95 124 vstem
95 -142 46 callgsubr
                </CharString>
                <CharString name="bracketright">
                    -127 -198 73 callsubr
269 124 vstem
68 -88 50 callgsubr
                </CharString>
                <CharString name="bracketright.cap">
                    -127 -142 73 callsubr
269 124 vstem
68 -32 50 callgsubr
                </CharString>
                <CharString name="breve">
                    -48 626 107 61 -20 hstem
78 412 vstem
281 626 -106 callsubr
endchar
                </CharString>
                <CharString name="breve.cap">
                    -48 626 107 61 -20 hstem
78 412 vstem
281 626 -106 callsubr
endchar
                </CharString>
                <CharString name="bullet">
                    -54 169 324 hstem
127 307 vstem
434 334 rmoveto
96 -64 63 -86 -86 -71 -65 -99 -96 64 -64 86 85 72 64 101 vhcurveto
endchar
                </CharString>
                <CharString name="bullet.alt">
                    -54 193 280 hstem
140 282 vstem
421 193 rmoveto
2 280 rlineto
-282 hlineto
-2 -280 rlineto
endchar
                </CharString>
                <CharString name="c">
                    60 callgsubr
hstem
64 123 vstem
64 266 -76 callgsubr
endchar
                </CharString>
                <CharString name="c.sc">
                    -68 -8 107 376 123 hstem
58 130 4 callgsubr
endchar
                </CharString>
                <CharString name="cacute">
                    60 callgsubr
90 callsubr
hstem
64 123 vstem
148 697 -107 callgsubr
-84 -431 -76 callgsubr
endchar
                </CharString>
                <CharString name="cacute.sc">
                    85 callgsubr
171 726 -107 callgsubr
309 -627 -94 callsubr
endchar
                </CharString>
                <CharString name="caron">
                    -48 786 -20 hstem
89 388 vstem
287 614 -97 callsubr
endchar
                </CharString>
                <CharString name="caron.alt">
                    -48 613 281 hstem
206 133 vstem
197 632 -70 callsubr
endchar
                </CharString>
                <CharString name="caron.alt.cap">
                    -48 613 281 hstem
206 133 vstem
197 632 -70 callsubr
endchar
                </CharString>
                <CharString name="caron.cap">
                    -48 786 -20 hstem
89 388 vstem
287 614 -97 callsubr
endchar
                </CharString>
                <CharString name="ccaron">
                    60 callgsubr
212 -20 39 -20 hstemhm
64 123 hintmask 11011000
287 628 -48 callsubr
rlineto
hintmask 11101000
96 callgsubr
hintmask 11011000
-45 callgsubr
-222 -362 -76 callgsubr
endchar
                </CharString>
                <CharString name="ccaron.sc">
                    25 callgsubr
189 -20 69 callgsubr
vstem
310 657 -97 callsubr
171 -558 -94 callsubr
endchar
                </CharString>
                <CharString name="ccedilla">
                    -86 -267 103 154 112 336 131 hstem
64 123 129 96 vstem
64 266 -76 callgsubr
160 -364 -89 callgsubr
                </CharString>
                <CharString name="ccedilla.sc">
                    -49 callsubr
                </CharString>
                <CharString name="cdotaccent">
                    60 callgsubr
83 150 hstem
64 123 31.5 132 vstem
349 652 rmoveto
-105 callgsubr
-153 -386 -76 callgsubr
endchar
                </CharString>
                <CharString name="cdotaccent.sc">
                    25 callgsubr
83 150 69 callgsubr
53.5 132 vstem
372 681 rmoveto
-105 callgsubr
240 -582 -94 callsubr
endchar
                </CharString>
                <CharString name="cedilla">
                    -48 -256 103 hstem
320 96 vstem
228 -87 -89 callgsubr
                </CharString>
                <CharString name="cedilla.cap">
                    -48 -256 103 hstem
320 96 vstem
228 -87 -89 callgsubr
                </CharString>
                <CharString name="cent">
                    9 33 112 271 127 145 -20 hstem
79 120 vstem
199 319 rmoveto
47 19 47 108 12 vhcurveto
-32 -238 rlineto
-64 28 -31 42 62 vvcurveto
312 -286 rmoveto
14 112 -52 3 -46 5 -39 7 rlinecurve
34 266 32 -1 37 -3 42 -6 rlinecurve
17 127 -37 2 -34 1 -32 -1 rlinecurve
21 143 rlineto
-121 hlineto
-17 -153 rlineto
-197 -34 -54 -107 -98 vvcurveto
-100 54 -81 136 -44 vhcurveto
-23 -164 rlineto
121 hlineto
13 138 39 -6 44 -4 48 -2 rlinecurve
endchar
                </CharString>
                <CharString name="check.1">
                    8 1 -21 hstem
64 525 vstem
589 722 rmoveto
-129 47 -61 -171 -57 -200 -44 -233 rlinecurve
-7 hlineto
-114 249 -113 -58 186 -376 105 4 64 267 80 252 90 219 rlinecurve
endchar
                </CharString>
                <CharString name="check.2">
                    8 0 -21 28 -21 607 -20 198 -20 hstemhm
84 491 hintmask 01111000
380 -14 rmoveto
126 33 -147 285 216 415 -127 52 -158 -360 -85 182 -121 -50 135 -259 rlineto
hintmask 10111000
-132 -271 87 -34 110 207 rlineto
endchar
                </CharString>
                <CharString name="circumflex">
                    3 callsubr
                </CharString>
                <CharString name="circumflex.cap">
                    3 callsubr
                </CharString>
                <CharString name="colon">
                    -223 0 160 235 160 hstemhm
110 76 callsubr
285 19 callgsubr
                </CharString>
                <CharString name="colon.alt">
                    -170 56 159 236 160 hstemhm
138 170 -165.5 169.5 hintmask 11010000
311 451 rmoveto
2 160 rlineto
-169 hlineto
-3 -160 rlineto
hintmask 11100000
166 -395 rmoveto
2 159 rlineto
-170 hlineto
-2 -159 rlineto
endchar
                </CharString>
                <CharString name="colon.tab">
                    -169 0 160 235 160 hstemhm
138 76 callsubr
313 19 callgsubr
                </CharString>
                <CharString name="colonmonetary">
                    9 547 120 hstemhm
60 111 85 102.5 -9 100.5 -35 101.5 hintmask 11101000
371 162 rmoveto
-22 5 -20 5 -18 6 31 347 rcurveline
19 5 21 3 23 3 rrcurveto
-234 -184 rmoveto
63 19 47 61 32 vhcurveto
-25 -275 rlineto
-38 30 -17 41 62 vvcurveto
hintmask 11010000
172 -434 rmoveto
102 hlineto
10 113 rlineto
hintmask 11101000
18 -3 19 -3 19 -2 31 112 rcurveline
-30 4 -28 4 -26 4 36 397 rcurveline
26 1 28 1 30 1 -9 120 rcurveline
-20 -1 -19 -1 -19 -1 11 105 rcurveline
-102 hlineto
-10 -117 -20 -3 -19 -4 -18 -4 rlinecurve
11 128 rlineto
-102 hlineto
-12 -161 rlineto
-145 -62 -45 -102 -111 vvcurveto
-123 49 -70 94 -45 vhcurveto
-18 -177 rlineto
hintmask 11010000
103 hlineto
13 142 17 -4 19 -4 19 -4 rlinecurve
endchar
                </CharString>
                <CharString name="comma">
                    -222 -169 -21 hstem
138 143 vstem
95 -23 callsubr
endchar
                </CharString>
                <CharString name="comma.tab">
                    -169 -169 -21 hstem
165 143 vstem
122 -23 callsubr
endchar
                </CharString>
                <CharString name="commaaccent">
                    -48 -312 237 hstem
220 141 vstem
205 -293 -101 callgsubr
                </CharString>
                <CharString name="commaaccent.cap">
                    -48 -312 237 hstem
220 141 vstem
205 -293 -101 callgsubr
                </CharString>
                <CharString name="commaaccent.rot">
                    -48 634 236 hstem
207 141 vstem
363 851 49 callsubr
endchar
                </CharString>
                <CharString name="copyright">
                    305 -34 86 98 95 191 107 93 87 hstem
78 96 114 107 351 96 vstem
842 349 rmoveto
229 -159 145 -209 -216 -180 -157 -226 -230 168 -144 220 205 171 156 227 vhcurveto
-668 -5 rmoveto
180 131 112 166 149 126 -115 -177 -180 -122 -112 -153 -162 -135 116 176 vhcurveto
416 -99 rmoveto
-142 -1 -53 25 87 vvcurveto
59 21 25 171 -4 vhcurveto
-12 107 rlineto
-213 -10 -74 -87 -101 vvcurveto
-117 77 -88 212 10 vhcurveto
endchar
                </CharString>
                <CharString name="d">
                    39 callgsubr
hintmask 10010111
321 90 -12 callsubr
hintmask 01010111
108 -93 rmoveto
hintmask 00110111
42 callsubr
228 vlineto
hintmask 10011011
-126 -12 rlineto
-200 7 callgsubr
                </CharString>
                <CharString name="d.sc">
                    -28 callgsubr
                </CharString>
                <CharString name="dagger">
                    -90 507 62 callsubr
105 -105 44 callgsubr
hintmask 01110000
303 155 rmoveto
hintmask 10110000
20 353 139 -2 7 109 rlineto
hintmask 10101000
102 callsubr
hintmask 01101000
102 callgsubr
hintmask 01110000
148 -3 rlineto
-386 vlineto
21 -11 rlineto
endchar
                </CharString>
                <CharString name="daggerdbl">
                    -90 285 109.5 -105 110 107.5 62 callsubr
44 callgsubr
-119 112 -111.5 100 hintmask 01011001
305 99 rmoveto
hintmask 10011001
8 187 143 -2 6 109 rlineto
hintmask 10101010
-144 3 5 112 139 -2 7 109 rlineto
hintmask 01101100
102 callsubr
hintmask 01011100
102 callgsubr
hintmask 01011010
148 -3 1 -112 -150 3 -5 -110 rlineto
hintmask 01011001
155 -3 rlineto
-220 vlineto
21 -11 rlineto
endchar
                </CharString>
                <CharString name="dcaron">
                    39 callgsubr
97 133 hintmask 1001011110000000
622 632 -70 callsubr
-301 -542 -12 callsubr
hintmask 0101011110000000
108 -93 rmoveto
hintmask 0011011110000000
42 callsubr
228 vlineto
hintmask 1001101110000000
-126 -12 rlineto
-200 7 callgsubr
                </CharString>
                <CharString name="dcaron.sc">
                    -55 callgsubr
                </CharString>
                <CharString name="dcroat">
                    12 -16 106 -72 -21 28 -21 452 115 55 90 55 -20 32 -20 hstemhm
60 125 223 126 hintmask 1001101110000000
321 90 -12 callsubr
hintmask 0101101110000000
108 -93 rmoveto
hintmask 0011101110000000
42 callsubr
71 68 90 -68 67 vlineto
hintmask 1001110110000000
-126 -12 rlineto
-55 -129 -90 129 -55 7 callgsubr
                </CharString>
                <CharString name="dcroat.sc">
                    -90 callgsubr
                </CharString>
                <CharString name="degree">
                    9 333 102 222 102 hstem
105 107 200 108 vstem
520 551 rmoveto
128 -87 80 -113 -114 -101 -85 -132 -129 86 -80 113 115 101 85 133 vhcurveto
-108 -4 rmoveto
-69 -42 -43 -57 -58 -43 48 63 68 43 43 56 59 42 -48 -62 vhcurveto
endchar
                </CharString>
                <CharString name="dieresis">
                    -48 638 150 hstem
108.5 -19 callsubr
vstem
461 38 callgsubr
-90 hmoveto
-105 callgsubr
endchar
                </CharString>
                <CharString name="dieresis.cap">
                    -48 638 150 hstem
108.5 -19 callsubr
vstem
461 38 callgsubr
-90 hmoveto
-105 callgsubr
endchar
                </CharString>
                <CharString name="divide">
                    9 79 132 64 115 64 132 hstem
246 134 cntrmask 11100000
379 454 85 callsubr
307 -64 rmoveto
-478 -115 478 hlineto
-173 -196 85 callsubr
endchar
                </CharString>
                <CharString name="dollar">
                    8 42 106 391 108 hstem
75 125 221 127 vstem
200 505 rmoveto
28 36 11 76 -5 vhcurveto
-24 -112 rlineto
-51 29 -37 25 24 vvcurveto
221 -320 rmoveto
-28 -33 -12 -71 3 vhcurveto
24 112 rlineto
46 -27 34 -24 -24 vvcurveto
-144 -267 rmoveto
24 124 rlineto
182 14 65 66 77 vvcurveto
72 -87 58 -87 50 vhcurveto
32 148 34 -5 39 -8 44 -9 rlinecurve
18 130 -34 5 -32 3 -30 3 rlinecurve
28 123 rlineto
-121 hlineto
-23 -122 rlineto
-185 -10 -69 -76 -77 vvcurveto
-72 92 -57 89 -49 vhcurveto
-34 -149 -39 5 -46 7 -52 9 rlinecurve
-27 -129 46 -5 42 -3 39 -1 rlinecurve
-29 -122 rlineto
endchar
                </CharString>
                <CharString name="dotaccent">
                    22 callsubr
                </CharString>
                <CharString name="dotaccent.cap">
                    22 callsubr
                </CharString>
                <CharString name="dotlessi">
                    -82 27 callgsubr
74 callgsubr
503 hmoveto
12 101 rlineto
-72 callgsubr
                </CharString>
                <CharString name="dotlessi.sc">
                    -26 callgsubr
13 callgsubr
327 490 -96 callsubr
                </CharString>
                <CharString name="e">
                    -68 callsubr
11 callgsubr
492 -14 -100 callgsubr
                </CharString>
                <CharString name="e.sc">
                    9 callgsubr
474 108 rmoveto
-94 callgsubr
                </CharString>
                <CharString name="eacute">
                    -68 callsubr
90 callsubr
11 callgsubr
169 699 -107 callgsubr
323 -713 -100 callgsubr
                </CharString>
                <CharString name="eacute.sc">
                    9 callgsubr
146 716 -107 callgsubr
328 -608 rmoveto
-94 callgsubr
                </CharString>
                <CharString name="ebreve">
                    -68 callsubr
71 107 11 callgsubr
302 642 -106 callsubr
190 -656 -100 callgsubr
                </CharString>
                <CharString name="ebreve.sc">
                    -73 callsubr
71 107 63 callsubr
279 659 -106 callsubr
195 -551 rmoveto
-94 callgsubr
                </CharString>
                <CharString name="ecaron">
                    -68 callsubr
212 -20 11 callgsubr
308 630 -97 callsubr
185 -644 -100 callgsubr
                </CharString>
                <CharString name="ecaron.sc">
                    -73 callsubr
92 callgsubr
94 128 hintmask 11101100
87 callgsubr
hintmask 11110100
-117 -104 rlineto
hintmask 11101100
-85 callgsubr
190 -539 rmoveto
-94 callgsubr
                </CharString>
                <CharString name="ecircumflex">
                    -68 callsubr
132 -20 11 callgsubr
419 640 -99 callsubr
197 -759 -100 callgsubr
                </CharString>
                <CharString name="ecircumflex.sc">
                    9 callgsubr
395 657 -99 callsubr
203 -654 rmoveto
-94 callgsubr
                </CharString>
                <CharString name="edieresis">
                    -68 callsubr
-13 callgsubr
60 126 -63.5 -19 callsubr
-80.5 126 hintmask 11110110
475 654 rmoveto
-105 callgsubr
-90 hmoveto
-105 callgsubr
hintmask 11111001
371 -668 -100 callgsubr
                </CharString>
                <CharString name="edieresis.sc">
                    -44 callgsubr
                </CharString>
                <CharString name="edotaccent">
                    -68 callsubr
-13 callgsubr
60 126 53.5 132 24.5 126 hintmask 11111100
370 654 rmoveto
-105 callgsubr
254 -668 rmoveto
14 112 -209 5 -88 27 -20 109 rlinecurve
330 10 rlineto
hintmask 11111110
197 19 -69 125 -148 hhcurveto
-139 -122 -134 -166 hvcurveto
hintmask 11111100
-181 91 -109 341 5 vhcurveto
-197 471 rmoveto
hintmask 11111110
69 27 -46 -79 5 hvcurveto
-210 -7 rlineto
hintmask 11111100
103 5 36 29 68 hhcurveto
endchar
                </CharString>
                <CharString name="edotaccent.sc">
                    -73 callsubr
83 150 -23 callgsubr
-5.5 132 hintmask 11110100
347 -38 callgsubr
259 -563 rmoveto
hintmask 11111000
-94 callgsubr
                </CharString>
                <CharString name="egrave">
                    -68 callsubr
125 -20 110 -20 11 callgsubr
418 696 -103 callsubr
113 -650 -100 callgsubr
                </CharString>
                <CharString name="egrave.sc">
                    -73 callsubr
125 -20 63 callsubr
394 713 -103 callsubr
119 -545 rmoveto
-94 callgsubr
                </CharString>
                <CharString name="eight">
                    9 -16 105 510 105 hstemhm
75 127 -117 123 204 126 -110 124 hintmask 11100100
299 -16 rmoveto
154 99 88 110 84 -67 52 -75 43 hvcurveto
hintmask 11011000
80 42 48 53 81 vvcurveto
100 -97 67 -120 -151 -85 -97 -92 -76 57 -52 67 -44 vhcurveto
hintmask 11100100
-83 -46 -51 -61 -79 vvcurveto
-104 96 -69 128 vhcurveto
hintmask 11011000
-91 551 rmoveto
33 34 31 66 73 31 -37 -51 -40 -27 -41 -47 -29 vhcurveto
-70 39 -60 37 58 vvcurveto
hintmask 11100100
109 -446 rmoveto
-81 -34 40 55 46 29 42 48 30 hvcurveto
78 -44 71 -39 -58 vvcurveto
-41 -45 -31 -66 vhcurveto
endchar
                </CharString>
                <CharString name="eight.den">
                    -11 81 299 81 hstemhm
5 -53 callsubr
hintmask 11100100
168 -11 -92 callgsubr
                </CharString>
                <CharString name="eight.den_afrc">
                    10 callgsubr
hstemhm
122 93 callsubr
285 -244 -64 callgsubr
hintmask 10110110
-81 callsubr
vhcurveto
hintmask 11010101
-16 callgsubr
hintmask 10111001
-46 callsubr
hintmask 10110110
-95 callgsubr
hintmask 10111001
-98 callgsubr
                </CharString>
                <CharString name="eight.den_afrc2">
                    390 -244 81 168 -21 30 -21 143 61 callsubr
-244 -64 callgsubr
hintmask 10110110
-81 callsubr
vhcurveto
hintmask 11010101
-16 callgsubr
hintmask 10111001
-46 callsubr
hintmask 10110110
-95 callgsubr
hintmask 10111001
-98 callgsubr
                </CharString>
                <CharString name="eight.inf">
                    -107 -178 81 299 81 hstemhm
83 -53 callsubr
hintmask 11100100
246 -178 -92 callgsubr
                </CharString>
                <CharString name="eight.num">
                    239 81 299 81 hstemhm
83 -53 callsubr
hintmask 11100100
246 239 -92 callgsubr
                </CharString>
                <CharString name="eight.num_afrc">
                    -29 461 81 147 -20 29 -20 163 81 hstemhm
122 93 callsubr
285 461 -64 callgsubr
hintmask 11010110
-81 callsubr
-16 callgsubr
hintmask 11011001
-56 -26 -31 -35 -51 vvcurveto
hintmask 10111001
-65 59 -51 104 vhcurveto
hintmask 10110110
-95 callgsubr
hintmask 10111001
-98 callgsubr
                </CharString>
                <CharString name="eight.num_afrc2">
                    390 461 81 147 -20 29 -20 163 61 callsubr
461 -64 callgsubr
hintmask 11010110
-81 callsubr
-16 callgsubr
hintmask 11011001
-56 -26 -31 -35 -51 vvcurveto
hintmask 10111001
-65 59 -51 104 vhcurveto
hintmask 10110110
-95 callgsubr
hintmask 10111001
-98 callgsubr
                </CharString>
                <CharString name="eight.small">
                    -11 81 299 81 hstemhm
44 -53 callsubr
hintmask 11100100
207 -11 -92 callgsubr
                </CharString>
                <CharString name="eight.sup">
                    -107 350 81 156 -20 163 81 hstemhm
83 -53 callsubr
hintmask 11110010
246 350 -64 callgsubr
hintmask 11101100
-81 callsubr
-16 callgsubr
hintmask 11110010
-46 callsubr
hintmask 11101100
-95 callgsubr
hintmask 11110010
-98 callgsubr
                </CharString>
                <CharString name="ellipsis">
                    529 0 160 hstem
110 170 207 170 207.5 170 vstem
1031 hmoveto
7 21 callsubr
-7 -160 rlineto
-208 hmoveto
8 21 callsubr
-8 -160 rlineto
-207 hmoveto
8 21 callsubr
-8 -160 rlineto
endchar
                </CharString>
                <CharString name="emacron">
                    -68 callsubr
101 115 11 callgsubr
476 787 -66 callsubr
16 -686 -100 callgsubr
                </CharString>
                <CharString name="emacron.sc">
                    -73 callsubr
101 115 63 callsubr
453 804 -66 callsubr
21 -581 rmoveto
-94 callgsubr
                </CharString>
                <CharString name="emdash">
                    204 282 101 hstem
73 679 vstem
752 383 rmoveto
-679 -101 667 hlineto
endchar
                </CharString>
                <CharString name="emspace">
                    385 endchar
                </CharString>
                <CharString name="endash">
                    -51 282 101 hstem
73 424 vstem
497 383 rmoveto
-424 -101 411 hlineto
endchar
                </CharString>
                <CharString name="endash.tab">
                    9 282 101 hstem
74 482 vstem
556 383 rmoveto
-482 -101 470 hlineto
endchar
                </CharString>
                <CharString name="enspace">
                    -115 endchar
                </CharString>
                <CharString name="eogonek">
                    -30 12 -21 253 84.5 128.5 114 hstem
60 126 59 112 39 126 vstem
468 -248 rmoveto
11 104 rlineto
-81 10 -41 10 25 vvcurveto
20 31 28 104 37 vhcurveto
14 112 -209 5 -88 27 -20 109 rlinecurve
330 10 rlineto
197 19 -69 125 -148 hhcurveto
-139 -122 -134 -166 -151 63 -101 217 -28 hvcurveto
-68 -40 -27 -41 -39 vvcurveto
-57 53 -48 170 -14 vhcurveto
-173 705 rmoveto
69 27 -46 -79 5 hvcurveto
-210 -7 rlineto
103 5 36 29 68 hhcurveto
endchar
                </CharString>
                <CharString name="eogonek.sc">
                    -36 callsubr
                </CharString>
                <CharString name="equal">
                    9 164 115 118 72 callgsubr
512 rmoveto
97 callsubr
-118 vmoveto
97 callsubr
endchar
                </CharString>
                <CharString name="eth">
                    3 -18 108 314 105 184 -20 32 -20 110 -20 hstemhm
59 123 249 120 hintmask 11011110
293 -18 rmoveto
137 121 110 203 hvcurveto
hintmask 11101110
125 -40 107 -87 97 vhcurveto
82 33 -32 84 -120 -48 -40 35 -45 34 -53 33 rlinecurve
hintmask 11011110
-66 -90 31 -20 29 -19 25 -20 rlinecurve
-106 -42 31 -85 150 60 23 -23 18 -23 16 -24 rlinecurve
-162 -5 -146 -91 -175 vvcurveto
-160 106 -96 128 vhcurveto
20 108 rmoveto
-66 -65 61 108 119 67 55 169 -43 hvcurveto
9 -34 4 -37 -38 vvcurveto
-131 -41 -60 -77 vhcurveto
endchar
                </CharString>
                <CharString name="eth.sc">
                    -90 callgsubr
                </CharString>
                <CharString name="exclam">
                    -230 0 149 hstem
107.5 159 vstem
235 275 rmoveto
44 474 rlineto
-162 hlineto
33 -474 rlineto
115 -275 rmoveto
3 88 callsubr
                </CharString>
                <CharString name="exclamdown">
                    -230 539 149 hstem
118.5 159 vstem
120 688 rmoveto
-3 -149 rlineto
159 hlineto
3 149 rlineto
-129 -275 rmoveto
-44 -474 rlineto
162 hlineto
-33 474 rlineto
endchar
                </CharString>
                <CharString name="f">
                    -21 callsubr
                </CharString>
                <CharString name="f.lig">
                    -21 callsubr
                </CharString>
                <CharString name="f.sc">
                    8 callgsubr
                </CharString>
                <CharString name="figurespace">
                    -65 endchar
                </CharString>
                <CharString name="five">
                    82 callgsubr
538 239 rmoveto
85 -68 77 -227 32 vhcurveto
10 139 rlineto
252 hlineto
13 116 rlineto
-372 hlineto
-25 -341 rlineto
217 -26 84 -42 -54 vvcurveto
-66 -76 -26 -245 -25 vhcurveto
10 -126 rlineto
293 26 134 103 128 vvcurveto
endchar
                </CharString>
                <CharString name="five.den">
                    8 -21 357 94 hstem
43.5 -33 callgsubr
vstem
341 148 -102 callgsubr
                </CharString>
                <CharString name="five.den_afrc">
                    -29 111 94 79 callgsubr
458 -85 -102 callgsubr
                </CharString>
                <CharString name="five.den_afrc2">
                    390 111 94 hstem
369.5 -33 callgsubr
vstem
667 -85 -102 callgsubr
                </CharString>
                <CharString name="five.inf">
                    -107 177 94 hstem
84 callsubr
vstem
419 -19 -102 callgsubr
                </CharString>
                <CharString name="five.num">
                    594 94 hstem
84 callsubr
vstem
419 398 -102 callgsubr
                </CharString>
                <CharString name="five.num_afrc">
                    -29 559 -20 277 94 79 callgsubr
-55 callsubr
endchar
                </CharString>
                <CharString name="five.num_afrc2">
                    390 559 -20 277 94 hstem
369.5 -33 callgsubr
vstem
667 -5 callgsubr
endchar
                </CharString>
                <CharString name="five.small">
                    8 -21 357 94 hstem
82.5 -33 callgsubr
vstem
380 148 -102 callgsubr
                </CharString>
                <CharString name="five.sup">
                    -107 705 94 hstem
84 callsubr
vstem
419 509 -102 callgsubr
                </CharString>
                <CharString name="fiveeighths">
                    91 callsubr
386 81 144 67 callgsubr
278 -53 callsubr
hintmask 0110111100100000
385 -79 callsubr
108 368 rmoveto
hintmask 1011011100100000
-106 callgsubr
hintmask 0110111100100000
-54 callsubr
hintmask 1011011100100000
441 -409 -64 callgsubr
hintmask 1011011011000000
-81 callsubr
-16 callgsubr
hintmask 1011011100100000
-46 callsubr
hintmask 1011011011000000
-95 callgsubr
hintmask 1011011100100000
-98 callgsubr
                </CharString>
                <CharString name="fiveeighths.afrc">
                    10 callgsubr
77 89 176 -20 277 94 hstemhm
122 104 -98 107 -74.5 90 105.5 102 -100 108 -104 96 hintmask 1011111001001000
-55 callsubr
-385 -326 -29 callsubr
hintmask 1011111100010000
212 -627 -64 callgsubr
hintmask 1011111010100000
-81 callsubr
vhcurveto
hintmask 1101111010001000
-16 callgsubr
hintmask 1011111100001000
-56 -26 -31 -35 -51 vvcurveto
hintmask 1011111100010000
-65 59 -51 104 vhcurveto
hintmask 1011111010100000
-95 callgsubr
hintmask 1011111100010000
-98 callgsubr
                </CharString>
                <CharString name="fivesixths">
                    507 -11 90 -75 -21 213 77 321 67 callgsubr
274 101 149 99 hintmask 0110111110000000
397 -79 callsubr
96 368 rmoveto
hintmask 1011011110000000
-106 callgsubr
hintmask 0110111110000000
-54 callsubr
hintmask 1011011110000000
449 -409 -102 callsubr
                </CharString>
                <CharString name="fivesixths.afrc">
                    -29 -244 105 callgsubr
254 89 176 -20 277 94 hstemhm
118 101 -58.5 -33 callgsubr
-90 99 hintmask 1111101100000000
-55 callsubr
-385 -326 -29 callsubr
hintmask 1111110010000000
220 -627 -102 callsubr
                </CharString>
                <CharString name="four">
                    9 21 -21 121 117 447 -20 30 -20 hstemhm
378 120 hintmask 11011000
568 121 rmoveto
12 117 rlineto
-82 228 hlineto
-120 -11 rlineto
-217 -197 vlineto
hintmask 11101000
120 447 rlineto
hintmask 11011000
-141 10 -54 -210 -26 -224 6 -140 rlinecurve
292 -121 120 121 hlineto
endchar
                </CharString>
                <CharString name="four.den">
                    0 166 -88 88 hstemhm
211.5 99 hintmask 10100000
354 77 -16 callsubr
hintmask 01100000
10 callsubr
hintmask 10100000
29 callsubr
                </CharString>
                <CharString name="four.den_afrc">
                    -29 -155 88 hstem
328.5 99 vstem
471 -156 rmoveto
8 90 -52 -2 1 135 -86 callsubr
endchar
                </CharString>
                <CharString name="four.den_afrc2">
                    390 -155 88 hstem
537.5 99 vstem
680 -156 rmoveto
8 90 -52 -2 1 135 -86 callsubr
endchar
                </CharString>
                <CharString name="four.inf">
                    -107 -89 88 22 -21 hstemhm
90 callgsubr
hintmask 10100000
432 -90 -38 callsubr
-100 -7 1 -128 rlineto
hintmask 01100000
-111 2 72 269 -115 8 rlineto
hintmask 10100000
10 callsubr
29 callsubr
                </CharString>
                <CharString name="four.num">
                    328 91 callgsubr
156 -20 28 -20 hstemhm
90 callgsubr
hintmask 10101100
432 327 -38 callsubr
rlineto
hintmask 11010100
-62 callgsubr
rlineto
hintmask 10101100
37 callsubr
                </CharString>
                <CharString name="four.num_afrc">
                    -29 550 91 callgsubr
hstemhm
328.5 99 hintmask 10110000
471 549 -38 callsubr
rlineto
hintmask 11010000
-86 callsubr
endchar
                </CharString>
                <CharString name="four.num_afrc2">
                    390 550 91 callgsubr
hstemhm
537.5 99 hintmask 10110000
680 549 -38 callsubr
rlineto
hintmask 11010000
-86 callsubr
endchar
                </CharString>
                <CharString name="four.small">
                    0 166 -88 88 hstemhm
250.5 99 hintmask 10100000
393 77 -16 callsubr
hintmask 01100000
10 callsubr
hintmask 10100000
29 callsubr
                </CharString>
                <CharString name="four.sup">
                    -107 439 88 270 -20 hstem
90 callgsubr
vstem
432 438 rmoveto
8 90 -52 -2 1 135 -86 callsubr
endchar
                </CharString>
                <CharString name="fourfifths">
                    507 4 -21 25 -21 341 88 -72 94 105 7 0 -20 164 61 callgsubr
90 callgsubr
347 -33 callgsubr
hintmask 1001010111100000
385 -79 callsubr
hintmask 0101010111100000
722 118 rmoveto
-106 callgsubr
-54 callsubr
hintmask 0110010111100000
-601 179 -38 callsubr
rlineto
hintmask 0110100111100000
-62 callgsubr
rlineto
hintmask 0110011011100000
37 callsubr
                </CharString>
                <CharString name="fourfifths.afrc">
                    89 callsubr
167 91 callgsubr
hstemhm
160.5 90 78 99 -65.5 96 hintmask 11101110
471 549 -38 callsubr
rlineto
hintmask 11110110
-86 callsubr
-354 -256 -29 callsubr
hintmask 11101101
385 -468 -102 callgsubr
                </CharString>
                <CharString name="fourperemspace">
                    -365 endchar
                </CharString>
                <CharString name="fraction">
                    -330 4 -21 722 -20 hstem
-107 497 vstem
-33 -79 callsubr
endchar
                </CharString>
                <CharString name="fraction.afrc">
                    -29 294 89 hstem
73 440 vstem
73 294 -29 callsubr
endchar
                </CharString>
                <CharString name="fraction.afrc2">
                    390 294 89 hstem
74 870 vstem
74 294 rmoveto
870 89 -870 hlineto
endchar
                </CharString>
                <CharString name="fraction.tab">
                    -330 4 -21 722 -20 hstem
-107 497 vstem
-33 -79 callsubr
endchar
                </CharString>
                <CharString name="g">
                    31 callsubr
hstem
60 125 217 127 vstem
145 -198 rmoveto
-88 callsubr
                </CharString>
                <CharString name="g.sc">
                    24 callsubr
69 callgsubr
236 125 vstem
-13 callsubr
endchar
                </CharString>
                <CharString name="gbreve">
                    31 callsubr
71 107 hstem
60 125 217 127 vstem
324 639 -106 callsubr
-179 -837 rmoveto
-88 callsubr
                </CharString>
                <CharString name="gbreve.sc">
                    24 callsubr
71 107 69 callgsubr
236 125 vstem
337 669 18 callsubr
-660 -98 callsubr
endchar
                </CharString>
                <CharString name="gcommaaccent">
                    31 callsubr
hstemhm
60 125 56 141 20 127 vstemhm
397 864 49 callsubr
-252 -1062 rmoveto
hintmask 11110100
-88 callsubr
                </CharString>
                <CharString name="gcommaaccent.sc">
                    -57 callsubr
                </CharString>
                <CharString name="gdotaccent">
                    31 callsubr
-13 callgsubr
60 125 76.5 132 8.5 127 vstemhm
392 651 rmoveto
-105 callgsubr
-115 -849 rmoveto
hintmask 11111010
-88 callsubr
                </CharString>
                <CharString name="gdotaccent.sc">
                    24 callsubr
-13 callgsubr
58 130 86.5 132 17.5 125 vstemhm
405 681 rmoveto
-105 callgsubr
hintmask 11110100
277 -672 -98 callsubr
endchar
                </CharString>
                <CharString name="germandbls">
                    36 -11 116 -116 119 -108 105 580 113 hstemhm
85 125 83 128 -14 128 -35 129 hintmask 10011101
421 394 rmoveto
hintmask 00111010
51 114 48 135 vvcurveto
80 -53 90 -129 -171 -97 -125 -159 vhcurveto
-514 125 545 vlineto
105 31 35 72 64 30 -41 -45 vhcurveto
-78 -114 -54 -91 vvcurveto
hintmask 01011101
-143 207 -9 -71 vvcurveto
-44 -48 -11 -142 10 vhcurveto
hintmask 10011101
-4 -119 rlineto
245 -3 78 91 90 149 -208 14 64 vvcurveto
endchar
                </CharString>
                <CharString name="germandbls.sc">
                    412 -9 -51 callsubr
100 callgsubr
99 134 100 callgsubr
hintmask 10111110
573 103 -3 callgsubr
hintmask 11011110
-69 callsubr
hintmask 10111110
-81 callgsubr
-502 hmoveto
-42 callsubr
vvcurveto
hintmask 11011110
-69 callsubr
hintmask 10111110
-81 callgsubr
endchar
                </CharString>
                <CharString name="grave">
                    -48 620 260 hstem
131 310 vstem
441 680 -103 callsubr
endchar
                </CharString>
                <CharString name="grave.cap">
                    -48 620 260 hstem
131 310 vstem
441 680 -103 callsubr
endchar
                </CharString>
                <CharString name="greater">
                    9 57 550 hstem
425 113 vstem
148 57 rmoveto
390 208 rlineto
136 vlineto
-380 206 -59 -112 326 -156 rlineto
-13 vlineto
-326 -159 rlineto
endchar
                </CharString>
                <CharString name="greaterequal">
                    9 0 114 hstem
403 129 vstem
94 256 rmoveto
36 -103 403 158 -2 122 -389 202 -48 -106 309 -149 rlineto
-7 vlineto
-318 -259 rmoveto
-114 456 114 vlineto
endchar
                </CharString>
                <CharString name="guillemotleft">
                    163 3 -21 595 -20 hstem
73 643 vstem
287 -18 -50 callsubr
547 -219 -50 callsubr
endchar
                </CharString>
                <CharString name="guillemotleft.cap">
                    163 546 -20 hstem
73 643 vstem
287 44 -50 callsubr
547 -219 -50 callsubr
endchar
                </CharString>
                <CharString name="guillemotright">
                    163 4 -21 hstem
62 643 vstem
484 -17 -58 callgsubr
-244 -94 -58 callgsubr
endchar
                </CharString>
                <CharString name="guillemotright.cap">
                    163 550 -20 hstem
62 643 vstem
484 45 -58 callgsubr
-244 -94 -58 callgsubr
endchar
                </CharString>
                <CharString name="guilsinglleft">
                    -170 3 -21 595 -20 hstem
73 310 vstem
287 -18 -50 callsubr
endchar
                </CharString>
                <CharString name="guilsinglleft.cap">
                    -170 546 -20 hstem
73 310 vstem
287 44 -50 callsubr
endchar
                </CharString>
                <CharString name="guilsinglright">
                    -170 4 -21 hstem
62 310 vstem
151 -17 -58 callgsubr
endchar
                </CharString>
                <CharString name="guilsinglright.cap">
                    -170 550 -20 hstem
62 310 vstem
151 45 -58 callgsubr
endchar
                </CharString>
                <CharString name="h">
                    23 41 callsubr
212 61 callgsubr
89 127 211 126 hintmask 11011100
28 callgsubr
283 vlineto
hintmask 11101100
-127 -11 rlineto
-783 127 432 vlineto
hintmask 11011100
18 34 36 11 42 hhcurveto
endchar
                </CharString>
                <CharString name="h.sc">
                    -1 callsubr
                </CharString>
                <CharString name="hairspace">
                    -540 endchar
                </CharString>
                <CharString name="hbar">
                    23 41 callsubr
55 90 67 61 callgsubr
89 127 211 126 hintmask 11101110
28 callgsubr
115 129 90 -129 78 vlineto
hintmask 11110110
-127 -11 rlineto
-67 -67 -90 67 -626 127 432 vlineto
hintmask 11101110
18 34 36 11 42 hhcurveto
endchar
                </CharString>
                <CharString name="hbar.sc">
                    -36 callgsubr
                </CharString>
                <CharString name="hcoslug">
                    79 -100 100 6 12 -11 11 -11 18 -18 25 -25 41 -37 15 -13 10 -3 14 -11 9 0 16 -9 15 -15 20 -19 34 -19 19 -15 15 7 8 -1 13 -7 12 6 10 -9 43 -42 11 hstemhm
50 82 13 10 -10 22 -5 12 6 9 -2 16 -1 16 -2 9 12 13 -3 14 -14 56 -41 12 -1 9 4 16 -8 14 5 13 -6 7 8 17 -12 14 8 7 -5 15 -13 8 hintmask 001000000000001000001010001000100000100000010000
644 700 rmoveto
-594 hlineto
hintmask 100000000000000000001010000000001000000001000000
-800 594 vlineto
-397 528 rmoveto
-23 15 -14 23 -22 vhcurveto
11 17 7 16 17 vvcurveto
23 -12 15 -17 -16 -11 -12 -17 vhcurveto
65 -86 rmoveto
16 -16 12 -15 13 -15 19 33 5 24 -23 23 -9 -10 -14 -11 -19 -13 rrcurveto
-51 -123 rmoveto
15 12 3 9 11 hvcurveto
-28 35 -28 30 -18 17 rrcurveto
-11 -11 -5 -14 -15 vvcurveto
-31 22 -23 30 vhcurveto
121 45 rmoveto
-29 25 17 -12 20 hhcurveto
21 12 12 17 10 hvcurveto
7 -2 rlineto
-58 -2 -35 -36 -43 hhcurveto
-30 -22 11 34 -33 hvcurveto
-31 -28 -34 -14 -42 hhcurveto
-60 -49 40 53 42 29 31 53 18 hvcurveto
-21 22 -10 18 29 vvcurveto
43 42 42 67 62 33 -39 -35 -13 -3 -11 -6 -10 vhcurveto
27 1 20 -11 2 -27 rrcurveto
24 16 19 14 25 hhcurveto
28 22 -21 -31 -31 -22 -23 -28 -18 -16 10 15 -9 hvcurveto
-15 -9 -16 -13 -15 -20 rrcurveto
hintmask 000000000000000000001000000000000001000000000000
-96 -140 rmoveto
-11 13 -7 vlineto
hintmask 000000000000000000100000000000000001000000000000
-13 -20 hlineto
-3 1 -2 3 2 2 2 5 1 vhcurveto
5 -2 rlineto
hintmask 100000000000000000100000000000000100000000000000
-2 -9 -4 -4 -8 -8 -4 5 0 hflex1
20 -7 7 7 9 vlineto
hintmask 000000000000001000000000010000000000000000000000
-100 -28 rmoveto
hintmask 000000000000000000100000010001000000000000000000
55 callsubr
hintmask 000000000000001000000000000001000000000000000000
-12 -9 -9 -12 vhcurveto
hintmask 000000000000001000000000010000000000000000000000
-12 -9 8 13 hvcurveto
hintmask 000000000000000000100010000100000000000000100000
29 hmoveto
53 callsubr
54 callgsubr
176 -1 rmoveto
0 8 -2 5 -5 -6 -2 -6 0 hflex1
0 -8 2 -5 6 5 2 5 0 hflex1
-160 -12 rmoveto
6 hlineto
hintmask 000000000000000000100000000001000000000000000000
25 -6 7 vlineto
hintmask 000000000000000000001000000000100000000000000000
17 -10 hlineto
hintmask 000000000000000000001000000000000100000000000000
7 3 4 4 7 hhcurveto
9 3 -6 -8 hvcurveto
hintmask 000000000000000000100000000000000100000000000000
-19 6 -7 vlineto
hintmask 100000000000000000100000000000100000000000000000
-22 7 4 18 hlineto
4 -2 3 -4 -4 -3 -4 -6 vhcurveto
-15 4 -7 vlineto
hintmask 000000000000001000000010000000000000000000000000
-22 hlineto
hintmask 000000000000000010000010000000000000000000000000
-94 7 rmoveto
7 hlineto
hintmask 000000000000000000010010000000000000000000000000
41 -7 7 vlineto
hintmask 000000000000000000001000000100000000000000000000
51 hlineto
hintmask 000000000000000000100000000100000000000000000000
-20 -8 vlineto
hintmask 000000000000000000010001000000000000000000000000
11 -2 -2 2 -7 hhcurveto
-12 -18 4 hlineto
5 0 1 7 1 hvcurveto
7 hlineto
hintmask 000000000000000010000000010000000000000000000000
-23 -7 vlineto
7 -1 0 1 -5 hhcurveto
-4 hlineto
hintmask 000000000000000010000001000000000000000000000000
-16 10 -7 vlineto
hintmask 000000000000001000000010000000000000000000000000
-30 hlineto
hintmask 000000000000000000100000000000000001000000000000
177 14 rmoveto
7 hlineto
hintmask 000000000000000000000100000000000000010000000000
-6 4 3 -3 5 hhcurveto
3 2 2 2 hvcurveto
hintmask 000000000000000000000100000000000001000000000000
8 -24 -5 16 vvcurveto
6 5 6 9 5 4 -2 -3 2 vhcurveto
2 5 rlineto
6 hlineto
hintmask 100000000000000001000000000000000000000100000000
-13 -7 vlineto
4 -3 -3 3 -4 hhcurveto
-3 -2 -2 -2 hvcurveto
-8 24 6 -16 vvcurveto
-7 -5 -6 -9 vhcurveto
hintmask 100000000000000000000000000000000000010000000000
-7 -3 3 2 -3 hvcurveto
-1 -4 rlineto
-7 hlineto
hintmask 000000000000000000000100000000000000000100000000
50 51 rmoveto
-6 7 hlineto
hintmask 000000000000000000001000000000000000000000100000
18 hlineto
hintmask 100000000000000000000100000000000000000000100000
-27 vlineto
6 2 5 3 6 hhcurveto
9 6 -8 -12 -9 -4 -12 -12 -7 -4 3 5 -3 hvcurveto
-4 -8 rlineto
-6 hlineto
53 -8 rmoveto
4 3 3 5 1 hvcurveto
-4 10 -12 23 0 vvcurveto
-5 7 hlineto
hintmask 000000000000000000001000000000000000000000000000
25 -7 -6 hlineto
hintmask 100000000000100000001000000000000000000000100000
9 -20 8 20 rlineto
-5 7 17 -7 -5 hlineto
-13 -31 rlineto
-10 -4 -5 -6 -9 hhcurveto
-7 -4 4 5 4 3 3 4 hvcurveto
hintmask 100000000000000000000100000000000000000000100000
7 1 -7 -3 -3 hvcurveto
hintmask 000000000010000000000000000000000000000000000000
59 -32 rmoveto
-7 -5 vlineto
hintmask 000000100000000000000000000000000000000000000000
-3 -6 -3 -4 -3 -4 rrcurveto
2 -3 2 -2 2 2 1 1 1 hflex1
5 -1 rlineto
97 callgsubr
-7 -2 -3 -5 -8 hhcurveto
-5 0 -3 1 -4 5 -4 -4 -5 -2 -6 flex1
-12 -6 6 8 hvcurveto
hintmask 000010000000000000000000000000000000000000000000
8 6 5 7 2 vhcurveto
-4 4 -2 3 5 vvcurveto
7 7 7 10 9 5 -6 -6 vhcurveto
-6 -4 -3 -7 -3 vhcurveto
hintmask 000000100000000000000000000000000000000000000000
5 -5 3 -4 4 -4 2 2 3 4 1 3 rrcurveto
-6 7 hlineto
hintmask 100000000001000000000000000000000000100000000000
-152 6 rmoveto
14 5 hlineto
-3 -3 2 4 2 1 1 0 hvcurveto
0 -1 1 -2 -3 -3 -2 -10 vhcurveto
175 -15 rmoveto
96 callsubr
18 13 12 14 vhcurveto
7 5 -3 -4 4 hvcurveto
1 6 rlineto
8 hlineto
-22 -8 vlineto
hintmask 000000000010000000000000000000000000000000000000
12 -4 -3 4 -8 hhcurveto
-8 -6 -6 -16 hvcurveto
hintmask 010000000000000000000000000000000000000000000000
-15 6 -7 10 8 5 7 9 1 vhcurveto
8 hlineto
97 callgsubr
-14 -1 -8 -9 -15 hhcurveto
hintmask 100000000001000000000000000000000000100000000000
-18 -11 11 17 hvcurveto
hintmask 000001000000000000000000000000000000000000000000
-38 6 rmoveto
3 2 2 3 4 vvcurveto
3 -2 3 -4 -3 -2 -2 -3 -3 2 -3 4 -4 vhcurveto
hintmask 001000000000000000000000000000010000000000000000
-184 -15 rmoveto
hintmask 010000000000000000000000000000010000000000000000
86 callgsubr
hintmask 100000000000010000000000000010000010000000000000
71 callgsubr
hintmask 001000000000000000000000000000000010000000000000
14 6 -9 -13 -1 hvcurveto
hintmask 100000000010000000000000001000010000000000000000
-84 2 rmoveto
55 callsubr
-12 -9 -9 -12 -12 -9 8 13 vhcurveto
336 hmoveto
96 callsubr
55 callsubr
97 callgsubr
-12 -9 -9 -12 vhcurveto
hintmask 100000000010000000000000001000010000000000000000
-12 -9 8 13 hvcurveto
hintmask 001000000000000000000000000000000000000010000000
-185 -2 rmoveto
hintmask 010000000000000000000000000000000000000010000000
86 callgsubr
hintmask 100000000000010000000000000000000000001000010000
71 callgsubr
hintmask 001000000000000000000000000000000000000000010000
14 6 -9 -13 -1 hvcurveto
hintmask 000000010000000000000000000000010000000000000000
-119 5 rmoveto
hintmask 000000000100000000000000000000010000000000000000
14 hlineto
hintmask 000000010000000000000000000000010000000000000000
94 callsubr
hintmask 001000000000000000000000000010000000000000000000
-29 -3 rmoveto
hintmask 000000000010000000000000000010000000000000000000
53 callsubr
hintmask 001000000000000000000000000010000000000000000000
54 callgsubr
56 callgsubr
336 hmoveto
96 callsubr
53 callsubr
56 callgsubr
54 callgsubr
hintmask 000000010000000000000000000000000000000010000000
-214 3 rmoveto
hintmask 000000000100000000000000000000000000000010000000
14 hlineto
hintmask 000000010000000000000000000000000000000010000000
94 callsubr
hintmask 001000000000000000000000000000000010000000000000
-64 -16 rmoveto
6 hlineto
hintmask 000010000000000000000000000000000010000000000000
25 -7 7 7 1 vlineto
hintmask 001000000000000100000000000000000010001000000000
13 9 6 10 3 4 -1 -1 2 vhcurveto
10 2 rlineto
-52 6 -7 vlineto
hintmask 100000000000000000000000000000000000100000000000
-23 7 5 hlineto
hintmask 000010000000000000000000000000000000100000000000
25 -14 vlineto
hintmask 001000000000000000000000000000000000100000000000
-25 5 -7 vlineto
hintmask 100000000000000000000000000000000010000000000000
-23 hlineto
hintmask 001000000000000000000000000000000000001000000000
92 7 rmoveto
6 hlineto
hintmask 000000100000000000000000000000000000000000010000
25 -6 7 vlineto
hintmask 000000000000010000000000000000000000000000000000
18 -10 hlineto
8 3 4 3 5 hhcurveto
5 3 -3 -5 -4 -3 -3 -4 -3 -3 2 4 hvcurveto
1 vlineto
-2 -3 -4 -5 -2 hvcurveto
56 callgsubr
-16 8 -7 vlineto
hintmask 100000000000000000000000000000000000001000000000
-26 hlineto
56 callgsubr
69 9 rmoveto
hintmask 000100000000000000000000000000000000000000000000
-5 6 -4 5 -5 5 rrcurveto
-2 -2 -2 -3 -4 vvcurveto
-6 4 -4 6 vhcurveto
56 callgsubr
2 3 1 2 3 hvcurveto
hintmask 001000000000000000000010000000000000000000000000
-313 -2 rmoveto
8 hlineto
hintmask 000000000010000000000010000000000000000000000000
41 -8 7 vlineto
hintmask 000000000000001000000000100000000000000000000000
29 -7 -8 hlineto
hintmask 000000000010000000000000100000000000000000000000
-16 22 16 -8 7 vlineto
hintmask 001000000000001000000000001000000000000000000000
29 -7 -8 -41 8 -7 hlineto
hintmask 100000000000000000000000100000000000000000000000
-29 7 8 hlineto
hintmask 000100000000000000000000100000000000000000000000
18 -22 vlineto
hintmask 001000000000000000000000100000000000000000000000
-18 8 -7 vlineto
hintmask 100000000000000000000010000000000000000000000000
-29 hlineto
459 6 rmoveto
0 -4 -3 -3 -4 -4 -3 3 0 hflex1
0 4 3 3 4 4 3 -3 0 hflex1
endchar
                </CharString>
                <CharString name="hungarumlaut">
                    -48 630 264 hstem
128 437 vstem
128 676 -88 callgsubr
endchar
                </CharString>
                <CharString name="hungarumlaut.cap">
                    -48 630 264 hstem
128 437 vstem
128 676 -88 callgsubr
endchar
                </CharString>
                <CharString name="hyphen">
                    -162 275 115 hstem
73 313 vstem
386 390 rmoveto
-313 -115 300 hlineto
endchar
                </CharString>
                <CharString name="hyphen.tab">
                    9 275 115 hstem
118 394 vstem
512 390 rmoveto
-394 -115 382 hlineto
endchar
                </CharString>
                <CharString name="i">
                    -26 callsubr
                </CharString>
                <CharString name="i.dot">
                    -26 callsubr
                </CharString>
                <CharString name="i.sc">
                    -26 callgsubr
13 callgsubr
327 490 -96 callsubr
                </CharString>
                <CharString name="iacute">
                    -82 27 callgsubr
90 callsubr
74 callgsubr
139 683 -107 callgsubr
364 -683 rmoveto
12 101 rlineto
-72 callgsubr
                </CharString>
                <CharString name="iacute.sc">
                    -26 callgsubr
13 callgsubr
135 716 -107 callgsubr
192 -226 -96 callsubr
                </CharString>
                <CharString name="ibreve">
                    -82 27 callgsubr
71 107 61 -20 74 callgsubr
272 626 -106 callsubr
231 -626 rmoveto
12 101 rlineto
-72 callgsubr
                </CharString>
                <CharString name="ibreve.sc">
                    -26 callgsubr
71 107 13 callgsubr
268 659 -106 callsubr
59 -169 -96 callsubr
                </CharString>
                <CharString name="icircumflex">
                    -82 27 callgsubr
132 -20 39 -20 hstemhm
226 126 hintmask 11011000
389 624 rmoveto
84 82 -197 153 rlineto
-1 hlineto
hintmask 11101000
-190 -172 rlineto
hintmask 11011000
62 -62 118 104 rlineto
238 -729 rmoveto
12 101 rlineto
-72 callgsubr
                </CharString>
                <CharString name="icircumflex.sc">
                    -26 callgsubr
13 callgsubr
385 657 -99 callsubr
66 -272 -96 callsubr
                </CharString>
                <CharString name="idieresis">
                    -82 27 callgsubr
-13 callgsubr
92.5 132 1.5 126 -37.5 132 hintmask 11110100
445 38 callgsubr
-90 hmoveto
-105 callgsubr
412 -638 rmoveto
12 101 rlineto
hintmask 11101000
-72 callgsubr
                </CharString>
                <CharString name="idieresis.sc">
                    -26 callgsubr
-13 callgsubr
89.5 132 -23.5 129 -15.5 132 hintmask 11110100
442 -38 callgsubr
-90 hmoveto
-105 callgsubr
hintmask 11101000
239 -181 -96 callsubr
                </CharString>
                <CharString name="idotaccent.sc">
                    -26 callgsubr
-13 callgsubr
198 129 -121.5 132 hintmask 11101000
336 -38 callgsubr
hintmask 11110000
123 -181 -96 callsubr
                </CharString>
                <CharString name="igrave">
                    -82 27 callgsubr
74 callgsubr
388 680 -103 callsubr
154 -620 rmoveto
12 101 rlineto
-72 callgsubr
                </CharString>
                <CharString name="igrave.sc">
                    -26 callgsubr
125 -20 13 callgsubr
384 713 -103 callsubr
-18 -163 -96 callsubr
                </CharString>
                <CharString name="imacron">
                    -82 27 callgsubr
101 115 74 callgsubr
446 771 -66 callsubr
57 -656 rmoveto
12 101 rlineto
-72 callgsubr
                </CharString>
                <CharString name="imacron.sc">
                    -26 callgsubr
101 115 13 callgsubr
443 804 -66 callsubr
-116 -199 -96 callsubr
                </CharString>
                <CharString name="iogonek">
                    -82 27 callgsubr
-13 callgsubr
143 112 -31.5 132 -129.5 126 hintmask 11101000
351 638 rmoveto
9 150 rlineto
-132 hlineto
-9 -150 rlineto
163 -782 rmoveto
hintmask 11110000
-84 12 -43 13 34 vvcurveto
19 19 28 69 38 vhcurveto
160 hlineto
12 101 rlineto
hintmask 11100100
-163 454 -282 hlineto
-11 -97 167 -8 rlineto
-349 vlineto
hintmask 11110000
-162 -101 155 hlineto
-55 -39 -21 -37 -39 vvcurveto
-65 54 -53 174 -15 vhcurveto
endchar
                </CharString>
                <CharString name="iogonek.sc">
                    -33 callsubr
                </CharString>
                <CharString name="j">
                    -162 -193 131 516 101 -13 callgsubr
212.5 132 -124.5 126 hintmask 11110000
342 638 rmoveto
5 150 rlineto
-132 hlineto
-5 -150 rlineto
hintmask 11101000
136 -564 rmoveto
481 -277 vlineto
-11 -97 162 -8 rlineto
-413 vlineto
-86 -11 -8 -160 -5 vhcurveto
-4 -131 rlineto
223 13 78 122 132 vvcurveto
endchar
                </CharString>
                <CharString name="j.sc">
                    -9 callsubr
                </CharString>
                <CharString name="k">
                    23 callsubr
hintmask 1001100110000000
57 callsubr
hintmask 0011010110000000
68 callgsubr
hintmask 0101011010000000
78 callsubr
endchar
                </CharString>
                <CharString name="k.sc">
                    3 12 -21 30 -21 246 106 236 -22 callgsubr
hintmask 10111000
-39 callgsubr
hintmask 01111000
-588 128 246 56 vlineto
endchar
                </CharString>
                <CharString name="kcommaaccent">
                    23 callsubr
33 141 hintmask 1001100111000000
57 callsubr
hintmask 0011010111000000
68 callgsubr
hintmask 0101011011000000
78 callsubr
-41 -539 -101 callgsubr
                </CharString>
                <CharString name="kcommaaccent.sc">
                    -41 callgsubr
                </CharString>
                <CharString name="l">
                    83 callsubr
36 callsubr
endchar
                </CharString>
                <CharString name="l.sc">
                    51 callsubr
481 80 callsubr
hlineto
endchar
                </CharString>
                <CharString name="lacute">
                    83 callsubr
127 905 -107 callgsubr
323 -905 rmoveto
-34 callgsubr
endchar
                </CharString>
                <CharString name="lacute.sc">
                    -10 callgsubr
vstem
144 716 -107 callgsubr
319 -716 rmoveto
-24 callsubr
endchar
                </CharString>
                <CharString name="lcaron">
                    32 callgsubr
95 133 vstem
407 632 -70 callsubr
43 -632 rmoveto
-34 callgsubr
endchar
                </CharString>
                <CharString name="lcaron.sc">
                    -10 callgsubr
112 133 vstem
325 463 -70 callsubr
138 -463 rmoveto
-24 callsubr
endchar
                </CharString>
                <CharString name="lcommaaccent">
                    -107 0 101 575 101 hstemhm
193 141 -139 126 hintmask 11010000
36 callsubr
hintmask 11100000
123 -293 -101 callgsubr
                </CharString>
                <CharString name="lcommaaccent.sc">
                    -9 callgsubr
                </CharString>
                <CharString name="ldot">
                    -107 0 101 177 149 249 101 hstem
195 126 117.5 132.5 vstem
36 callsubr
512 278 rmoveto
8 29 callgsubr
                </CharString>
                <CharString name="ldot.sc">
                    -8 callgsubr
                </CharString>
                <CharString name="less">
                    9 58 550 hstem
87 112 vstem
477 608 rmoveto
-390 -208 rlineto
-136 vlineto
380 -206 58 112 -326 156 rlineto
13 vlineto
326 159 rlineto
endchar
                </CharString>
                <CharString name="lessequal">
                    9 0 114 hstem
93.5 128.5 vstem
95 433 rmoveto
-3 -122 403 -158 37 106 -310 117 rlineto
7 vlineto
310 150 -49 102 rlineto
58 -521 rmoveto
-456 -114 456 hlineto
endchar
                </CharString>
                <CharString name="lslash">
                    83 callsubr
450 hmoveto
12 101 rlineto
-141 286 hlineto
101 54 -21 94 -80 -42 rlineto
284 -259 vlineto
-12 -97 145 -8 rlineto
-246 vlineto
-108 -57 21 -95 87 46 rlineto
-219 -140 -101 vlineto
endchar
                </CharString>
                <CharString name="lslash.sc">
                    -5 callsubr
                </CharString>
                <CharString name="m">
                    297 41 callgsubr
hstemhm
93 126 178 126 178 126 cntrmask 00001110
hintmask 11001110
315 461 rmoveto
84 callgsubr
19 -1 17 -2 16 vhcurveto
19 29 32 11 38 hhcurveto
84 callgsubr
128 -51 64 -98 -77 -55 -36 -42 -43 vhcurveto
52 -24 -43 26 -63 hhcurveto
-74 -53 -33 -40 -43 hvcurveto
hintmask 10011110
-8 60 rlineto
hintmask 10101110
-24 callgsubr
hintmask 11001110
178 -3 143 -4 108 vhcurveto
20 31 33 12 39 hhcurveto
endchar
                </CharString>
                <CharString name="m.sc">
                    -37 callgsubr
                </CharString>
                <CharString name="macron">
                    39 callsubr
                </CharString>
                <CharString name="macron.cap">
                    39 callsubr
                </CharString>
                <CharString name="minus">
                    9 275 72 callgsubr
390 rmoveto
97 callsubr
endchar
                </CharString>
                <CharString name="mu">
                    26 98 callsubr
167 110 -78 -21 23 -21 28 -21 547 -20 24 -20 24 -20 5 callgsubr
hintmask 0100010011100000
211 -183 rmoveto
hintmask 0101000011100000
-6 178 rlineto
hintmask 0110000011100000
-8 20 22 -3 25 hhcurveto
74 52 33 38 40 hvcurveto
hintmask 0100100011100000
9 -58 rlineto
hintmask 0100010101100000
-66 callgsubr
hintmask 0110000011100000
-178 3 -142 4 -107 vhcurveto
-22 -35 -39 -12 -45 hhcurveto
-60 -39 25 84 hvcurveto
356 vlineto
hintmask 1000011001100000
-126 -8 rlineto
-745 vlineto
endchar
                </CharString>
                <CharString name="multiply">
                    9 566 -20 27 -20 hstemhm
74 479 hintmask 01100000
470 92 rmoveto
83 83 -157 158 rlineto
hintmask 10100000
152 152 -81 81 -152 -152 rlineto
hintmask 01100000
-158 159 -83 -85 157 -157 -152 -152 81 -81 152 152 rlineto
endchar
                </CharString>
                <CharString name="n">
                    32 callsubr
hstemhm
93 126 211 127 hintmask 11001100
331 461 4 callsubr
hintmask 10101100
17 callsubr
hintmask 10011100
-8 61 rlineto
hintmask 10101100
-24 callgsubr
hintmask 11001100
-2 callgsubr
endchar
                </CharString>
                <CharString name="n.sc">
                    -53 callgsubr
58 callsubr
hintmask 01011100
442 hmoveto
-56 callsubr
                </CharString>
                <CharString name="nacute">
                    32 callsubr
161 105 callsubr
hstemhm
93 126 211 127 hintmask 10101111
181 699 -107 callgsubr
hintmask 11001111
150 -238 4 callsubr
hintmask 10101111
17 callsubr
hintmask 10011111
-8 61 rlineto
hintmask 10101111
-24 callgsubr
hintmask 11001111
-2 callgsubr
endchar
                </CharString>
                <CharString name="nacute.sc">
                    -53 callgsubr
58 callsubr
hintmask 01011100
208 716 -107 callgsubr
234 -716 rmoveto
-56 callsubr
                </CharString>
                <CharString name="naira">
                    9 21 -21 174 111 -107 95 123 96 196 -20 hstemhm
104 109 221 107 hintmask 10111110
212 457 rmoveto
6 hlineto
86 -184 rlineto
-90 hlineto
217 -50 rmoveto
-79 173 rlineto
84 hlineto
1 -173 rlineto
-221 -223 rmoveto
-2 178 rlineto
135 hlineto
83 -178 rlineto
109 hlineto
hintmask 11011110
174 64 111 -64 96 65 111 -65 196 -108 vlineto
2 -196 rlineto
-127 hlineto
-89 196 rlineto
-115 -196 -67 -111 67 -96 -66 -111 66 -174 hlineto
endchar
                </CharString>
                <CharString name="ncaron">
                    32 callsubr
245 -20 hstemhm
93 126 211 127 hintmask 10101110
320 630 -97 callsubr
hintmask 11001110
12 -169 4 callsubr
hintmask 10101110
17 callsubr
hintmask 10011110
-8 61 rlineto
hintmask 10101110
-24 callgsubr
hintmask 11001110
-2 callgsubr
endchar
                </CharString>
                <CharString name="ncaron.sc">
                    -52 callgsubr
                </CharString>
                <CharString name="ncommaaccent">
                    32 callsubr
hstemhm
93 126 44 141 26 127 hintmask 11001010
331 461 4 callsubr
hintmask 10101010
17 callsubr
hintmask 10011010
-8 61 rlineto
hintmask 10101010
-24 callgsubr
hintmask 11001010
-2 callgsubr
hintmask 10101110
-83 -754 -101 callgsubr
                </CharString>
                <CharString name="ncommaaccent.sc">
                    -53 callgsubr
hstemhm
94 116 63 141 53 117 hintmask 01011110
101 callsubr
hintmask 10011110
-71 callgsubr
hintmask 01101110
-2 413 rlineto
7 hlineto
42 -706 -101 callgsubr
                </CharString>
                <CharString name="nine">
                    9 -3 -21 292 99 228 109 hstem
70 120 242 121 vstem
200 -24 rmoveto
242 112 111 155 192 vvcurveto
176 -95 93 -142 -131 -115 -90 -148 -179 192 -75 156 101 vhcurveto
-27 -84 -73 -69 -174 -70 rrcurveto
46 390 rmoveto
77 43 38 66 73 60 -51 -130 vhcurveto
-5 0 -5 -5 vvcurveto
-142 -65 -100 35 111 vvcurveto
endchar
                </CharString>
                <CharString name="nine.den">
                    1 -21 185 99 callgsubr
1 99 callsubr
vstem
87 -20 -84 callgsubr
                </CharString>
                <CharString name="nine.den_afrc">
                    -29 -68 99 callgsubr
118 99 callsubr
vstem
204 -253 -84 callgsubr
                </CharString>
                <CharString name="nine.den_afrc2">
                    390 -68 99 callgsubr
327 99 callsubr
vstem
413 -253 -84 callgsubr
                </CharString>
                <CharString name="nine.inf">
                    -107 -166 -21 185 73 callgsubr
79 99 callsubr
hintmask 11011100
165 -187 rmoveto
175 56 88 101 126 vvcurveto
121 -71 64 -103 -96 -79 -64 -93 vhcurveto
hintmask 10111100
-129 147 -33 97 77 vhcurveto
-12 -59 -46 -30 -136 -43 rrcurveto
hintmask 11011100
49 223 rmoveto
40 26 22 40 44 36 -30 -70 3 vhcurveto
-86 -35 -63 17 56 vvcurveto
endchar
                </CharString>
                <CharString name="nine.num">
                    415 99 callgsubr
79 99 callsubr
vstem
165 230 -84 callgsubr
                </CharString>
                <CharString name="nine.num_afrc">
                    -29 637 73 callgsubr
118 99 callsubr
hintmask 10111000
204 452 -63 callgsubr
                </CharString>
                <CharString name="nine.num_afrc2">
                    390 637 73 callgsubr
327 99 callsubr
hintmask 10111000
413 452 -63 callgsubr
                </CharString>
                <CharString name="nine.small">
                    1 -21 185 99 callgsubr
40 99 callsubr
vstem
126 -20 -84 callgsubr
                </CharString>
                <CharString name="nine.sup">
                    -107 526 73 callgsubr
79 99 callsubr
hintmask 10111000
165 341 -63 callgsubr
                </CharString>
                <CharString name="notequal">
                    9 18 -21 167 115 118 72 callgsubr
164 rmoveto
115 -194 vlineto
46 118 rlineto
148 115 -103 hlineto
51 132 -99 35 -65 -167 rlineto
-240 -115 196 hlineto
-46 -118 rlineto
-150 -115 106 hlineto
-52 -133 99 -34 65 167 rlineto
endchar
                </CharString>
                <CharString name="ntilde">
                    32 callsubr
110 34 callgsubr
-49 -20 hstemhm
93 126 211 127 hintmask 1010100111000000
384 648 -77 callgsubr
hhcurveto
hintmask 1010011011000000
-33 -54 85 -65 hhcurveto
-78 callsubr
hintmask 1010100111000000
27 callsubr
hintmask 1100010111000000
-53 -187 4 callsubr
hintmask 1010010111000000
17 callsubr
hintmask 1001010111000000
-8 61 rlineto
hintmask 1010010111000000
-24 callgsubr
hintmask 1100010111000000
-2 callgsubr
endchar
                </CharString>
                <CharString name="ntilde.sc">
                    -67 callgsubr
                </CharString>
                <CharString name="numbersign">
                    9 21 -21 175 117 106 117 173 -20 hstem
166 96 100 95 vstem
357 292 rmoveto
-100 hlineto
10 106 rlineto
100 hlineto
-40 -398 rmoveto
95 hlineto
18 175 rlineto
101 hlineto
12 117 rlineto
-101 hlineto
10 106 rlineto
101 hlineto
12 117 rlineto
-101 hlineto
18 173 rlineto
-95 hlineto
-18 -173 rlineto
-100 hlineto
18 173 rlineto
-96 hlineto
-18 -173 rlineto
-98 hlineto
-13 -117 rlineto
99 hlineto
-10 -106 rlineto
-98 hlineto
-13 -117 rlineto
99 hlineto
-18 -175 rlineto
96 hlineto
18 175 rlineto
100 hlineto
endchar
                </CharString>
                <CharString name="numero">
                    555 0 108 77 106 197 200 -97 107 -10 -20 hstemhm
104 119 241 119 83 125 192 125 hintmask 1101011110000000
866 185 rmoveto
140 102 109 161 154 -77 89 -125 -136 -104 -110 -160 -157 74 -86 126 hvcurveto
25 106 rmoveto
-67 -33 46 116 91 22 47 69 70 31 -45 -115 -91 -26 -49 -66 hvcurveto
-444 -291 rmoveto
136 hlineto
hintmask 1100111110000000
688 -121 vlineto
4 -437 rlineto
-5 hlineto
-199 437 rlineto
-158 -688 121 hlineto
hintmask 1110011110000000
-4 488 rlineto
5 hlineto
869 -488 rmoveto
108 -415 -108 vlineto
endchar
                </CharString>
                <CharString name="o">
                    34 callsubr
33 callsubr
295 -16 -100 callsubr
                </CharString>
                <CharString name="o.sc">
                    -63 callsubr
313 -13 -107 callsubr
                </CharString>
                <CharString name="oacute">
                    34 callsubr
90 callsubr
33 callsubr
188 699 -107 callgsubr
107 -715 -100 callsubr
                </CharString>
                <CharString name="oacute.sc">
                    -63 callsubr
210 730 -107 callgsubr
103 -743 -107 callsubr
                </CharString>
                <CharString name="obreve">
                    34 callsubr
71 107 33 callsubr
321 642 -106 callsubr
-26 -658 -100 callsubr
                </CharString>
                <CharString name="obreve.sc">
                    51 -13 103 408 104 71 107 69 callgsubr
290 130 vstem
343 673 -106 callsubr
-30 -686 -107 callsubr
                </CharString>
                <CharString name="ocircumflex">
                    34 callsubr
132 -20 33 callsubr
437 640 -99 callsubr
-18 -761 -100 callsubr
                </CharString>
                <CharString name="ocircumflex.sc">
                    -63 callsubr
460 671 -99 callsubr
-23 -789 -107 callsubr
                </CharString>
                <CharString name="odieresis">
                    34 callsubr
-13 callgsubr
62 124 -44.5 -19 callsubr
-47.5 124 hintmask 11101100
494 654 -54 callgsubr
155 -670 -100 callsubr
                </CharString>
                <CharString name="odieresis.sc">
                    -65 callgsubr
                </CharString>
                <CharString name="oe">
                    346 -16 107 -105 112 146 84.5 128.5 114 -107 107 hstemhm
62 124 256 126 205 125 hintmask 10101111
322 91 rmoveto
-83 -53 68 131 118 44 56 81 80 51 -68 -131 -118 -42 -56 -78 hvcurveto
hintmask 01110111
349 366 rmoveto
70 27 -46 -79 5 hvcurveto
-205 -7 rlineto
103 5 34 29 64 hhcurveto
197 -471 rmoveto
14 112 -205 5 -87 27 -19 109 rlinecurve
324 10 rlineto
hintmask 10101111
197 19 -68 125 -143 hhcurveto
-73 -69 -41 -64 -47 hvcurveto
68 -39 -65 37 -77 hhcurveto
-144 -127 -126 -183 -175 96 -103 131 83 77 43 72 49 hvcurveto
hintmask 01110111
55 -75 111 -41 204 3 rrcurveto
endchar
                </CharString>
                <CharString name="oe.sc">
                    -45 callsubr
                </CharString>
                <CharString name="ogonek">
                    3 callgsubr
                </CharString>
                <CharString name="ogonek.cap">
                    3 callgsubr
                </CharString>
                <CharString name="ograve">
                    34 callsubr
125 -20 110 -20 33 callsubr
437 696 -103 callsubr
-103 -652 -100 callsubr
                </CharString>
                <CharString name="ograve.sc">
                    -63 callsubr
459 727 -103 callsubr
-107 -680 -107 callsubr
                </CharString>
                <CharString name="ohungarumlaut">
                    34 callsubr
120 -20 21 -20 hstemhm
12 callgsubr
hintmask 11011100
148 692 rmoveto
64 -44 56 56 69 87 38 59 rlinecurve
-127 60 -21 -61 -43 -97 -36 -60 rlinecurve
hintmask 11101100
213 -1 rmoveto
65 -45 57 57 66 84 36 63 rlinecurve
-131 48 -21 -63 -37 -84 -35 -60 rlinecurve
-66 -707 -100 callsubr
                </CharString>
                <CharString name="ohungarumlaut.sc">
                    -63 callsubr
170 723 -88 callgsubr
-70 -735 -107 callsubr
                </CharString>
                <CharString name="omacron">
                    34 callsubr
101 115 33 callsubr
495 787 -66 callsubr
-200 -688 -100 callsubr
                </CharString>
                <CharString name="omacron.sc">
                    51 -13 103 408 104 101 115 69 callgsubr
290 130 vstem
518 818 -66 callsubr
-205 -716 -107 callsubr
                </CharString>
                <CharString name="one">
                    9 0 111 389 210 -11 61 callgsubr
280 125 hintmask 10011000
546 hmoveto
13 111 rlineto
-154 599 hlineto
hintmask 10101000
-125 -11 rlineto
-87 vlineto
hintmask 11001000
-173 -19 3 -93 rlineto
170 -389 -173 -111 hlineto
endchar
                </CharString>
                <CharString name="one.den">
                    0 26 callsubr
hstem
143 102 vstem
342 28 callsubr
                </CharString>
                <CharString name="one.den_afrc">
                    -29 -233 26 callsubr
hstem
260 102 vstem
459 -233 -7 callgsubr
                </CharString>
                <CharString name="one.den_afrc2">
                    390 -233 26 callsubr
hstem
469 102 vstem
668 -233 -7 callgsubr
                </CharString>
                <CharString name="one.inf">
                    -107 -167 26 callsubr
hstem
221 102 vstem
420 -167 -7 callgsubr
                </CharString>
                <CharString name="one.num">
                    250 90 201 161 -8 -20 hstemhm
221 102 hintmask 10110000
420 250 75 callgsubr
hlineto
hintmask 11010000
362 vlineto
hintmask 10110000
-102 -8 rlineto
hintmask 11010000
-67 vlineto
-109 -13 3 -73 rlineto
106 -201 -116 -90 hlineto
endchar
                </CharString>
                <CharString name="one.num_afrc">
                    -29 472 26 callsubr
hstem
260 102 vstem
459 472 -7 callgsubr
                </CharString>
                <CharString name="one.num_afrc2">
                    390 472 26 callsubr
hstem
469 102 vstem
668 472 -7 callgsubr
                </CharString>
                <CharString name="one.small">
                    0 26 callsubr
hstem
182 102 vstem
381 28 callsubr
                </CharString>
                <CharString name="one.sup">
                    -107 361 26 callsubr
hstem
221 102 vstem
420 361 -7 callgsubr
                </CharString>
                <CharString name="oneeighth">
                    91 callsubr
267 90 29 81 91 14 callgsubr
374 -53 callsubr
hintmask 0110001100000000
397 -79 callsubr
97 48 callsubr
hintmask 1010100110010000
-67 vlineto
-109 -13 3 -73 rlineto
106 -201 -116 -90 hlineto
755 -261 -64 callgsubr
hintmask 1010001100100000
52 28 29 35 46 vvcurveto
hintmask 1011001101100000
68 -69 47 -91 -111 -59 -67 -59 -16 callgsubr
hintmask 1010001110000000
-56 -26 -31 -35 -51 vvcurveto
hintmask 1010100110010000
-65 59 -51 104 vhcurveto
hintmask 1011001101100000
-95 callgsubr
hintmask 1010001110010000
-98 callgsubr
                </CharString>
                <CharString name="oneeighth.afrc">
                    10 callgsubr
77 82 callsubr
122 104 -98 107 25 102 -6 102 -100 108 hintmask 1011111101000000
-74 callsubr
212 -627 rmoveto
hintmask 1011111100010000
-71 callsubr
hintmask 1011111010100000
-81 callsubr
vhcurveto
hintmask 1101111011000000
-16 callgsubr
hintmask 1011111101000000
-46 callsubr
hintmask 1011111010100000
-95 callgsubr
hintmask 1011111100010000
-98 callgsubr
                </CharString>
                <CharString name="onefifth">
                    507 4 -21 25 -21 263 90 4 94 103 14 callgsubr
412.5 -33 callgsubr
hintmask 1010001111000000
397 -79 callsubr
97 30 callgsubr
hintmask 0110100111000000
362 vlineto
hintmask 0110010111000000
-102 -8 rlineto
hintmask 0110100111000000
-67 vlineto
-109 -13 3 -73 rlineto
106 -201 -116 -90 hlineto
928 -102 rmoveto
hintmask 0101001111000000
-106 callgsubr
hintmask 0110100111000000
-54 callsubr
endchar
                </CharString>
                <CharString name="onefifth.afrc">
                    -29 111 94 89 82 callsubr
160.5 90 9.5 102 0 96 hintmask 11110100
-74 callsubr
hintmask 11111010
385 -468 -102 callgsubr
                </CharString>
                <CharString name="onehalf">
                    507 0 93 -89 -21 267 90 14 96 91 14 callgsubr
594 103 -12 callgsubr
926 -250 rmoveto
53 callgsubr
hintmask 1011001110000000
76 -67 61 -229 vhcurveto
-7 -96 rlineto
156 -8 44 -19 -43 vvcurveto
-54 -75 -56 -142 -89 vhcurveto
11 -85 rlineto
endchar
                </CharString>
                <CharString name="onehalf.afrc">
                    -29 -233 79 callsubr
77 54 callsubr
-20 103 hintmask 11111100
-74 callsubr
383 -616 rmoveto
66 callgsubr
hintmask 11111010
113 77 62 66 77 vvcurveto
76 -67 61 -229 vhcurveto
-7 -96 rlineto
156 -8 44 -19 -43 vvcurveto
-54 -75 -56 -142 -89 vhcurveto
11 -85 rlineto
endchar
                </CharString>
                <CharString name="onequarter">
                    104 callgsubr
84 90 201 14 callgsubr
580.5 99 hintmask 0101001110000000
397 -79 callsubr
97 30 callgsubr
hintmask 1001100110000000
362 vlineto
hintmask 1001010110000000
-102 -8 rlineto
hintmask 1001100110000000
-67 vlineto
-109 -13 3 -73 rlineto
106 -201 -116 -90 hlineto
941 -173 -16 callsubr
hintmask 0011001110000000
10 callsubr
hintmask 1001001110000000
29 callsubr
                </CharString>
                <CharString name="onequarter.afrc">
                    -29 -155 88 361 54 callsubr
-33.5 99 hintmask 11111000
-74 callsubr
hintmask 11110100
398 -539 rmoveto
8 90 -52 -2 1 135 -86 callsubr
endchar
                </CharString>
                <CharString name="onesixth">
                    507 -11 90 -75 -21 213 77 -23 90 201 14 callgsubr
370 101 149 99 hintmask 0101001111000000
408 -79 callsubr
86 30 callgsubr
hintmask 1001100111000000
362 vlineto
hintmask 1001010111000000
-102 -8 rlineto
hintmask 1001100111000000
-67 vlineto
-109 -13 3 -73 rlineto
106 -201 -116 -90 hlineto
763 -261 rmoveto
95 79 64 94 hvcurveto
hintmask 1010001111000000
129 -146 33 -98 -78 vhcurveto
12 59 46 30 136 43 -36 94 rcurveline
-175 -55 -88 -101 -127 vvcurveto
hintmask 1001100111000000
69 callsubr
hintmask 1010001111000000
86 35 63 -16 -57 vvcurveto
hintmask 1001100111000000
-40 -25 -21 -40 vhcurveto
endchar
                </CharString>
                <CharString name="onesixth.afrc">
                    -29 -244 105 callgsubr
254 82 callsubr
118 101 41 102 6 99 hintmask 11111110
-74 callsubr
220 -627 rmoveto
hintmask 11111101
95 79 64 94 129 -146 33 -98 -78 hvcurveto
12 59 46 30 136 43 -36 94 rcurveline
-175 -55 -88 -101 -127 vvcurveto
hintmask 11111110
12 callsubr
hintmask 11111101
10 90 rmoveto
-45 -36 29 70 -3 hvcurveto
86 35 63 -16 -57 vvcurveto
-40 -25 -21 -40 vhcurveto
endchar
                </CharString>
                <CharString name="onethird">
                    507 -13 98 -81 -21 267 90 5 93 103 14 callgsubr
612 98 -12 callgsubr
617 -263 rmoveto
229 6 82 64 73 vvcurveto
51 -45 42 -117 22 vhcurveto
hintmask 1001001110000000
151 106 -8 87 rlineto
-291 -94 hlineto
174 2 rlineto
-3 vlineto
-140 -99 rlineto
-61 vlineto
122 -13 56 -20 -23 vvcurveto
-24 -48 -12 -172 -6 vhcurveto
endchar
                </CharString>
                <CharString name="onethird.afrc">
                    -29 -246 65 callsubr
89 54 callsubr
-2 98 hintmask 11111100
-74 callsubr
74 -629 rmoveto
hintmask 11111010
-104 callgsubr
endchar
                </CharString>
                <CharString name="ordfeminine">
                    -48 118 90 66 86 87 81 68 98 hstem
111 107 123 103 vstem
268 360 rmoveto
-32 -18 11 33 34 16 17 107 -8 hvcurveto
-24 1 -22 1 -19 vhcurveto
-14 -26 -27 -8 -22 hhcurveto
89 -78 rmoveto
95 5 rlineto
-3 55 -5 64 84 vvcurveto
148 -61 56 -239 vhcurveto
-9 -98 148 -3 46 -11 9 -54 rlinecurve
-158 -69 -70 -76 -66 50 -42 70 52 38 20 25 29 hvcurveto
-244 -111 rmoveto
-90 355 90 vlineto
endchar
                </CharString>
                <CharString name="ordmasculine">
                    -48 118 90 66 91 240 91 hstem
91 105 176 106 vstem
91 474 rmoveto
-130 70 -70 106 116 95 90 132 127 -74 73 -104 -113 -96 -91 -131 vhcurveto
197 -109 rmoveto
-60 -32 35 94 74 22 37 62 62 30 -34 -95 -74 -24 -37 -60 hvcurveto
179 -247 rmoveto
90 -364 -90 vlineto
endchar
                </CharString>
                <CharString name="oslash">
                    19 -16 107 -60 -21 22 -21 453 107 28 -20 hstemhm
12 callgsubr
hintmask 10010110
186 290 -20 callsubr
hintmask 10011110
47 66 -80 54 rlineto
hintmask 01010110
35 callgsubr
hintmask 00110110
79 -53 39 54 rlineto
hintmask 10010110
-18 32 37 -9 41 hhcurveto
endchar
                </CharString>
                <CharString name="oslash.sc">
                    -15 callsubr
188 305 -96 callgsubr
                </CharString>
                <CharString name="oslashacute">
                    19 -16 107 -60 -21 22 -21 453 107 28 -20 120 105 callsubr
hstemhm
12 callgsubr
hintmask 1001011110000000
188 699 -107 callgsubr
-2 -409 -20 callsubr
hintmask 1001111110000000
47 66 -80 54 rlineto
hintmask 0101011110000000
35 callgsubr
hintmask 0011011110000000
79 -53 39 54 rlineto
hintmask 1001011110000000
-18 32 37 -9 41 hhcurveto
endchar
                </CharString>
                <CharString name="oslashacute.sc">
                    -15 callsubr
204 730 -107 callgsubr
-16 -425 -96 callgsubr
                </CharString>
                <CharString name="otilde">
                    34 callsubr
77 34 callgsubr
-49 -20 hstemhm
12 callgsubr
hintmask 11100111
391 648 -77 callgsubr
hhcurveto
hintmask 11011011
-33 -54 85 -65 hhcurveto
-78 callsubr
hintmask 11100111
27 callsubr
hintmask 11010111
-96 -664 -100 callsubr
                </CharString>
                <CharString name="otilde.sc">
                    51 -13 103 408 104 77 74 callsubr
hstemhm
58 130 290 130 hintmask 11101100
413 679 -77 callgsubr
-33 -54 85 -65 hhcurveto
hintmask 11011100
45 callgsubr
-100 -692 -107 callsubr
                </CharString>
                <CharString name="p">
                    12 98 callsubr
167 115 366 106 -20 20 -13 -20 hstemhm
93 126 223 125 hintmask 01110011
308 99 rmoveto
-26 -30 5 9 -33 hvcurveto
-1 156 -1 91 -2 75 rrcurveto
20 30 31 10 30 hhcurveto
74 62 -63 -133 -115 -47 -55 -87 hvcurveto
-89 -282 rmoveto
167 vlineto
195 153 118 207 159 -94 103 -117 -63 -50 -28 -34 -37 hvcurveto
hintmask 01100111
-8 49 rlineto
hintmask 10101011
-115 -7 rlineto
7 -106 3 -133 -312 vvcurveto
-194 vlineto
endchar
                </CharString>
                <CharString name="p.sc">
                    -30 callgsubr
                </CharString>
                <CharString name="paragraph">
                    184 89 110 370 133 hstem
77 131 143 117 102 122 vstem
570 199 rmoveto
-37 1 -34 3 -31 5 rrcurveto
365 vlineto
31 1 34 -1 37 -4 rrcurveto
-362 -175 rmoveto
70 38 65 105 29 vhcurveto
-321 vlineto
-93 35 -50 57 65 vvcurveto
260 -512 rmoveto
211 vlineto
-3 32 34 -1 36 hhcurveto
-196 vlineto
122 13 rlineto
796 vlineto
-381 1 -234 -127 -204 vvcurveto
-121 98 -96 171 -42 vhcurveto
-243 vlineto
endchar
                </CharString>
                <CharString name="parenleft">
                    -130 -230 1031 hstem
67 125 vstem
350 801 0 callgsubr
                </CharString>
                <CharString name="parenleft.cap">
                    -130 772 -20 hstem
67 125 vstem
350 857 0 callgsubr
                </CharString>
                <CharString name="parenright">
                    -130 -230 1031 hstem
292 126 vstem
135 -230 0 callsubr
                </CharString>
                <CharString name="parenright.cap">
                    -130 -174 1031 hstem
292 126 vstem
135 -174 0 callsubr
                </CharString>
                <CharString name="percent">
                    285 5 -21 26 -21 710 -20 25 -20 hstemhm
106 254 -254 687 -254 254 hintmask 01011000
106 551 rmoveto
-88 51 -53 68 74 61 60 92 87 -51 55 -68 -73 -62 -61 -92 vhcurveto
113 -562 rmoveto
hintmask 01100100
537 648 -75 62 -537 -648 rlineto
hintmask 10010010
649 87 rmoveto
87 -51 54 -68 -74 -61 -60 -92 -88 51 -55 69 72 62 62 92 vhcurveto
endchar
                </CharString>
                <CharString name="period">
                    -226 0 160 hstem
110 170 vstem
276 hmoveto
8 21 callsubr
-8 -160 rlineto
endchar
                </CharString>
                <CharString name="period.tab">
                    -169 0 160 hstem
139 170 vstem
305 hmoveto
8 21 callsubr
-8 -160 rlineto
endchar
                </CharString>
                <CharString name="periodcentered">
                    -226 253 160 hstem
109.5 170 vstem
279 253 rmoveto
1 21 callsubr
-1 -160 rlineto
endchar
                </CharString>
                <CharString name="periodcentered.tab">
                    -170 253 160 hstem
137.5 170 vstem
307 253 rmoveto
1 21 callsubr
-1 -160 rlineto
endchar
                </CharString>
                <CharString name="peso">
                    9 21 -21 193 113 75 111 -97 96 96 112 -11 -20 hstemhm
105 124 hintmask 11011010
229 491 rmoveto
96 vlineto
114 10 68 -33 20 -73 rrcurveto
-202 -181 rmoveto
85 205 vlineto
-16 -80 -68 -19 -121 14 rrcurveto
hintmask 11100110
380 71 rmoveto
111 -47 vlineto
-14 164 -159 72 -284 -40 rrcurveto
-196 -68 -111 68 -381 124 193 vlineto
157 14 124 56 40 118 rrcurveto
endchar
                </CharString>
                <CharString name="plus">
                    9 275 115 hstem
253 119 vstem
552 275 rmoveto
115 -180 188 -119 -188 -179 -115 179 -188 119 188 vlineto
endchar
                </CharString>
                <CharString name="plusminus">
                    9 50 114 158 114 hstem
253 119 vstem
546 50 rmoveto
114 -174 158 174 114 -174 181 -119 -181 -174 -114 174 -158 -174 -114 vlineto
endchar
                </CharString>
                <CharString name="published">
                    301 -34 86 103 175 107 89 110 87 hstem
78 93 160 104 82 103 124 -30 callsubr
261 -189 rmoveto
0 1 39 50 vvcurveto
108 12 79 45 96 vvcurveto
93 -102 53 -187 -22 vhcurveto
-366 vlineto
186 226 rmoveto
-47 -27 -11 -56 10 vhcurveto
1 38 0 37 29 vvcurveto
55 7 27 -31 -32 vvcurveto
endchar
                </CharString>
                <CharString name="q">
                    12 98 callsubr
166 106 366 116 hstemhm
60 125 226 127 hintmask 10111100
411 -194 rmoveto
hintmask 01111100
127 11 rlineto
727 vlineto
18 -42 -47 9 -67 hhcurveto
-164 -158 -125 -201 -160 95 -102 116 57 47 23 30 36 hvcurveto
-90 53 rmoveto
-74 -62 63 133 115 47 55 87 27 31 -5 -9 34 hvcurveto
-323 vlineto
-19 -30 -31 -10 -29 hhcurveto
endchar
                </CharString>
                <CharString name="q.sc">
                    -60 callgsubr
                </CharString>
                <CharString name="question">
                    -46 0 149 hstem
166.5 158.5 37 140 vstem
89 627 rmoveto
240 -23 33 -27 -33 vvcurveto
-57 -152 -42 -4 -182 vhcurveto
92 -2 rlineto
9 159 195 25 127 vvcurveto
87 -89 72 -309 20 vhcurveto
219 -751 rmoveto
4 88 callsubr
                </CharString>
                <CharString name="questiondown">
                    -45 539 149 hstem
67 140 37 158.5 vstem
246 688 rmoveto
-4 -149 rlineto
159 hlineto
3 149 rlineto
76 -627 rmoveto
-240 23 -33 27 33 vvcurveto
57 152 42 4 182 vhcurveto
-92 2 rlineto
-9 -158 -195 -26 -126 vvcurveto
-88 89 -72 310 -20 vhcurveto
endchar
                </CharString>
                <CharString name="quotedbl">
                    8 428 325 hstem
134 150 93 150 vstem
464 428 rmoveto
95 callgsubr
-156 hmoveto
95 callgsubr
endchar
                </CharString>
                <CharString name="quotedblbase">
                    35 -169 -21 hstem
138 143 115 142 vstem
95 -23 callsubr
257 hmoveto
70 -19 78 78 74 173 -54 108 rlinecurve
-154 -8 48 -98 -13 48 callgsubr
endchar
                </CharString>
                <CharString name="quotedblleft">
                    35 407 359 hstem
112 143 114 143 vstem
555 747 rmoveto
-69 19 -78 -78 -75 -173 55 -108 rlinecurve
154 8 -49 98 14 171 48 63 rlinecurve
-257 hmoveto
40 callgsubr
                </CharString>
                <CharString name="quotedblright">
                    25 401 358 hstem
144 142 115 143 35 callsubr
258 hmoveto
70 -19 78 77 74 174 -55 107 rlinecurve
-154 -8 49 -97 -13 48 callgsubr
endchar
                </CharString>
                <CharString name="quoteleft">
                    -222 407 359 hstem
112 143 vstem
298 747 rmoveto
40 callgsubr
                </CharString>
                <CharString name="quoteright">
                    -232 401 358 hstem
144 142 35 callsubr
endchar
                </CharString>
                <CharString name="quotesinglbase">
                    -222 -169 -21 hstem
138 143 vstem
95 -23 callsubr
endchar
                </CharString>
                <CharString name="quotesingle">
                    -298 428 325 hstem
106 150.5 vstem
194 428 rmoveto
64 291 -3 34 rlineto
-149 -325 hlineto
endchar
                </CharString>
                <CharString name="r">
                    -54 27 callgsubr
22 -20 hstemhm
191 126 hintmask 11010000
447 hmoveto
-8 callsubr
hintmask 10110000
-9 136 rlineto
hintmask 11010000
22 callgsubr
                </CharString>
                <CharString name="r.sc">
                    -4 12 -21 30 -21 195 77 callsubr
hintmask 10101110
443 -9 -74 callgsubr
hintmask 01110110
-82 callsubr
endchar
                </CharString>
                <CharString name="racute">
                    -54 27 callgsubr
22 -20 148 105 callsubr
hstemhm
191 126 hintmask 11011100
176 705 -107 callgsubr
271 -705 rmoveto
-8 callsubr
hintmask 10111100
-9 136 rlineto
hintmask 11011100
22 callgsubr
                </CharString>
                <CharString name="racute.sc">
                    -18 callsubr
hstemhm
94 128 178 130 hintmask 00111010
154 724 -107 callgsubr
hintmask 10010111
289 -733 -74 callgsubr
hintmask 01011011
-82 callsubr
endchar
                </CharString>
                <CharString name="rcaron">
                    -54 27 callgsubr
22 -20 232 -20 hstemhm
191 126 hintmask 11011000
315 636 -97 callsubr
133 -636 rmoveto
-8 callsubr
hintmask 10111000
-9 136 rlineto
hintmask 11011000
22 callgsubr
                </CharString>
                <CharString name="rcaron.sc">
                    -18 callsubr
217 47 callsubr
hintmask 0011101100000000
294 655 -97 callsubr
hintmask 1001011110000000
150 -664 -74 callgsubr
hintmask 0101101110000000
-82 callsubr
endchar
                </CharString>
                <CharString name="rcommaaccent">
                    -54 27 callgsubr
22 -20 hstemhm
191 126 -120 141 hintmask 11010000
447 hmoveto
-8 callsubr
hintmask 10110000
-9 136 rlineto
hintmask 11010000
-40 callsubr
hintmask 11001000
108 -293 -101 callgsubr
                </CharString>
                <CharString name="rcommaaccent.sc">
                    -18 callsubr
hstemhm
94 128 31 141 6 130 hintmask 1001011010000000
443 -9 -74 callgsubr
hintmask 0101101010000000
-82 callsubr
hintmask 0011101100000000
16 -586 -101 callgsubr
                </CharString>
                <CharString name="registered">
                    107 200 68 170 165 84 68 hstem
86 73 100 82 223 74 vstem
638 485 rmoveto
168 -117 102 -158 -164 -113 -117 -168 -168 108 -102 165 158 121 116 169 vhcurveto
-74 -8 rmoveto
-133 -82 -76 -121 -121 -81 76 133 134 81 76 121 121 82 -76 -134 vhcurveto
-157 -130 rmoveto
90 8 -69 100 rlineto
28 21 20 29 26 vvcurveto
37 -38 52 -179 -22 vhcurveto
-246 82 86 11 vlineto
endchar
                </CharString>
                <CharString name="registered.alt">
                    301 -34 86 207.5 83 93.5 90 110 87 hstem
78 93 148 102 82 106 135 -30 callsubr
352 -194 rmoveto
109 12 -89 147 rlineto
38 26 28 34 45 vvcurveto
80 -72 49 -218 -22 vhcurveto
-366 102 104 vlineto
43 1 rlineto
-43 176 rmoveto
59 7 23 -20 -30 vvcurveto
-22 -8 -15 -18 -13 vhcurveto
-56 -1 rlineto
endchar
                </CharString>
                <CharString name="ring">
                    -48 614 228 hstem
160 266 vstem
292 842 -83 callsubr
endchar
                </CharString>
                <CharString name="ring.cap">
                    -48 614 228 hstem
160 266 vstem
292 842 -83 callsubr
endchar
                </CharString>
                <CharString name="ruble">
                    9 21 -21 118 101 57 107 197 116 -8 -20 hstemhm
125 130 189 131 hintmask 11110110
444 485 rmoveto
-79 -47 -21 -142 -2 vhcurveto
197 vlineto
127 6 62 -30 -71 vvcurveto
17 -367 rmoveto
11 101 rlineto
-217 64 hlineto
206 20 114 68 133 vvcurveto
hintmask 11101110
156 -157 58 -293 -30 vhcurveto
-305 -71 -107 71 -52 -71 -106 71 -118 130 118 vlineto
endchar
                </CharString>
                <CharString name="rupee">
                    344 -11 116 -116 119 -87 -21 32 -21 221.5 99.5 121 113 17 88 callgsubr
41 133 72 133 hintmask 1000110111110000
410 -11 rmoveto
hintmask 0001110111110000
45 callsubr
hintmask 0010111011110000
26 callgsubr
hintmask 0100110111110000
631 235 rmoveto
-226 13 -77 -99 -84 -138 205 -42 -63 vvcurveto
-44 -43 -11 -146 10 vhcurveto
hintmask 1000110111110000
-4 -119 rlineto
249 -3 77 83 84 146 -205 52 60 vvcurveto
39 41 12 133 -15 vhcurveto
endchar
                </CharString>
                <CharString name="rupeeindia">
                    9 -1 -21 399 101 96 114 -111 -20 hstemhm
79 477 hintmask 11101000
556 49 rmoveto
-150 108 -75 53 -75 28 105 27 66 53 26 59 rrcurveto
83 101 -76 hlineto
-10 39 -24 33 -38 24 rrcurveto
151 hlineto
10 114 rlineto
-451 hlineto
hintmask 11011000
-9 -111 151 -15 63 -34 22 -50 rlinecurve
-234 -101 235 hlineto
-20 -52 -60 -29 -141 -3 -26 -104 rcurveline
138 -41 41 -28 181 -142 rrcurveto
endchar
                </CharString>
                <CharString name="s">
                    -90 -11 -2 callsubr
hstemhm
71 128 134 129 hintmask 10011100
427 566 43 callgsubr
hintmask 01011100
-1 callgsubr
hintmask 10101100
-42 callgsubr
endchar
                </CharString>
                <CharString name="s.sc">
                    -90 -9 -51 callsubr
100 callgsubr
hintmask 10111000
71 103 -75 callgsubr
                </CharString>
                <CharString name="sacute">
                    -90 -11 -2 callsubr
129 105 callsubr
hstemhm
71 128 134 129 hintmask 10011111
138 695 -107 callgsubr
289 -129 43 callgsubr
hintmask 01011111
-1 callgsubr
hintmask 10101111
-42 callgsubr
endchar
                </CharString>
                <CharString name="sacute.sc">
                    -90 -9 -51 callsubr
100 callgsubr
hintmask 10111000
140 726 -107 callgsubr
-69 -623 -75 callgsubr
                </CharString>
                <CharString name="scaron">
                    -90 -11 -2 callsubr
213 -20 39 -20 hstemhm
71 128 134 129 hintmask 10010111
277 626 -48 callsubr
rlineto
hintmask 10011011
96 callgsubr
hintmask 10010111
-45 callgsubr
151 -60 43 callgsubr
hintmask 01010111
-1 callgsubr
hintmask 10100111
-42 callgsubr
endchar
                </CharString>
                <CharString name="scaron.sc">
                    86 callsubr
190 -20 hstemhm
66 134 100 callgsubr
hintmask 10111100
279 657 -97 callsubr
-207 -554 -3 callgsubr
hintmask 11011100
-69 callsubr
hintmask 10111100
-81 callgsubr
endchar
                </CharString>
                <CharString name="scedilla">
                    -90 -267 103 153 -2 callsubr
hstemhm
71 128 68 96 -30 129 hintmask 11001101
427 566 43 callgsubr
hintmask 10101101
-1 callgsubr
hintmask 11010101
-42 callgsubr
hintmask 11001110
-256 -545 -89 callgsubr
                </CharString>
                <CharString name="scedilla.sc">
                    -90 -265 103 153 -51 callsubr
63 96 -23 133 hintmask 11011010
78 callgsubr
hintmask 11101010
-69 callsubr
hintmask 11011010
-81 callgsubr
hintmask 11011100
100 -199 -89 callgsubr
                </CharString>
                <CharString name="schwa">
                    -30 -16 114 128.5 84.5 146 112 hstem
63 125 211 125 vstem
264 -16 rmoveto
138 122 134 166 181 -91 109 -340 -5 hvcurveto
-14 -112 209 -5 88 -27 20 -109 rlinecurve
-330 -10 rlineto
-197 -19 69 -125 148 hhcurveto
26 114 rmoveto
-70 -27 46 79 -5 hvcurveto
211 7 rlineto
-103 -6 -36 -29 -67 hhcurveto
endchar
                </CharString>
                <CharString name="scommaaccent">
                    -90 -11 -2 callsubr
hstemhm
71 128 -7 141 0 129 hintmask 10011010
427 566 43 callgsubr
hintmask 01011010
-1 callgsubr
hintmask 10101010
-42 callgsubr
hintmask 10010100
-254 -751 -101 callgsubr
                </CharString>
                <CharString name="scommaaccent.sc">
                    -58 callsubr
                </CharString>
                <CharString name="section">
                    8 -117 115 586 114 hstemhm
60 115 -72 134 149 134 -73 115 hintmask 11100100
175 296 rmoveto
27 47 27 60 16 vhcurveto
83 -29 82 -20 -32 vvcurveto
-27 -46 -27 -59 -16 vhcurveto
-85 29 -82 20 32 vvcurveto
hintmask 11011000
345 -223 rmoveto
46 -36 32 -49 26 vhcurveto
hintmask 11010100
75 34 52 48 62 124 -325 23 56 vvcurveto
23 40 49 244 -15 vhcurveto
-8 117 rlineto
-305 16 -105 -121 -85 vvcurveto
-46 36 -33 50 -25 vhcurveto
hintmask 11101000
-76 -33 -53 -46 -62 -124 326 -26 -55 vvcurveto
-24 -44 -48 -243 15 vhcurveto
-5 -118 rlineto
hintmask 11011000
322 -15 104 121 84 vvcurveto
endchar
                </CharString>
                <CharString name="semicolon">
                    -223 -169 -21 585 160 hstemhm
117 170 -137 146 hintmask 11100000
286 2 callgsubr
                </CharString>
                <CharString name="semicolon.tab">
                    -169 -169 -21 585 160 hstemhm
145 170 -137 146 hintmask 11100000
314 2 callgsubr
                </CharString>
                <CharString name="servicemark">
                    388 280 90 -48 138 113 -20 20 115 -82 82 -82 90 hstemhm
68 112 77 112 67 94.5 270 99.5 hintmask 0101000011000000
623 322 rmoveto
89 hlineto
84 251 rlineto
6 hlineto
-3 -288 rlineto
101 hlineto
hintmask 0110100011000000
403 -150 vlineto
-74 -228 rlineto
-5 hlineto
-74 228 rlineto
-161 -403 96 hlineto
-3 288 rlineto
5 hlineto
hintmask 1010011111000000
-461 -203 rmoveto
-90 vlineto
212 -6 84 66 63 93 -189 47 41 vvcurveto
20 30 8 130 -6 vhcurveto
-7 90 rlineto
-193 9 -72 -68 -64 -90 189 -48 -37 vvcurveto
-23 -49 -12 -135 7 vhcurveto
endchar
                </CharString>
                <CharString name="seven">
                    9 11 -21 38 -21 562 119 hstemhm
94 462 hintmask 10110000
276 -10 rmoveto
68 195 96 201 116 188 rrcurveto
114 -451 vlineto
-11 -119 rlineto
333 hlineto
3 -6 rlineto
hintmask 01110000
-117 -182 -94 -186 -68 -188 rrcurveto
endchar
                </CharString>
                <CharString name="seven.den">
                    11 -21 33 -21 342 94 hstemhm
18 -34 callsubr
hintmask 10110000
166 -10 rmoveto
hintmask 01101000
-91 callsubr
endchar
                </CharString>
                <CharString name="seven.den_afrc">
                    -29 111 94 hstemhm
135 -34 callsubr
hintmask 11000000
283 -243 rmoveto
hintmask 10100000
-91 callsubr
endchar
                </CharString>
                <CharString name="seven.den_afrc2">
                    390 111 94 hstemhm
344 -34 callsubr
hintmask 11000000
492 -243 rmoveto
hintmask 10100000
-91 callsubr
endchar
                </CharString>
                <CharString name="seven.inf">
                    -107 177 94 hstemhm
96 -34 callsubr
hintmask 11000000
244 -177 rmoveto
hintmask 10100000
-91 callsubr
endchar
                </CharString>
                <CharString name="seven.num">
                    594 94 hstemhm
96 -34 callsubr
hintmask 11000000
244 240 rmoveto
hintmask 10100000
-91 callsubr
endchar
                </CharString>
                <CharString name="seven.num_afrc">
                    -29 816 94 hstemhm
135 -34 callsubr
hintmask 11000000
283 462 rmoveto
hintmask 10100000
-91 callsubr
endchar
                </CharString>
                <CharString name="seven.num_afrc2">
                    390 816 94 hstemhm
344 -34 callsubr
hintmask 11000000
492 462 rmoveto
hintmask 10100000
-91 callsubr
endchar
                </CharString>
                <CharString name="seven.small">
                    11 -21 33 -21 342 94 hstemhm
57 -34 callsubr
hintmask 10110000
205 -10 rmoveto
hintmask 01101000
-91 callsubr
endchar
                </CharString>
                <CharString name="seven.sup">
                    -107 705 94 hstemhm
96 -34 callsubr
hintmask 11000000
244 351 rmoveto
hintmask 10100000
-91 callsubr
endchar
                </CharString>
                <CharString name="seveneighths">
                    91 callsubr
386 81 144 94 17 -20 hstemhm
319.5 108.5 269 -53 callsubr
hintmask 0110111001000000
352 -79 callsubr
-34 210 rmoveto
hintmask 1011011001000000
-91 callsubr
723 -263 -64 callgsubr
hintmask 1011010110000000
-81 callsubr
-16 callgsubr
hintmask 1011011001000000
-46 callsubr
hintmask 1011010110000000
-95 callgsubr
hintmask 1011011001000000
-98 callgsubr
                </CharString>
                <CharString name="seveneighths.afrc">
                    10 callgsubr
77 89 433 94 hstemhm
122 -53 callsubr
hintmask 1011111001000000
283 462 rmoveto
-91 callsubr
-103 -180 -29 callsubr
212 -627 -64 callgsubr
hintmask 1011110110000000
-81 callsubr
vhcurveto
hintmask 1101110101000000
-16 callgsubr
hintmask 1011111001000000
-46 callsubr
hintmask 1011110110000000
-95 callgsubr
hintmask 1011111001000000
-98 callgsubr
                </CharString>
                <CharString name="six">
                    9 -16 109 228 99 293 -20 hstem
71 121 242 120 vstem
309 -16 rmoveto
131 114 90 148 179 -192 76 -156 -103 hvcurveto
26 84 74 70 175 70 -57 115 rcurveline
-242 -112 -111 -156 -192 vvcurveto
-175 96 -94 142 vhcurveto
17 109 rmoveto
-74 -60 51 130 hvcurveto
5 0 5 5 vvcurveto
143 65 99 -35 -110 vvcurveto
-78 -43 -38 -65 vhcurveto
endchar
                </CharString>
                <CharString name="six.den">
                    -11 105 callgsubr
hstem
1 64 callgsubr
176 -11 -102 callsubr
                </CharString>
                <CharString name="six.den_afrc">
                    -29 -244 105 callgsubr
hstem
118 64 callgsubr
293 -244 -102 callsubr
                </CharString>
                <CharString name="six.den_afrc2">
                    390 -244 105 callgsubr
hstem
327 64 callgsubr
502 -244 -102 callsubr
                </CharString>
                <CharString name="six.inf">
                    -107 -178 105 callgsubr
-74 -21 hstemhm
79 101 149 99 hintmask 10111000
254 -178 rmoveto
95 79 64 94 hvcurveto
hintmask 11011000
129 -146 33 -98 -78 vhcurveto
12 59 46 30 136 43 -36 94 rcurveline
-175 -55 -88 -101 -127 vvcurveto
hintmask 10111000
69 callsubr
hintmask 11011000
86 35 63 -16 -57 vvcurveto
hintmask 10111000
-40 -25 -21 -40 vhcurveto
endchar
                </CharString>
                <CharString name="six.num">
                    239 105 callgsubr
184 -20 hstem
79 64 callgsubr
254 239 -102 callsubr
                </CharString>
                <CharString name="six.num_afrc">
                    -29 461 90 117 35 hstem
118 64 callgsubr
293 461 -102 callsubr
                </CharString>
                <CharString name="six.num_afrc2">
                    390 461 90 117 35 hstem
327 64 callgsubr
502 461 -102 callsubr
                </CharString>
                <CharString name="six.small">
                    -11 105 callgsubr
hstem
40 64 callgsubr
215 -11 -102 callsubr
                </CharString>
                <CharString name="six.sup">
                    -107 350 90 117 35 hstem
79 64 callgsubr
254 350 -102 callsubr
                </CharString>
                <CharString name="slash">
                    -82 799 -20 hstem
-16 565 vstem
441 799 rmoveto
-457 -981 113 -23 452 970 rlineto
endchar
                </CharString>
</ttFont>
